{"glyphs":{"0":{"ha":772,"x_min":44,"x_max":754,"o":"m 326 -17 q 115 49 186 -17 q 44 272 44 114 q 65 476 44 358 q 153 773 97 665 q 287 925 208 881 q 472 969 365 969 q 683 903 613 969 q 754 678 754 838 q 735 476 754 585 q 646 180 703 288 q 511 28 589 72 q 326 -17 433 -17 m 317 85 q 508 181 443 85 q 608 476 572 276 q 629 669 629 588 q 595 819 629 769 q 482 868 561 868 q 340 823 396 868 q 250 694 283 778 q 192 476 217 610 q 169 281 169 357 q 203 133 169 182 q 317 85 238 85 z "},"1":{"ha":772,"x_min":49,"x_max":663,"o":"m 67 101 l 313 101 l 432 779 l 185 779 l 197 851 q 364 887 265 858 q 538 953 463 915 l 585 953 l 435 101 l 663 101 l 644 0 l 49 0 l 67 101 z "},"2":{"ha":772,"x_min":-17,"x_max":758,"o":"m -10 40 q 52 178 3 115 q 165 290 101 242 q 331 406 229 339 q 491 519 432 474 q 590 623 550 565 q 631 749 631 681 q 593 831 631 797 q 474 864 556 864 q 313 814 368 864 q 240 682 257 764 l 229 625 l 107 625 q 166 819 113 742 q 303 933 219 896 q 485 969 386 969 q 685 913 613 969 q 758 740 758 857 q 709 578 758 651 q 589 449 660 504 q 401 318 518 393 q 274 232 319 264 q 193 165 229 200 q 153 117 168 140 l 657 117 l 636 0 l -17 0 l -10 40 z "},"3":{"ha":772,"x_min":24,"x_max":764,"o":"m 342 -17 q 106 44 188 -17 q 24 213 24 106 q 32 281 24 250 l 156 281 q 149 224 149 250 q 194 120 149 156 q 328 85 240 85 q 508 139 436 85 q 579 300 579 193 q 383 433 579 433 l 283 433 l 301 535 l 406 535 q 517 558 464 535 q 602 626 569 581 q 635 738 635 672 q 589 835 635 803 q 472 868 543 868 q 317 817 376 868 q 249 696 257 767 l 247 683 l 124 683 l 125 693 q 185 842 136 779 q 308 937 233 904 q 468 969 382 969 q 685 911 606 969 q 764 746 764 853 q 710 590 764 649 q 564 494 657 531 l 563 489 q 666 417 628 467 q 704 292 704 367 q 656 128 704 199 q 524 21 607 58 q 342 -17 442 -17 z "},"4":{"ha":772,"x_min":3,"x_max":711,"o":"m 444 235 l 3 235 l 19 338 q 227 646 136 492 q 386 969 318 800 l 522 969 q 400 721 475 851 q 251 485 325 590 q 139 336 178 379 l 463 336 l 517 649 q 606 828 560 725 l 671 828 l 585 336 l 711 336 l 693 235 l 567 235 l 525 0 l 403 0 l 444 235 z "},"5":{"ha":772,"x_min":19,"x_max":754,"o":"m 317 -17 q 98 49 176 -17 q 19 229 19 114 q 25 296 19 264 l 150 296 q 146 250 146 271 q 191 128 146 172 q 310 83 236 83 q 494 151 418 83 q 569 360 569 218 q 531 476 569 435 q 422 517 492 517 q 292 487 354 517 q 190 407 231 457 l 81 425 l 213 953 l 754 953 l 733 836 l 296 836 l 221 547 q 451 619 314 619 q 631 556 564 619 q 699 371 699 493 q 648 163 699 251 q 510 29 597 75 q 317 -17 422 -17 z "},"6":{"ha":772,"x_min":31,"x_max":729,"o":"m 329 -17 q 106 51 182 -17 q 31 278 31 119 q 47 449 31 351 q 137 755 79 640 q 276 919 194 869 q 471 969 358 969 q 665 910 601 969 q 729 747 729 850 q 722 674 729 715 l 597 674 q 601 728 601 703 q 467 868 601 868 q 282 780 346 868 q 183 514 218 692 q 294 587 231 561 q 426 613 358 613 q 627 544 560 613 q 694 360 694 475 q 644 163 694 249 q 510 31 594 78 q 329 -17 426 -17 m 324 85 q 452 122 397 85 q 536 217 507 158 q 565 343 565 276 q 526 467 565 421 q 406 513 488 513 q 272 478 329 513 q 185 385 215 443 q 154 257 154 326 q 197 131 154 176 q 324 85 239 85 z "},"7":{"ha":772,"x_min":125,"x_max":821,"o":"m 126 0 q 615 836 194 383 l 125 836 l 146 953 l 821 953 l 808 879 q 467 491 606 683 q 279 65 329 299 q 268 0 271 26 l 126 0 z "},"8":{"ha":772,"x_min":17,"x_max":742,"o":"m 318 -17 q 90 46 164 -17 q 17 213 17 108 q 67 381 17 308 q 218 489 118 453 q 144 563 169 518 q 119 665 119 608 q 163 817 119 747 q 284 928 206 886 q 464 969 363 969 q 671 907 600 969 q 742 744 742 844 q 697 594 742 663 q 568 489 651 526 q 690 303 690 433 q 648 142 690 215 q 522 26 606 69 q 318 -17 438 -17 m 401 538 q 555 591 492 538 q 618 738 618 644 q 576 833 618 799 q 460 868 535 868 q 304 814 365 868 q 243 668 243 760 q 285 572 243 607 q 401 538 326 538 m 322 85 q 492 139 422 85 q 563 299 563 193 q 517 400 563 364 q 383 436 472 436 q 208 378 274 436 q 143 222 143 319 q 189 121 143 157 q 322 85 235 85 z "},"9":{"ha":772,"x_min":54,"x_max":753,"o":"m 313 -17 q 118 43 182 -17 q 54 206 54 103 q 61 279 54 238 l 186 279 q 182 225 182 250 q 317 85 182 85 q 501 173 438 85 q 600 439 565 261 q 489 366 553 392 q 357 340 425 340 q 156 409 224 340 q 89 593 89 478 q 139 790 89 704 q 273 922 189 875 q 454 969 357 969 q 677 901 601 969 q 753 675 753 833 q 736 504 753 603 q 647 198 704 313 q 507 33 589 83 q 313 -17 425 -17 m 378 440 q 511 475 454 440 q 599 568 568 510 q 629 696 629 626 q 587 822 629 776 q 460 868 544 868 q 331 831 386 868 q 247 735 276 794 q 218 610 218 676 q 257 486 218 532 q 378 440 296 440 z "},"\u0000":{"ha":0,"x_min":0,"x_max":0,"o":""},"\r":{"ha":386,"x_min":0,"x_max":0,"o":""}," ":{"ha":386,"x_min":0,"x_max":0,"o":""},"A":{"ha":926,"x_min":-57,"x_max":851,"o":"m -57 0 l 479 953 l 650 953 l 851 0 l 713 0 l 663 254 l 221 254 l 82 0 l -57 0 m 283 369 l 639 369 l 588 632 l 547 839 l 540 839 l 431 638 l 283 369 z "},"Á":{"ha":926,"x_min":-57,"x_max":851,"o":"m 0 0 m -57 0 l 479 953 l 650 953 l 851 0 l 713 0 l 663 254 l 221 254 l 82 0 l -57 0 m 283 369 l 639 369 l 588 632 l 547 839 l 540 839 l 431 638 l 283 369 m 524 1022 l 674 1206 l 814 1206 l 815 1201 l 643 1022 l 524 1022 z "},"Ă":{"ha":926,"x_min":-57,"x_max":851,"o":"m 0 0 m -57 0 l 479 953 l 650 953 l 851 0 l 713 0 l 663 254 l 221 254 l 82 0 l -57 0 m 283 369 l 639 369 l 588 632 l 547 839 l 540 839 l 431 638 l 283 369 m 585 1043 q 442 1080 486 1043 q 399 1174 399 1117 q 401 1206 399 1194 l 486 1206 q 507 1153 488 1175 q 583 1132 526 1132 q 678 1155 643 1132 q 721 1206 713 1178 l 806 1206 q 782 1143 800 1174 q 735 1090 764 1113 q 585 1043 674 1043 z "},"Ắ":{"ha":926,"x_min":-57,"x_max":851,"o":"m 0 0 m -57 0 l 479 953 l 650 953 l 851 0 l 713 0 l 663 254 l 221 254 l 82 0 l -57 0 m 283 369 l 639 369 l 588 632 l 547 839 l 540 839 l 431 638 l 283 369 m 585 1043 q 442 1080 486 1043 q 399 1174 399 1117 q 401 1206 399 1194 l 486 1206 q 507 1153 488 1175 q 583 1132 526 1132 q 678 1155 643 1132 q 721 1206 713 1178 l 806 1206 q 782 1143 800 1174 q 735 1090 764 1113 q 585 1043 674 1043 m 532 1206 l 682 1389 l 822 1389 l 824 1385 l 651 1206 l 532 1206 z "},"Ặ":{"ha":926,"x_min":-57,"x_max":851,"o":"m 0 0 m -57 0 l 479 953 l 650 953 l 851 0 l 713 0 l 663 254 l 221 254 l 82 0 l -57 0 m 283 369 l 639 369 l 588 632 l 547 839 l 540 839 l 431 638 l 283 369 m 585 1043 q 442 1080 486 1043 q 399 1174 399 1117 q 401 1206 399 1194 l 486 1206 q 507 1153 488 1175 q 583 1132 526 1132 q 678 1155 643 1132 q 721 1206 713 1178 l 806 1206 q 782 1143 800 1174 q 735 1090 764 1113 q 585 1043 674 1043 m 297 -240 l 321 -108 l 442 -108 l 418 -240 l 297 -240 z "},"Ằ":{"ha":926,"x_min":-57,"x_max":851,"o":"m 0 0 m -57 0 l 479 953 l 650 953 l 851 0 l 713 0 l 663 254 l 221 254 l 82 0 l -57 0 m 283 369 l 639 369 l 588 632 l 547 839 l 540 839 l 431 638 l 283 369 m 585 1043 q 442 1080 486 1043 q 399 1174 399 1117 q 401 1206 399 1194 l 486 1206 q 507 1153 488 1175 q 583 1132 526 1132 q 678 1155 643 1132 q 721 1206 713 1178 l 806 1206 q 782 1143 800 1174 q 735 1090 764 1113 q 585 1043 674 1043 m 556 1206 l 438 1385 l 439 1389 l 572 1389 l 660 1206 l 556 1206 z "},"Ẳ":{"ha":926,"x_min":-57,"x_max":851,"o":"m 0 0 m -57 0 l 479 953 l 650 953 l 851 0 l 713 0 l 663 254 l 221 254 l 82 0 l -57 0 m 283 369 l 639 369 l 588 632 l 547 839 l 540 839 l 431 638 l 283 369 m 585 1043 q 442 1080 486 1043 q 399 1174 399 1117 q 401 1206 399 1194 l 486 1206 q 507 1153 488 1175 q 583 1132 526 1132 q 678 1155 643 1132 q 721 1206 713 1178 l 806 1206 q 782 1143 800 1174 q 735 1090 764 1113 q 585 1043 674 1043 m 568 1290 l 586 1290 q 620 1298 610 1290 q 631 1321 631 1306 q 621 1336 631 1332 q 592 1340 611 1340 l 508 1340 l 518 1394 q 621 1406 567 1406 q 700 1390 667 1406 q 733 1338 733 1375 q 706 1272 733 1294 q 638 1244 678 1249 l 631 1206 l 553 1206 l 568 1290 z "},"Ẵ":{"ha":926,"x_min":-57,"x_max":860,"o":"m 0 0 m -57 0 l 479 953 l 650 953 l 851 0 l 713 0 l 663 254 l 221 254 l 82 0 l -57 0 m 283 369 l 639 369 l 588 632 l 547 839 l 540 839 l 431 638 l 283 369 m 585 1043 q 442 1080 486 1043 q 399 1174 399 1117 q 401 1206 399 1194 l 486 1206 q 507 1153 488 1175 q 583 1132 526 1132 q 678 1155 643 1132 q 721 1206 713 1178 l 806 1206 q 782 1143 800 1174 q 735 1090 764 1113 q 585 1043 674 1043 m 381 1283 q 427 1387 390 1346 q 524 1428 464 1428 q 574 1422 550 1428 q 629 1406 599 1417 q 722 1385 683 1385 q 769 1428 758 1385 l 860 1428 q 812 1324 849 1365 q 715 1283 775 1283 q 665 1289 689 1283 q 610 1306 640 1294 q 517 1326 556 1326 q 469 1283 481 1326 l 381 1283 z "},"Ǎ":{"ha":926,"x_min":-57,"x_max":851,"o":"m 0 0 m -57 0 l 479 953 l 650 953 l 851 0 l 713 0 l 663 254 l 221 254 l 82 0 l -57 0 m 283 369 l 639 369 l 588 632 l 547 839 l 540 839 l 431 638 l 283 369 m 525 1018 l 411 1206 l 531 1206 l 593 1096 l 690 1206 l 821 1206 l 642 1018 l 525 1018 z "},"Â":{"ha":926,"x_min":-57,"x_max":851,"o":"m 0 0 m -57 0 l 479 953 l 650 953 l 851 0 l 713 0 l 663 254 l 221 254 l 82 0 l -57 0 m 283 369 l 639 369 l 588 632 l 547 839 l 540 839 l 431 638 l 283 369 m 372 1018 l 551 1206 l 668 1206 l 782 1018 l 663 1018 l 603 1128 l 503 1018 l 372 1018 z "},"Ấ":{"ha":926,"x_min":-57,"x_max":1011,"o":"m 0 0 m -57 0 l 479 953 l 650 953 l 851 0 l 713 0 l 663 254 l 221 254 l 82 0 l -57 0 m 283 369 l 639 369 l 588 632 l 547 839 l 540 839 l 431 638 l 283 369 m 372 1018 l 551 1206 l 668 1206 l 782 1018 l 663 1018 l 603 1128 l 503 1018 l 372 1018 m 719 1154 l 869 1338 l 1010 1338 l 1011 1333 l 839 1154 l 719 1154 z "},"Ậ":{"ha":926,"x_min":-57,"x_max":851,"o":"m 0 0 m -57 0 l 479 953 l 650 953 l 851 0 l 713 0 l 663 254 l 221 254 l 82 0 l -57 0 m 283 369 l 639 369 l 588 632 l 547 839 l 540 839 l 431 638 l 283 369 m 372 1018 l 551 1206 l 668 1206 l 782 1018 l 663 1018 l 603 1128 l 503 1018 l 372 1018 m 297 -240 l 321 -108 l 442 -108 l 418 -240 l 297 -240 z "},"Ầ":{"ha":926,"x_min":-57,"x_max":886,"o":"m 0 0 m -57 0 l 479 953 l 650 953 l 851 0 l 713 0 l 663 254 l 221 254 l 82 0 l -57 0 m 283 369 l 639 369 l 588 632 l 547 839 l 540 839 l 431 638 l 283 369 m 372 1018 l 551 1206 l 668 1206 l 782 1018 l 663 1018 l 603 1128 l 503 1018 l 372 1018 m 782 1154 l 664 1333 l 665 1338 l 799 1338 l 886 1154 l 782 1154 z "},"Ẩ":{"ha":926,"x_min":-57,"x_max":921,"o":"m 0 0 m -57 0 l 479 953 l 650 953 l 851 0 l 713 0 l 663 254 l 221 254 l 82 0 l -57 0 m 283 369 l 639 369 l 588 632 l 547 839 l 540 839 l 431 638 l 283 369 m 372 1018 l 551 1206 l 668 1206 l 782 1018 l 663 1018 l 603 1128 l 503 1018 l 372 1018 m 756 1239 l 774 1239 q 808 1247 797 1239 q 818 1269 818 1254 q 808 1285 818 1281 q 779 1289 799 1289 l 696 1289 l 706 1343 q 808 1354 754 1354 q 888 1339 854 1354 q 921 1286 921 1324 q 893 1220 921 1243 q 825 1193 865 1197 l 818 1154 l 740 1154 l 756 1239 z "},"Ẫ":{"ha":926,"x_min":-57,"x_max":878,"o":"m 0 0 m -57 0 l 479 953 l 650 953 l 851 0 l 713 0 l 663 254 l 221 254 l 82 0 l -57 0 m 283 369 l 639 369 l 588 632 l 547 839 l 540 839 l 431 638 l 283 369 m 372 1018 l 551 1206 l 668 1206 l 782 1018 l 663 1018 l 603 1128 l 503 1018 l 372 1018 m 399 1283 q 445 1387 408 1346 q 542 1428 482 1428 q 592 1422 568 1428 q 647 1406 617 1417 q 740 1385 701 1385 q 788 1428 776 1385 l 878 1428 q 830 1324 867 1365 q 733 1283 793 1283 q 683 1289 707 1283 q 628 1306 658 1294 q 535 1326 574 1326 q 488 1283 499 1326 l 399 1283 z "},"Ȁ":{"ha":926,"x_min":-57,"x_max":851,"o":"m 0 0 m -57 0 l 479 953 l 650 953 l 851 0 l 713 0 l 663 254 l 221 254 l 82 0 l -57 0 m 283 369 l 639 369 l 588 632 l 547 839 l 540 839 l 431 638 l 283 369 m 454 1022 l 369 1201 l 372 1206 l 507 1206 l 560 1022 l 454 1022 m 647 1022 l 563 1201 l 565 1206 l 700 1206 l 753 1022 l 647 1022 z "},"Ä":{"ha":926,"x_min":-57,"x_max":851,"o":"m 0 0 m -57 0 l 479 953 l 650 953 l 851 0 l 713 0 l 663 254 l 221 254 l 82 0 l -57 0 m 283 369 l 639 369 l 588 632 l 547 839 l 540 839 l 431 638 l 283 369 m 403 1074 l 426 1206 l 547 1206 l 524 1074 l 403 1074 m 663 1074 l 686 1206 l 807 1206 l 783 1074 l 663 1074 z "},"Ạ":{"ha":926,"x_min":-57,"x_max":851,"o":"m 0 0 m -57 0 l 479 953 l 650 953 l 851 0 l 713 0 l 663 254 l 221 254 l 82 0 l -57 0 m 283 369 l 639 369 l 588 632 l 547 839 l 540 839 l 431 638 l 283 369 m 297 -240 l 321 -108 l 442 -108 l 418 -240 l 297 -240 z "},"À":{"ha":926,"x_min":-57,"x_max":851,"o":"m 0 0 m -57 0 l 479 953 l 650 953 l 851 0 l 713 0 l 663 254 l 221 254 l 82 0 l -57 0 m 283 369 l 639 369 l 588 632 l 547 839 l 540 839 l 431 638 l 283 369 m 532 1022 l 414 1201 l 415 1206 l 549 1206 l 636 1022 l 532 1022 z "},"Ả":{"ha":926,"x_min":-57,"x_max":851,"o":"m 0 0 m -57 0 l 479 953 l 650 953 l 851 0 l 713 0 l 663 254 l 221 254 l 82 0 l -57 0 m 283 369 l 639 369 l 588 632 l 547 839 l 540 839 l 431 638 l 283 369 m 561 1107 l 579 1107 q 613 1115 603 1107 q 624 1138 624 1122 q 614 1153 624 1149 q 585 1157 604 1157 l 501 1157 l 511 1211 q 614 1222 560 1222 q 693 1207 660 1222 q 726 1154 726 1192 q 699 1088 726 1111 q 631 1061 671 1065 l 624 1022 l 546 1022 l 561 1107 z "},"Ȃ":{"ha":926,"x_min":-57,"x_max":851,"o":"m 0 0 m -57 0 l 479 953 l 650 953 l 851 0 l 713 0 l 663 254 l 221 254 l 82 0 l -57 0 m 283 369 l 639 369 l 588 632 l 547 839 l 540 839 l 431 638 l 283 369 m 385 1043 q 615 1206 414 1206 q 749 1166 706 1206 q 792 1068 792 1126 q 789 1043 792 1060 l 704 1043 q 683 1094 706 1072 q 600 1117 660 1117 q 469 1043 500 1117 l 385 1043 z "},"Ā":{"ha":926,"x_min":-57,"x_max":851,"o":"m 0 0 m -57 0 l 479 953 l 650 953 l 851 0 l 713 0 l 663 254 l 221 254 l 82 0 l -57 0 m 283 369 l 639 369 l 588 632 l 547 839 l 540 839 l 431 638 l 283 369 m 382 1072 l 400 1172 l 824 1172 l 806 1072 l 382 1072 z "},"Ą":{"ha":926,"x_min":-57,"x_max":851,"o":"m 710 -253 q 638 -228 668 -253 q 608 -150 608 -203 q 713 0 608 -61 l 663 254 l 221 254 l 82 0 l -57 0 l 479 953 l 650 953 l 851 0 l 817 0 q 752 -48 778 -21 q 726 -106 726 -75 q 739 -147 726 -131 q 778 -162 751 -162 l 822 -162 l 810 -233 q 710 -253 764 -253 m 283 369 l 639 369 l 588 632 l 547 839 l 540 839 l 431 638 l 283 369 z "},"Å":{"ha":926,"x_min":-57,"x_max":851,"o":"m 0 0 m -57 0 l 479 953 l 650 953 l 851 0 l 713 0 l 663 254 l 221 254 l 82 0 l -57 0 m 283 369 l 639 369 l 588 632 l 547 839 l 540 839 l 431 638 l 283 369 m 578 988 q 494 1019 526 988 q 461 1097 461 1050 q 502 1210 461 1167 q 615 1254 543 1254 q 699 1222 665 1254 q 732 1143 732 1190 q 691 1031 732 1074 q 578 988 650 988 m 586 1050 q 646 1074 624 1050 q 668 1133 668 1099 q 651 1175 668 1158 q 607 1192 635 1192 q 547 1167 569 1192 q 525 1107 525 1142 q 541 1066 525 1082 q 586 1050 557 1050 z "},"Ǻ":{"ha":926,"x_min":-57,"x_max":851,"o":"m 550 1196 l 700 1379 l 840 1379 l 842 1375 l 669 1196 l 550 1196 m 469 935 q 442 1008 442 963 q 483 1122 442 1078 q 596 1165 524 1165 q 679 1133 646 1165 q 713 1054 713 1101 q 698 980 713 1013 q 656 928 683 947 l 851 0 l 713 0 l 663 254 l 221 254 l 82 0 l -57 0 l 469 935 m 567 961 q 626 985 604 961 q 649 1044 649 1010 q 632 1086 649 1069 q 588 1103 615 1103 q 528 1078 550 1103 q 506 1018 506 1053 q 522 977 506 993 q 567 961 538 961 m 283 369 l 639 369 l 588 632 l 547 839 l 540 839 l 431 638 l 283 369 z "},"Ã":{"ha":926,"x_min":-57,"x_max":851,"o":"m 0 0 m -57 0 l 479 953 l 650 953 l 851 0 l 713 0 l 663 254 l 221 254 l 82 0 l -57 0 m 283 369 l 639 369 l 588 632 l 547 839 l 540 839 l 431 638 l 283 369 m 364 1061 q 410 1165 374 1124 q 507 1206 447 1206 q 558 1200 533 1206 q 613 1183 582 1194 q 706 1163 667 1163 q 753 1206 742 1163 l 843 1206 q 795 1102 832 1143 q 699 1061 758 1061 q 648 1067 672 1061 q 593 1083 624 1072 q 500 1104 539 1104 q 453 1061 464 1104 l 364 1061 z "},"Æ":{"ha":1389,"x_min":-85,"x_max":1389,"o":"m -85 0 l 563 953 l 1389 953 l 1368 838 l 750 838 l 781 544 l 1256 544 l 1236 429 l 794 429 l 826 115 l 1250 115 l 1229 0 l 713 0 l 686 254 l 226 254 l 57 0 l -85 0 m 304 369 l 675 369 l 626 838 l 619 838 l 304 369 z "},"Ǽ":{"ha":1389,"x_min":-85,"x_max":1389,"o":"m 0 0 m -85 0 l 563 953 l 1389 953 l 1368 838 l 750 838 l 781 544 l 1256 544 l 1236 429 l 794 429 l 826 115 l 1250 115 l 1229 0 l 713 0 l 686 254 l 226 254 l 57 0 l -85 0 m 304 369 l 675 369 l 626 838 l 619 838 l 304 369 m 754 1022 l 904 1206 l 1044 1206 l 1046 1201 l 874 1022 l 754 1022 z "},"B":{"ha":926,"x_min":25,"x_max":878,"o":"m 193 953 l 608 953 q 806 901 735 953 q 878 750 878 849 q 821 592 878 660 q 679 500 764 524 l 679 494 q 787 426 747 476 q 826 296 826 376 q 737 73 826 146 q 513 0 647 0 l 25 0 l 193 953 m 550 546 q 692 594 638 546 q 747 717 747 642 q 712 809 747 781 q 610 838 676 838 l 304 838 l 253 546 l 550 546 m 503 115 q 693 299 693 115 q 549 431 693 431 l 233 431 l 178 115 l 503 115 z "},"C":{"ha":1003,"x_min":51,"x_max":968,"o":"m 456 -17 q 51 347 51 -17 q 106 649 51 517 q 264 863 161 782 q 601 969 404 969 q 869 897 771 969 q 968 688 968 825 q 961 608 968 654 l 826 608 q 832 667 832 650 q 774 809 832 761 q 610 857 715 857 q 347 770 450 857 q 207 529 243 683 q 188 358 188 449 q 251 158 188 221 q 447 96 315 96 q 674 158 585 96 q 785 342 763 221 l 914 342 q 760 74 883 164 q 456 -17 638 -17 z "},"Ć":{"ha":1003,"x_min":51,"x_max":968,"o":"m 51 0 m 456 -17 q 51 347 51 -17 q 106 649 51 517 q 264 863 161 782 q 601 969 404 969 q 869 897 771 969 q 968 688 968 825 q 961 608 968 654 l 826 608 q 832 667 832 650 q 774 809 832 761 q 610 857 715 857 q 347 770 450 857 q 207 529 243 683 q 188 358 188 449 q 251 158 188 221 q 447 96 315 96 q 674 158 585 96 q 785 342 763 221 l 914 342 q 760 74 883 164 q 456 -17 638 -17 m 561 1022 l 711 1206 l 851 1206 l 853 1201 l 681 1022 l 561 1022 z "},"Č":{"ha":1003,"x_min":51,"x_max":968,"o":"m 51 0 m 456 -17 q 51 347 51 -17 q 106 649 51 517 q 264 863 161 782 q 601 969 404 969 q 869 897 771 969 q 968 688 968 825 q 961 608 968 654 l 826 608 q 832 667 832 650 q 774 809 832 761 q 610 857 715 857 q 347 770 450 857 q 207 529 243 683 q 188 358 188 449 q 251 158 188 221 q 447 96 315 96 q 674 158 585 96 q 785 342 763 221 l 914 342 q 760 74 883 164 q 456 -17 638 -17 m 563 1018 l 449 1206 l 568 1206 l 631 1096 l 728 1206 l 858 1206 l 679 1018 l 563 1018 z "},"Ç":{"ha":1003,"x_min":51,"x_max":968,"o":"m 826 608 q 832 667 832 650 q 774 809 832 761 q 610 857 715 857 q 347 770 450 857 q 207 529 243 683 q 188 358 188 449 q 251 158 188 221 q 447 96 315 96 q 674 158 585 96 q 785 342 763 221 l 914 342 q 768 79 885 169 q 478 -17 651 -11 l 467 -50 q 549 -70 517 -50 q 581 -131 581 -90 q 408 -253 581 -253 q 265 -242 328 -253 l 278 -174 l 417 -174 q 463 -165 447 -174 q 479 -132 479 -156 q 468 -113 479 -119 q 431 -107 457 -107 l 360 -107 l 393 -14 q 51 347 51 14 q 106 649 51 517 q 264 863 161 782 q 601 969 404 969 q 869 897 771 969 q 968 688 968 825 q 961 608 968 654 l 826 608 z "},"Ĉ":{"ha":1003,"x_min":51,"x_max":968,"o":"m 51 0 m 456 -17 q 51 347 51 -17 q 106 649 51 517 q 264 863 161 782 q 601 969 404 969 q 869 897 771 969 q 968 688 968 825 q 961 608 968 654 l 826 608 q 832 667 832 650 q 774 809 832 761 q 610 857 715 857 q 347 770 450 857 q 207 529 243 683 q 188 358 188 449 q 251 158 188 221 q 447 96 315 96 q 674 158 585 96 q 785 342 763 221 l 914 342 q 760 74 883 164 q 456 -17 638 -17 m 410 1018 l 589 1206 l 706 1206 l 819 1018 l 700 1018 l 640 1128 l 540 1018 l 410 1018 z "},"Ċ":{"ha":1003,"x_min":51,"x_max":968,"o":"m 51 0 m 456 -17 q 51 347 51 -17 q 106 649 51 517 q 264 863 161 782 q 601 969 404 969 q 869 897 771 969 q 968 688 968 825 q 961 608 968 654 l 826 608 q 832 667 832 650 q 774 809 832 761 q 610 857 715 857 q 347 770 450 857 q 207 529 243 683 q 188 358 188 449 q 251 158 188 221 q 447 96 315 96 q 674 158 585 96 q 785 342 763 221 l 914 342 q 760 74 883 164 q 456 -17 638 -17 m 569 1074 l 593 1206 l 714 1206 l 690 1074 l 569 1074 z "},"D":{"ha":1003,"x_min":25,"x_max":950,"o":"m 193 953 l 518 953 q 839 860 728 953 q 950 575 950 767 q 912 336 950 443 q 803 154 874 229 q 628 40 729 79 q 406 0 526 0 l 25 0 l 193 953 m 399 115 q 667 200 558 115 q 804 443 775 285 q 814 558 814 507 q 740 772 814 706 q 525 838 665 838 l 304 838 l 178 115 l 399 115 z "},"Ǳ":{"ha":1851,"x_min":25,"x_max":1892,"o":"m 25 0 m 193 953 l 518 953 q 839 860 728 953 q 950 575 950 767 q 912 336 950 443 q 803 154 874 229 q 628 40 729 79 q 406 0 526 0 l 25 0 l 193 953 m 399 115 q 667 200 558 115 q 804 443 775 285 q 814 558 814 507 q 740 772 814 706 q 525 838 665 838 l 304 838 l 178 115 l 399 115 m 951 0 l 964 68 l 1663 838 l 1133 838 l 1154 953 l 1892 953 l 1879 885 l 1178 115 l 1757 115 l 1736 0 l 951 0 z "},"Ǆ":{"ha":1851,"x_min":25,"x_max":1892,"o":"m 25 0 m 193 953 l 518 953 q 839 860 728 953 q 950 575 950 767 q 912 336 950 443 q 803 154 874 229 q 628 40 729 79 q 406 0 526 0 l 25 0 l 193 953 m 399 115 q 667 200 558 115 q 804 443 775 285 q 814 558 814 507 q 740 772 814 706 q 525 838 665 838 l 304 838 l 178 115 l 399 115 m 951 0 l 964 68 l 1663 838 l 1133 838 l 1154 953 l 1892 953 l 1879 885 l 1178 115 l 1757 115 l 1736 0 l 951 0 m 1489 1018 l 1375 1206 l 1494 1206 l 1557 1096 l 1654 1206 l 1785 1206 l 1606 1018 l 1489 1018 z "},"Ð":{"ha":1003,"x_min":1,"x_max":950,"o":"m 518 953 q 839 860 728 953 q 950 575 950 767 q 912 336 950 443 q 803 154 874 229 q 628 40 729 79 q 406 0 526 0 l 25 0 l 104 450 l 1 450 l 17 538 l 119 538 l 193 953 l 518 953 m 804 443 q 814 558 814 507 q 740 772 814 706 q 525 838 665 838 l 304 838 l 251 538 l 492 538 l 476 450 l 236 450 l 178 115 l 399 115 q 667 200 558 115 q 804 443 775 285 z "},"Ď":{"ha":1003,"x_min":25,"x_max":950,"o":"m 25 0 m 193 953 l 518 953 q 839 860 728 953 q 950 575 950 767 q 912 336 950 443 q 803 154 874 229 q 628 40 729 79 q 406 0 526 0 l 25 0 l 193 953 m 399 115 q 667 200 558 115 q 804 443 775 285 q 814 558 814 507 q 740 772 814 706 q 525 838 665 838 l 304 838 l 178 115 l 399 115 m 483 1018 l 369 1206 l 489 1206 l 551 1096 l 649 1206 l 779 1206 l 600 1018 l 483 1018 z "},"Đ":{"ha":1003,"x_min":1,"x_max":950,"o":"m 1 0 m 518 953 q 839 860 728 953 q 950 575 950 767 q 912 336 950 443 q 803 154 874 229 q 628 40 729 79 q 406 0 526 0 l 25 0 l 104 450 l 1 450 l 17 538 l 119 538 l 193 953 l 518 953 m 804 443 q 814 558 814 507 q 740 772 814 706 q 525 838 665 838 l 304 838 l 251 538 l 492 538 l 476 450 l 236 450 l 178 115 l 399 115 q 667 200 558 115 q 804 443 775 285 z "},"Ḍ":{"ha":1003,"x_min":25,"x_max":950,"o":"m 25 0 m 193 953 l 518 953 q 839 860 728 953 q 950 575 950 767 q 912 336 950 443 q 803 154 874 229 q 628 40 729 79 q 406 0 526 0 l 25 0 l 193 953 m 399 115 q 667 200 558 115 q 804 443 775 285 q 814 558 814 507 q 740 772 814 706 q 525 838 665 838 l 304 838 l 178 115 l 399 115 m 335 -240 l 358 -108 l 479 -108 l 456 -240 l 335 -240 z "},"ǲ":{"ha":1697,"x_min":25,"x_max":1697,"o":"m 25 0 m 193 953 l 518 953 q 839 860 728 953 q 950 575 950 767 q 912 336 950 443 q 803 154 874 229 q 628 40 729 79 q 406 0 526 0 l 25 0 l 193 953 m 399 115 q 667 200 558 115 q 804 443 775 285 q 814 558 814 507 q 740 772 814 706 q 525 838 665 838 l 304 838 l 178 115 l 399 115 m 967 0 l 978 65 l 1492 629 l 1106 629 l 1124 731 l 1697 731 l 1686 667 l 1169 101 l 1610 101 l 1592 0 l 967 0 z "},"ǅ":{"ha":1697,"x_min":25,"x_max":1697,"o":"m 25 0 m 193 953 l 518 953 q 839 860 728 953 q 950 575 950 767 q 912 336 950 443 q 803 154 874 229 q 628 40 729 79 q 406 0 526 0 l 25 0 l 193 953 m 399 115 q 667 200 558 115 q 804 443 775 285 q 814 558 814 507 q 740 772 814 706 q 525 838 665 838 l 304 838 l 178 115 l 399 115 m 967 0 l 978 65 l 1492 629 l 1106 629 l 1124 731 l 1697 731 l 1686 667 l 1169 101 l 1610 101 l 1592 0 l 967 0 m 1371 817 l 1257 1004 l 1376 1004 l 1439 894 l 1536 1004 l 1667 1004 l 1488 817 l 1371 817 z "},"E":{"ha":926,"x_min":25,"x_max":926,"o":"m 25 0 l 193 953 l 926 953 l 906 838 l 304 838 l 253 544 l 793 544 l 774 429 l 233 429 l 178 115 l 788 115 l 767 0 l 25 0 z "},"É":{"ha":926,"x_min":25,"x_max":926,"o":"m 25 0 m 25 0 l 193 953 l 926 953 l 906 838 l 304 838 l 253 544 l 793 544 l 774 429 l 233 429 l 178 115 l 788 115 l 767 0 l 25 0 m 524 1022 l 674 1206 l 814 1206 l 815 1201 l 643 1022 l 524 1022 z "},"Ĕ":{"ha":926,"x_min":25,"x_max":926,"o":"m 25 0 m 25 0 l 193 953 l 926 953 l 906 838 l 304 838 l 253 544 l 793 544 l 774 429 l 233 429 l 178 115 l 788 115 l 767 0 l 25 0 m 585 1043 q 442 1080 486 1043 q 399 1174 399 1117 q 401 1206 399 1194 l 486 1206 q 507 1153 488 1175 q 583 1132 526 1132 q 678 1155 643 1132 q 721 1206 713 1178 l 806 1206 q 782 1143 800 1174 q 735 1090 764 1113 q 585 1043 674 1043 z "},"Ě":{"ha":926,"x_min":25,"x_max":926,"o":"m 25 0 m 25 0 l 193 953 l 926 953 l 906 838 l 304 838 l 253 544 l 793 544 l 774 429 l 233 429 l 178 115 l 788 115 l 767 0 l 25 0 m 525 1018 l 411 1206 l 531 1206 l 593 1096 l 690 1206 l 821 1206 l 642 1018 l 525 1018 z "},"Ê":{"ha":926,"x_min":25,"x_max":926,"o":"m 25 0 m 25 0 l 193 953 l 926 953 l 906 838 l 304 838 l 253 544 l 793 544 l 774 429 l 233 429 l 178 115 l 788 115 l 767 0 l 25 0 m 372 1018 l 551 1206 l 668 1206 l 782 1018 l 663 1018 l 603 1128 l 503 1018 l 372 1018 z "},"Ế":{"ha":926,"x_min":25,"x_max":1011,"o":"m 25 0 m 25 0 l 193 953 l 926 953 l 906 838 l 304 838 l 253 544 l 793 544 l 774 429 l 233 429 l 178 115 l 788 115 l 767 0 l 25 0 m 372 1018 l 551 1206 l 668 1206 l 782 1018 l 663 1018 l 603 1128 l 503 1018 l 372 1018 m 719 1154 l 869 1338 l 1010 1338 l 1011 1333 l 839 1154 l 719 1154 z "},"Ệ":{"ha":926,"x_min":25,"x_max":926,"o":"m 25 0 m 25 0 l 193 953 l 926 953 l 906 838 l 304 838 l 253 544 l 793 544 l 774 429 l 233 429 l 178 115 l 788 115 l 767 0 l 25 0 m 372 1018 l 551 1206 l 668 1206 l 782 1018 l 663 1018 l 603 1128 l 503 1018 l 372 1018 m 297 -240 l 321 -108 l 442 -108 l 418 -240 l 297 -240 z "},"Ề":{"ha":926,"x_min":25,"x_max":926,"o":"m 25 0 m 25 0 l 193 953 l 926 953 l 906 838 l 304 838 l 253 544 l 793 544 l 774 429 l 233 429 l 178 115 l 788 115 l 767 0 l 25 0 m 372 1018 l 551 1206 l 668 1206 l 782 1018 l 663 1018 l 603 1128 l 503 1018 l 372 1018 m 782 1154 l 664 1333 l 665 1338 l 799 1338 l 886 1154 l 782 1154 z "},"Ể":{"ha":926,"x_min":25,"x_max":926,"o":"m 25 0 m 25 0 l 193 953 l 926 953 l 906 838 l 304 838 l 253 544 l 793 544 l 774 429 l 233 429 l 178 115 l 788 115 l 767 0 l 25 0 m 372 1018 l 551 1206 l 668 1206 l 782 1018 l 663 1018 l 603 1128 l 503 1018 l 372 1018 m 756 1239 l 774 1239 q 808 1247 797 1239 q 818 1269 818 1254 q 808 1285 818 1281 q 779 1289 799 1289 l 696 1289 l 706 1343 q 808 1354 754 1354 q 888 1339 854 1354 q 921 1286 921 1324 q 893 1220 921 1243 q 825 1193 865 1197 l 818 1154 l 740 1154 l 756 1239 z "},"Ễ":{"ha":926,"x_min":25,"x_max":926,"o":"m 25 0 m 25 0 l 193 953 l 926 953 l 906 838 l 304 838 l 253 544 l 793 544 l 774 429 l 233 429 l 178 115 l 788 115 l 767 0 l 25 0 m 372 1018 l 551 1206 l 668 1206 l 782 1018 l 663 1018 l 603 1128 l 503 1018 l 372 1018 m 399 1283 q 445 1387 408 1346 q 542 1428 482 1428 q 592 1422 568 1428 q 647 1406 617 1417 q 740 1385 701 1385 q 788 1428 776 1385 l 878 1428 q 830 1324 867 1365 q 733 1283 793 1283 q 683 1289 707 1283 q 628 1306 658 1294 q 535 1326 574 1326 q 488 1283 499 1326 l 399 1283 z "},"Ȅ":{"ha":926,"x_min":25,"x_max":926,"o":"m 25 0 m 25 0 l 193 953 l 926 953 l 906 838 l 304 838 l 253 544 l 793 544 l 774 429 l 233 429 l 178 115 l 788 115 l 767 0 l 25 0 m 454 1022 l 369 1201 l 372 1206 l 507 1206 l 560 1022 l 454 1022 m 647 1022 l 563 1201 l 565 1206 l 700 1206 l 753 1022 l 647 1022 z "},"Ë":{"ha":926,"x_min":25,"x_max":926,"o":"m 25 0 m 25 0 l 193 953 l 926 953 l 906 838 l 304 838 l 253 544 l 793 544 l 774 429 l 233 429 l 178 115 l 788 115 l 767 0 l 25 0 m 403 1074 l 426 1206 l 547 1206 l 524 1074 l 403 1074 m 663 1074 l 686 1206 l 807 1206 l 783 1074 l 663 1074 z "},"Ė":{"ha":926,"x_min":25,"x_max":926,"o":"m 25 0 m 25 0 l 193 953 l 926 953 l 906 838 l 304 838 l 253 544 l 793 544 l 774 429 l 233 429 l 178 115 l 788 115 l 767 0 l 25 0 m 532 1074 l 556 1206 l 676 1206 l 653 1074 l 532 1074 z "},"Ẹ":{"ha":926,"x_min":25,"x_max":926,"o":"m 25 0 m 25 0 l 193 953 l 926 953 l 906 838 l 304 838 l 253 544 l 793 544 l 774 429 l 233 429 l 178 115 l 788 115 l 767 0 l 25 0 m 297 -240 l 321 -108 l 442 -108 l 418 -240 l 297 -240 z "},"È":{"ha":926,"x_min":25,"x_max":926,"o":"m 25 0 m 25 0 l 193 953 l 926 953 l 906 838 l 304 838 l 253 544 l 793 544 l 774 429 l 233 429 l 178 115 l 788 115 l 767 0 l 25 0 m 532 1022 l 414 1201 l 415 1206 l 549 1206 l 636 1022 l 532 1022 z "},"Ẻ":{"ha":926,"x_min":25,"x_max":926,"o":"m 25 0 m 25 0 l 193 953 l 926 953 l 906 838 l 304 838 l 253 544 l 793 544 l 774 429 l 233 429 l 178 115 l 788 115 l 767 0 l 25 0 m 561 1107 l 579 1107 q 613 1115 603 1107 q 624 1138 624 1122 q 614 1153 624 1149 q 585 1157 604 1157 l 501 1157 l 511 1211 q 614 1222 560 1222 q 693 1207 660 1222 q 726 1154 726 1192 q 699 1088 726 1111 q 631 1061 671 1065 l 624 1022 l 546 1022 l 561 1107 z "},"Ȇ":{"ha":926,"x_min":25,"x_max":926,"o":"m 25 0 m 25 0 l 193 953 l 926 953 l 906 838 l 304 838 l 253 544 l 793 544 l 774 429 l 233 429 l 178 115 l 788 115 l 767 0 l 25 0 m 385 1043 q 615 1206 414 1206 q 749 1166 706 1206 q 792 1068 792 1126 q 789 1043 792 1060 l 704 1043 q 683 1094 706 1072 q 600 1117 660 1117 q 469 1043 500 1117 l 385 1043 z "},"Ē":{"ha":926,"x_min":25,"x_max":926,"o":"m 25 0 m 25 0 l 193 953 l 926 953 l 906 838 l 304 838 l 253 544 l 793 544 l 774 429 l 233 429 l 178 115 l 788 115 l 767 0 l 25 0 m 382 1072 l 400 1172 l 824 1172 l 806 1072 l 382 1072 z "},"Ę":{"ha":926,"x_min":25,"x_max":926,"o":"m 638 -253 q 551 -228 588 -253 q 515 -150 515 -203 q 543 -62 515 -97 q 626 0 571 -28 l 25 0 l 193 953 l 926 953 l 906 838 l 304 838 l 253 544 l 793 544 l 774 429 l 233 429 l 178 115 l 788 115 l 767 0 q 671 -49 710 -19 q 632 -114 632 -79 q 648 -149 632 -135 q 694 -162 664 -162 l 739 -162 l 726 -233 q 638 -253 676 -253 z "},"Ẽ":{"ha":926,"x_min":25,"x_max":926,"o":"m 25 0 m 25 0 l 193 953 l 926 953 l 906 838 l 304 838 l 253 544 l 793 544 l 774 429 l 233 429 l 178 115 l 788 115 l 767 0 l 25 0 m 364 1061 q 410 1165 374 1124 q 507 1206 447 1206 q 558 1200 533 1206 q 613 1183 582 1194 q 706 1163 667 1163 q 753 1206 742 1163 l 843 1206 q 795 1102 832 1143 q 699 1061 758 1061 q 648 1067 672 1061 q 593 1083 624 1072 q 500 1104 539 1104 q 453 1061 464 1104 l 364 1061 z "},"F":{"ha":849,"x_min":25,"x_max":868,"o":"m 25 0 l 193 953 l 868 953 l 847 838 l 304 838 l 251 535 l 744 535 l 724 419 l 231 419 l 157 0 l 25 0 z "},"G":{"ha":1081,"x_min":51,"x_max":1014,"o":"m 874 628 q 878 674 878 653 q 811 811 878 765 q 626 857 744 857 q 355 773 463 857 q 208 535 247 689 q 189 363 189 454 q 256 159 189 222 q 456 96 322 96 q 646 133 564 96 q 775 231 728 169 q 831 367 822 293 l 832 381 l 496 381 l 517 496 l 985 496 l 897 0 l 797 0 l 797 117 q 447 -17 668 -17 q 153 78 254 -17 q 51 350 51 172 q 90 605 51 490 q 201 801 128 719 q 381 926 275 883 q 618 969 486 969 q 907 899 800 969 q 1014 694 1014 829 q 1008 628 1014 660 l 874 628 z "},"Ǵ":{"ha":1081,"x_min":51,"x_max":1014,"o":"m 51 0 m 874 628 q 878 674 878 653 q 811 811 878 765 q 626 857 744 857 q 355 773 463 857 q 208 535 247 689 q 189 363 189 454 q 256 159 189 222 q 456 96 322 96 q 646 133 564 96 q 775 231 728 169 q 831 367 822 293 l 832 381 l 496 381 l 517 496 l 985 496 l 897 0 l 797 0 l 797 117 q 447 -17 668 -17 q 153 78 254 -17 q 51 350 51 172 q 90 605 51 490 q 201 801 128 719 q 381 926 275 883 q 618 969 486 969 q 907 899 800 969 q 1014 694 1014 829 q 1008 628 1014 660 l 874 628 m 546 1022 l 696 1206 l 836 1206 l 838 1201 l 665 1022 l 546 1022 z "},"Ğ":{"ha":1081,"x_min":51,"x_max":1014,"o":"m 51 0 m 874 628 q 878 674 878 653 q 811 811 878 765 q 626 857 744 857 q 355 773 463 857 q 208 535 247 689 q 189 363 189 454 q 256 159 189 222 q 456 96 322 96 q 646 133 564 96 q 775 231 728 169 q 831 367 822 293 l 832 381 l 496 381 l 517 496 l 985 496 l 897 0 l 797 0 l 797 117 q 447 -17 668 -17 q 153 78 254 -17 q 51 350 51 172 q 90 605 51 490 q 201 801 128 719 q 381 926 275 883 q 618 969 486 969 q 907 899 800 969 q 1014 694 1014 829 q 1008 628 1014 660 l 874 628 m 607 1043 q 465 1080 508 1043 q 421 1174 421 1117 q 424 1206 421 1194 l 508 1206 q 529 1153 510 1175 q 606 1132 549 1132 q 700 1155 665 1132 q 743 1206 735 1178 l 828 1206 q 804 1143 822 1174 q 757 1090 786 1113 q 607 1043 696 1043 z "},"Ǧ":{"ha":1081,"x_min":51,"x_max":1014,"o":"m 51 0 m 874 628 q 878 674 878 653 q 811 811 878 765 q 626 857 744 857 q 355 773 463 857 q 208 535 247 689 q 189 363 189 454 q 256 159 189 222 q 456 96 322 96 q 646 133 564 96 q 775 231 728 169 q 831 367 822 293 l 832 381 l 496 381 l 517 496 l 985 496 l 897 0 l 797 0 l 797 117 q 447 -17 668 -17 q 153 78 254 -17 q 51 350 51 172 q 90 605 51 490 q 201 801 128 719 q 381 926 275 883 q 618 969 486 969 q 907 899 800 969 q 1014 694 1014 829 q 1008 628 1014 660 l 874 628 m 547 1018 l 433 1206 l 553 1206 l 615 1096 l 713 1206 l 843 1206 l 664 1018 l 547 1018 z "},"Ĝ":{"ha":1081,"x_min":51,"x_max":1014,"o":"m 51 0 m 874 628 q 878 674 878 653 q 811 811 878 765 q 626 857 744 857 q 355 773 463 857 q 208 535 247 689 q 189 363 189 454 q 256 159 189 222 q 456 96 322 96 q 646 133 564 96 q 775 231 728 169 q 831 367 822 293 l 832 381 l 496 381 l 517 496 l 985 496 l 897 0 l 797 0 l 797 117 q 447 -17 668 -17 q 153 78 254 -17 q 51 350 51 172 q 90 605 51 490 q 201 801 128 719 q 381 926 275 883 q 618 969 486 969 q 907 899 800 969 q 1014 694 1014 829 q 1008 628 1014 660 l 874 628 m 394 1018 l 574 1206 l 690 1206 l 804 1018 l 685 1018 l 625 1128 l 525 1018 l 394 1018 z "},"Ģ":{"ha":1081,"x_min":51,"x_max":1014,"o":"m 51 0 m 874 628 q 878 674 878 653 q 811 811 878 765 q 626 857 744 857 q 355 773 463 857 q 208 535 247 689 q 189 363 189 454 q 256 159 189 222 q 456 96 322 96 q 646 133 564 96 q 775 231 728 169 q 831 367 822 293 l 832 381 l 496 381 l 517 496 l 985 496 l 897 0 l 797 0 l 797 117 q 447 -17 668 -17 q 153 78 254 -17 q 51 350 51 172 q 90 605 51 490 q 201 801 128 719 q 381 926 275 883 q 618 969 486 969 q 907 899 800 969 q 1014 694 1014 829 q 1008 628 1014 660 l 874 628 m 357 -319 l 429 -207 l 381 -207 l 403 -81 l 525 -81 l 504 -197 l 422 -319 l 357 -319 z "},"Ġ":{"ha":1081,"x_min":51,"x_max":1014,"o":"m 51 0 m 874 628 q 878 674 878 653 q 811 811 878 765 q 626 857 744 857 q 355 773 463 857 q 208 535 247 689 q 189 363 189 454 q 256 159 189 222 q 456 96 322 96 q 646 133 564 96 q 775 231 728 169 q 831 367 822 293 l 832 381 l 496 381 l 517 496 l 985 496 l 897 0 l 797 0 l 797 117 q 447 -17 668 -17 q 153 78 254 -17 q 51 350 51 172 q 90 605 51 490 q 201 801 128 719 q 381 926 275 883 q 618 969 486 969 q 907 899 800 969 q 1014 694 1014 829 q 1008 628 1014 660 l 874 628 m 554 1074 l 578 1206 l 699 1206 l 675 1074 l 554 1074 z "},"H":{"ha":1003,"x_min":25,"x_max":976,"o":"m 25 0 l 193 953 l 325 953 l 253 544 l 772 544 l 844 953 l 976 953 l 808 0 l 676 0 l 753 429 l 233 429 l 157 0 l 25 0 z "},"Ħ":{"ha":1003,"x_min":25,"x_max":1051,"o":"m 25 0 l 154 731 l 57 731 l 74 831 l 171 831 l 193 953 l 325 953 l 303 831 l 822 831 l 844 953 l 976 953 l 954 831 l 1051 831 l 1035 731 l 938 731 l 808 0 l 676 0 l 753 429 l 233 429 l 157 0 l 25 0 m 253 544 l 772 544 l 806 731 l 286 731 l 253 544 z "},"Ĥ":{"ha":1003,"x_min":25,"x_max":976,"o":"m 25 0 m 25 0 l 193 953 l 325 953 l 253 544 l 772 544 l 844 953 l 976 953 l 808 0 l 676 0 l 753 429 l 233 429 l 157 0 l 25 0 m 385 1018 l 564 1206 l 681 1206 l 794 1018 l 675 1018 l 615 1128 l 515 1018 l 385 1018 z "},"Ḥ":{"ha":1003,"x_min":25,"x_max":976,"o":"m 25 0 m 25 0 l 193 953 l 325 953 l 253 544 l 772 544 l 844 953 l 976 953 l 808 0 l 676 0 l 753 429 l 233 429 l 157 0 l 25 0 m 335 -240 l 358 -108 l 479 -108 l 456 -240 l 335 -240 z "},"I":{"ha":386,"x_min":43,"x_max":343,"o":"m 43 0 l 211 953 l 343 953 l 175 0 l 43 0 z "},"Ĳ":{"ha":1081,"x_min":43,"x_max":1057,"o":"m 43 0 m 43 0 l 211 953 l 343 953 l 175 0 l 43 0 m 626 -17 q 444 35 507 -17 q 382 188 382 86 q 394 289 382 238 l 526 289 q 514 206 514 239 q 540 124 514 151 q 618 96 567 96 q 742 136 696 96 q 804 269 788 176 l 925 953 l 1057 953 l 938 276 q 833 53 910 124 q 626 -17 756 -17 z "},"Í":{"ha":386,"x_min":43,"x_max":521,"o":"m 43 0 m 43 0 l 211 953 l 343 953 l 175 0 l 43 0 m 229 1022 l 379 1206 l 519 1206 l 521 1201 l 349 1022 l 229 1022 z "},"Ĭ":{"ha":386,"x_min":43,"x_max":511,"o":"m 43 0 m 43 0 l 211 953 l 343 953 l 175 0 l 43 0 m 290 1043 q 148 1080 192 1043 q 104 1174 104 1117 q 107 1206 104 1194 l 192 1206 q 213 1153 193 1175 q 289 1132 232 1132 q 383 1155 349 1132 q 426 1206 418 1178 l 511 1206 q 488 1143 506 1174 q 440 1090 469 1113 q 290 1043 379 1043 z "},"Ǐ":{"ha":386,"x_min":43,"x_max":526,"o":"m 43 0 m 43 0 l 211 953 l 343 953 l 175 0 l 43 0 m 231 1018 l 117 1206 l 236 1206 l 299 1096 l 396 1206 l 526 1206 l 347 1018 l 231 1018 z "},"Î":{"ha":386,"x_min":43,"x_max":488,"o":"m 43 0 m 43 0 l 211 953 l 343 953 l 175 0 l 43 0 m 78 1018 l 257 1206 l 374 1206 l 488 1018 l 368 1018 l 308 1128 l 208 1018 l 78 1018 z "},"Ȉ":{"ha":386,"x_min":43,"x_max":458,"o":"m 43 0 m 43 0 l 211 953 l 343 953 l 175 0 l 43 0 m 160 1022 l 75 1201 l 78 1206 l 213 1206 l 265 1022 l 160 1022 m 353 1022 l 268 1201 l 271 1206 l 406 1206 l 458 1022 l 353 1022 z "},"Ï":{"ha":386,"x_min":43,"x_max":513,"o":"m 43 0 m 43 0 l 211 953 l 343 953 l 175 0 l 43 0 m 108 1074 l 132 1206 l 253 1206 l 229 1074 l 108 1074 m 368 1074 l 392 1206 l 513 1206 l 489 1074 l 368 1074 z "},"İ":{"ha":386,"x_min":43,"x_max":382,"o":"m 43 0 m 43 0 l 211 953 l 343 953 l 175 0 l 43 0 m 238 1074 l 261 1206 l 382 1206 l 358 1074 l 238 1074 z "},"Ị":{"ha":386,"x_min":7,"x_max":343,"o":"m 7 0 m 43 0 l 211 953 l 343 953 l 175 0 l 43 0 m 7 -240 l 31 -108 l 151 -108 l 128 -240 l 7 -240 z "},"Ì":{"ha":386,"x_min":43,"x_max":343,"o":"m 43 0 m 43 0 l 211 953 l 343 953 l 175 0 l 43 0 m 238 1022 l 119 1201 l 121 1206 l 254 1206 l 342 1022 l 238 1022 z "},"Ỉ":{"ha":386,"x_min":43,"x_max":432,"o":"m 43 0 m 43 0 l 211 953 l 343 953 l 175 0 l 43 0 m 267 1107 l 285 1107 q 319 1115 308 1107 q 329 1138 329 1122 q 319 1153 329 1149 q 290 1157 310 1157 l 207 1157 l 217 1211 q 319 1222 265 1222 q 399 1207 365 1222 q 432 1154 432 1192 q 404 1088 432 1111 q 336 1061 376 1065 l 329 1022 l 251 1022 l 267 1107 z "},"Ȋ":{"ha":386,"x_min":43,"x_max":497,"o":"m 43 0 m 43 0 l 211 953 l 343 953 l 175 0 l 43 0 m 90 1043 q 321 1206 119 1206 q 454 1166 411 1206 q 497 1068 497 1126 q 494 1043 497 1060 l 410 1043 q 388 1094 411 1072 q 306 1117 365 1117 q 175 1043 206 1117 l 90 1043 z "},"Ī":{"ha":386,"x_min":43,"x_max":529,"o":"m 43 0 m 43 0 l 211 953 l 343 953 l 175 0 l 43 0 m 88 1072 l 106 1172 l 529 1172 l 511 1072 l 88 1072 z "},"Į":{"ha":386,"x_min":-62,"x_max":343,"o":"m 126 0 q 76 -53 97 -22 q 56 -117 56 -83 q 70 -158 56 -142 q 117 -174 85 -174 l 161 -174 l 149 -244 q 60 -264 99 -264 q -26 -240 10 -264 q -62 -161 -62 -215 q -33 -69 -62 -107 q 44 6 -4 -31 l 211 953 l 343 953 l 175 0 l 126 0 z "},"Ĩ":{"ha":386,"x_min":43,"x_max":549,"o":"m 43 0 m 43 0 l 211 953 l 343 953 l 175 0 l 43 0 m 69 1061 q 116 1165 79 1124 q 213 1206 153 1206 q 263 1200 239 1206 q 318 1183 288 1194 q 411 1163 372 1163 q 458 1206 447 1163 l 549 1206 q 501 1102 538 1143 q 404 1061 464 1061 q 353 1067 378 1061 q 299 1083 329 1072 q 206 1104 244 1104 q 158 1061 169 1104 l 69 1061 z "},"J":{"ha":694,"x_min":-4,"x_max":671,"o":"m 240 -17 q 58 35 121 -17 q -4 188 -4 86 q 8 289 -4 238 l 140 289 q 128 206 128 239 q 154 124 128 151 q 232 96 181 96 q 356 136 310 96 q 418 269 401 176 l 539 953 l 671 953 l 551 276 q 447 53 524 124 q 240 -17 369 -17 z "},"Ĵ":{"ha":694,"x_min":-4,"x_max":815,"o":"m 0 0 m 240 -17 q 58 35 121 -17 q -4 188 -4 86 q 8 289 -4 238 l 140 289 q 128 206 128 239 q 154 124 128 151 q 232 96 181 96 q 356 136 310 96 q 418 269 401 176 l 539 953 l 671 953 l 551 276 q 447 53 524 124 q 240 -17 369 -17 m 406 1018 l 585 1206 l 701 1206 l 815 1018 l 696 1018 l 636 1128 l 536 1018 l 406 1018 z "},"K":{"ha":926,"x_min":25,"x_max":993,"o":"m 25 0 l 193 953 l 325 953 l 232 428 l 821 953 l 993 953 l 565 571 l 838 0 l 692 0 l 463 481 l 204 271 l 157 0 l 25 0 z "},"Ķ":{"ha":926,"x_min":25,"x_max":993,"o":"m 25 0 m 25 0 l 193 953 l 325 953 l 232 428 l 821 953 l 993 953 l 565 571 l 838 0 l 692 0 l 463 481 l 204 271 l 157 0 l 25 0 m 281 -319 l 353 -207 l 304 -207 l 326 -81 l 449 -81 l 428 -197 l 346 -319 l 281 -319 z "},"L":{"ha":772,"x_min":25,"x_max":690,"o":"m 25 0 l 193 953 l 325 953 l 178 115 l 690 115 l 669 0 l 25 0 z "},"Ǉ":{"ha":1467,"x_min":25,"x_max":1443,"o":"m 25 0 m 25 0 l 193 953 l 325 953 l 178 115 l 690 115 l 669 0 l 25 0 m 1013 -17 q 831 35 893 -17 q 768 188 768 86 q 781 289 768 238 l 913 289 q 900 206 900 239 q 926 124 900 151 q 1004 96 953 96 q 1128 136 1082 96 q 1190 269 1174 176 l 1311 953 l 1443 953 l 1324 276 q 1219 53 1296 124 q 1013 -17 1142 -17 z "},"Ĺ":{"ha":772,"x_min":25,"x_max":690,"o":"m 25 0 m 25 0 l 193 953 l 325 953 l 178 115 l 690 115 l 669 0 l 25 0 m 211 1022 l 361 1206 l 501 1206 l 503 1201 l 331 1022 l 211 1022 z "},"Ľ":{"ha":772,"x_min":25,"x_max":690,"o":"m 25 0 l 193 953 l 325 953 l 178 115 l 690 115 l 669 0 l 25 0 m 458 681 l 532 826 l 488 826 l 510 953 l 628 953 l 607 836 l 522 681 l 458 681 z "},"Ļ":{"ha":772,"x_min":25,"x_max":690,"o":"m 25 0 m 25 0 l 193 953 l 325 953 l 178 115 l 690 115 l 669 0 l 25 0 m 228 -319 l 300 -207 l 251 -207 l 274 -81 l 396 -81 l 375 -197 l 293 -319 l 228 -319 z "},"Ŀ":{"ha":772,"x_min":25,"x_max":690,"o":"m 25 0 m 25 0 l 193 953 l 325 953 l 178 115 l 690 115 l 669 0 l 25 0 m 439 581 l 465 731 l 604 731 l 578 581 l 439 581 z "},"ǈ":{"ha":1081,"x_min":25,"x_max":1089,"o":"m 25 0 m 25 0 l 193 953 l 325 953 l 178 115 l 690 115 l 669 0 l 25 0 m 943 868 l 967 1004 l 1089 1004 l 1065 868 l 943 868 m 717 -253 q 624 -236 668 -253 l 638 -157 l 699 -157 q 774 -90 763 -157 l 919 731 l 1042 731 l 897 -85 q 844 -207 883 -161 q 717 -253 806 -253 z "},"Ł":{"ha":772,"x_min":0,"x_max":690,"o":"m 49 0 l 114 368 l 0 300 l 19 413 l 133 481 l 217 953 l 349 953 l 281 568 l 540 722 l 519 608 l 261 454 l 201 115 l 690 115 l 669 0 l 49 0 z "},"M":{"ha":1157,"x_min":25,"x_max":1132,"o":"m 193 953 l 386 953 l 504 303 q 514 220 511 267 q 517 160 517 174 l 522 160 q 547 224 528 175 q 583 303 567 272 l 928 953 l 1132 953 l 964 0 l 832 0 l 943 629 l 976 807 l 967 807 q 952 767 964 797 q 928 715 940 738 l 544 0 l 433 0 l 304 715 q 299 766 301 735 q 296 807 296 797 l 288 807 q 276 729 285 785 q 260 629 267 674 l 149 0 l 25 0 l 193 953 z "},"N":{"ha":1003,"x_min":25,"x_max":978,"o":"m 193 953 l 311 953 l 686 288 l 721 226 l 726 228 l 742 314 l 854 953 l 978 953 l 810 0 l 697 0 l 328 663 l 285 739 l 278 738 l 261 642 l 149 0 l 25 0 l 193 953 z "},"Ǌ":{"ha":1697,"x_min":25,"x_max":1674,"o":"m 25 0 m 193 953 l 311 953 l 686 288 l 721 226 l 726 228 l 742 314 l 854 953 l 978 953 l 810 0 l 697 0 l 328 663 l 285 739 l 278 738 l 261 642 l 149 0 l 25 0 l 193 953 m 1243 -17 q 1061 35 1124 -17 q 999 188 999 86 q 1011 289 999 238 l 1143 289 q 1131 206 1131 239 q 1157 124 1131 151 q 1235 96 1183 96 q 1358 136 1313 96 q 1421 269 1404 176 l 1542 953 l 1674 953 l 1554 276 q 1449 53 1526 124 q 1243 -17 1372 -17 z "},"Ń":{"ha":1003,"x_min":25,"x_max":978,"o":"m 25 0 m 193 953 l 311 953 l 686 288 l 721 226 l 726 228 l 742 314 l 854 953 l 978 953 l 810 0 l 697 0 l 328 663 l 285 739 l 278 738 l 261 642 l 149 0 l 25 0 l 193 953 m 561 1022 l 711 1206 l 851 1206 l 853 1201 l 681 1022 l 561 1022 z "},"Ň":{"ha":1003,"x_min":25,"x_max":978,"o":"m 25 0 m 193 953 l 311 953 l 686 288 l 721 226 l 726 228 l 742 314 l 854 953 l 978 953 l 810 0 l 697 0 l 328 663 l 285 739 l 278 738 l 261 642 l 149 0 l 25 0 l 193 953 m 563 1018 l 449 1206 l 568 1206 l 631 1096 l 728 1206 l 858 1206 l 679 1018 l 563 1018 z "},"Ņ":{"ha":1003,"x_min":25,"x_max":978,"o":"m 25 0 m 193 953 l 311 953 l 686 288 l 721 226 l 726 228 l 742 314 l 854 953 l 978 953 l 810 0 l 697 0 l 328 663 l 285 739 l 278 738 l 261 642 l 149 0 l 25 0 l 193 953 m 318 -319 l 390 -207 l 342 -207 l 364 -81 l 486 -81 l 465 -197 l 383 -319 l 318 -319 z "},"Ṅ":{"ha":1003,"x_min":25,"x_max":978,"o":"m 25 0 m 193 953 l 311 953 l 686 288 l 721 226 l 726 228 l 742 314 l 854 953 l 978 953 l 810 0 l 697 0 l 328 663 l 285 739 l 278 738 l 261 642 l 149 0 l 25 0 l 193 953 m 569 1074 l 593 1206 l 714 1206 l 690 1074 l 569 1074 z "},"Ŋ":{"ha":1003,"x_min":25,"x_max":978,"o":"m 614 -253 q 521 -236 565 -253 l 535 -157 l 596 -157 q 671 -90 660 -157 l 689 14 l 319 675 q 300 711 310 690 q 279 747 282 743 l 272 746 l 264 649 l 149 0 l 25 0 l 193 953 l 311 953 l 686 288 l 721 226 l 726 228 l 742 314 l 854 953 l 978 953 l 794 -85 q 742 -207 781 -161 q 614 -253 703 -253 z "},"Ɲ":{"ha":1003,"x_min":-140,"x_max":978,"o":"m -47 -253 q -140 -236 -96 -253 l -126 -157 l -65 -157 q 10 -90 -1 -157 l 193 953 l 311 953 l 686 288 l 721 226 l 726 228 l 742 314 l 854 953 l 978 953 l 810 0 l 697 0 l 350 621 l 285 739 l 278 738 l 251 583 l 133 -85 q 81 -207 119 -161 q -47 -253 42 -253 z "},"ǋ":{"ha":1311,"x_min":25,"x_max":1319,"o":"m 25 0 m 193 953 l 311 953 l 686 288 l 721 226 l 726 228 l 742 314 l 854 953 l 978 953 l 810 0 l 697 0 l 328 663 l 285 739 l 278 738 l 261 642 l 149 0 l 25 0 l 193 953 m 1174 868 l 1197 1004 l 1319 1004 l 1296 868 l 1174 868 m 947 -253 q 854 -236 899 -253 l 868 -157 l 929 -157 q 1004 -90 993 -157 l 1150 731 l 1272 731 l 1128 -85 q 1075 -207 1114 -161 q 947 -253 1036 -253 z "},"Ñ":{"ha":1003,"x_min":25,"x_max":978,"o":"m 25 0 m 193 953 l 311 953 l 686 288 l 721 226 l 726 228 l 742 314 l 854 953 l 978 953 l 810 0 l 697 0 l 328 663 l 285 739 l 278 738 l 261 642 l 149 0 l 25 0 l 193 953 m 401 1061 q 448 1165 411 1124 q 544 1206 485 1206 q 595 1200 571 1206 q 650 1183 619 1194 q 743 1163 704 1163 q 790 1206 779 1163 l 881 1206 q 833 1102 869 1143 q 736 1061 796 1061 q 685 1067 710 1061 q 631 1083 661 1072 q 538 1104 576 1104 q 490 1061 501 1104 l 401 1061 z "},"O":{"ha":1081,"x_min":51,"x_max":1028,"o":"m 464 -15 q 160 83 269 -15 q 51 356 51 181 q 64 489 51 425 q 246 847 104 724 q 617 971 388 971 q 919 872 811 969 q 1028 603 1028 775 q 1015 469 1028 535 q 833 109 975 233 q 464 -15 692 -15 m 464 99 q 744 195 640 99 q 882 489 847 292 q 892 603 892 539 q 819 791 892 724 q 617 858 746 858 q 335 763 439 858 q 197 469 232 667 q 188 356 188 419 q 260 167 188 235 q 464 99 333 99 z "},"Ó":{"ha":1081,"x_min":51,"x_max":1028,"o":"m 51 0 m 464 -15 q 160 83 269 -15 q 51 356 51 181 q 64 489 51 425 q 246 847 104 724 q 617 971 388 971 q 919 872 811 969 q 1028 603 1028 775 q 1015 469 1028 535 q 833 109 975 233 q 464 -15 692 -15 m 464 99 q 744 195 640 99 q 882 489 847 292 q 892 603 892 539 q 819 791 892 724 q 617 858 746 858 q 335 763 439 858 q 197 469 232 667 q 188 356 188 419 q 260 167 188 235 q 464 99 333 99 m 558 1022 l 708 1206 l 849 1206 l 850 1201 l 678 1022 l 558 1022 z "},"Ŏ":{"ha":1081,"x_min":51,"x_max":1028,"o":"m 51 0 m 464 -15 q 160 83 269 -15 q 51 356 51 181 q 64 489 51 425 q 246 847 104 724 q 617 971 388 971 q 919 872 811 969 q 1028 603 1028 775 q 1015 469 1028 535 q 833 109 975 233 q 464 -15 692 -15 m 464 99 q 744 195 640 99 q 882 489 847 292 q 892 603 892 539 q 819 791 892 724 q 617 858 746 858 q 335 763 439 858 q 197 469 232 667 q 188 356 188 419 q 260 167 188 235 q 464 99 333 99 m 619 1043 q 477 1080 521 1043 q 433 1174 433 1117 q 436 1206 433 1194 l 521 1206 q 542 1153 522 1175 q 618 1132 561 1132 q 713 1155 678 1132 q 756 1206 747 1178 l 840 1206 q 817 1143 835 1174 q 769 1090 799 1113 q 619 1043 708 1043 z "},"Ǒ":{"ha":1081,"x_min":51,"x_max":1028,"o":"m 51 0 m 464 -15 q 160 83 269 -15 q 51 356 51 181 q 64 489 51 425 q 246 847 104 724 q 617 971 388 971 q 919 872 811 969 q 1028 603 1028 775 q 1015 469 1028 535 q 833 109 975 233 q 464 -15 692 -15 m 464 99 q 744 195 640 99 q 882 489 847 292 q 892 603 892 539 q 819 791 892 724 q 617 858 746 858 q 335 763 439 858 q 197 469 232 667 q 188 356 188 419 q 260 167 188 235 q 464 99 333 99 m 560 1018 l 446 1206 l 565 1206 l 628 1096 l 725 1206 l 856 1206 l 676 1018 l 560 1018 z "},"Ô":{"ha":1081,"x_min":51,"x_max":1028,"o":"m 51 0 m 464 -15 q 160 83 269 -15 q 51 356 51 181 q 64 489 51 425 q 246 847 104 724 q 617 971 388 971 q 919 872 811 969 q 1028 603 1028 775 q 1015 469 1028 535 q 833 109 975 233 q 464 -15 692 -15 m 464 99 q 744 195 640 99 q 882 489 847 292 q 892 603 892 539 q 819 791 892 724 q 617 858 746 858 q 335 763 439 858 q 197 469 232 667 q 188 356 188 419 q 260 167 188 235 q 464 99 333 99 m 407 1018 l 586 1206 l 703 1206 l 817 1018 l 697 1018 l 638 1128 l 538 1018 l 407 1018 z "},"Ố":{"ha":1081,"x_min":51,"x_max":1046,"o":"m 51 0 m 464 -15 q 160 83 269 -15 q 51 356 51 181 q 64 489 51 425 q 246 847 104 724 q 617 971 388 971 q 919 872 811 969 q 1028 603 1028 775 q 1015 469 1028 535 q 833 109 975 233 q 464 -15 692 -15 m 464 99 q 744 195 640 99 q 882 489 847 292 q 892 603 892 539 q 819 791 892 724 q 617 858 746 858 q 335 763 439 858 q 197 469 232 667 q 188 356 188 419 q 260 167 188 235 q 464 99 333 99 m 407 1018 l 586 1206 l 703 1206 l 817 1018 l 697 1018 l 638 1128 l 538 1018 l 407 1018 m 754 1154 l 904 1338 l 1044 1338 l 1046 1333 l 874 1154 l 754 1154 z "},"Ộ":{"ha":1081,"x_min":51,"x_max":1028,"o":"m 51 0 m 464 -15 q 160 83 269 -15 q 51 356 51 181 q 64 489 51 425 q 246 847 104 724 q 617 971 388 971 q 919 872 811 969 q 1028 603 1028 775 q 1015 469 1028 535 q 833 109 975 233 q 464 -15 692 -15 m 464 99 q 744 195 640 99 q 882 489 847 292 q 892 603 892 539 q 819 791 892 724 q 617 858 746 858 q 335 763 439 858 q 197 469 232 667 q 188 356 188 419 q 260 167 188 235 q 464 99 333 99 m 407 1018 l 586 1206 l 703 1206 l 817 1018 l 697 1018 l 638 1128 l 538 1018 l 407 1018 m 374 -240 l 397 -108 l 518 -108 l 494 -240 l 374 -240 z "},"Ồ":{"ha":1081,"x_min":51,"x_max":1028,"o":"m 51 0 m 464 -15 q 160 83 269 -15 q 51 356 51 181 q 64 489 51 425 q 246 847 104 724 q 617 971 388 971 q 919 872 811 969 q 1028 603 1028 775 q 1015 469 1028 535 q 833 109 975 233 q 464 -15 692 -15 m 464 99 q 744 195 640 99 q 882 489 847 292 q 892 603 892 539 q 819 791 892 724 q 617 858 746 858 q 335 763 439 858 q 197 469 232 667 q 188 356 188 419 q 260 167 188 235 q 464 99 333 99 m 407 1018 l 586 1206 l 703 1206 l 817 1018 l 697 1018 l 638 1128 l 538 1018 l 407 1018 m 817 1154 l 699 1333 l 700 1338 l 833 1338 l 921 1154 l 817 1154 z "},"Ổ":{"ha":1081,"x_min":51,"x_max":1028,"o":"m 51 0 m 464 -15 q 160 83 269 -15 q 51 356 51 181 q 64 489 51 425 q 246 847 104 724 q 617 971 388 971 q 919 872 811 969 q 1028 603 1028 775 q 1015 469 1028 535 q 833 109 975 233 q 464 -15 692 -15 m 464 99 q 744 195 640 99 q 882 489 847 292 q 892 603 892 539 q 819 791 892 724 q 617 858 746 858 q 335 763 439 858 q 197 469 232 667 q 188 356 188 419 q 260 167 188 235 q 464 99 333 99 m 407 1018 l 586 1206 l 703 1206 l 817 1018 l 697 1018 l 638 1128 l 538 1018 l 407 1018 m 790 1239 l 808 1239 q 842 1247 832 1239 q 853 1269 853 1254 q 843 1285 853 1281 q 814 1289 833 1289 l 731 1289 l 740 1343 q 843 1354 789 1354 q 922 1339 889 1354 q 956 1286 956 1324 q 928 1220 956 1243 q 860 1193 900 1197 l 853 1154 l 775 1154 l 790 1239 z "},"Ỗ":{"ha":1081,"x_min":51,"x_max":1028,"o":"m 51 0 m 464 -15 q 160 83 269 -15 q 51 356 51 181 q 64 489 51 425 q 246 847 104 724 q 617 971 388 971 q 919 872 811 969 q 1028 603 1028 775 q 1015 469 1028 535 q 833 109 975 233 q 464 -15 692 -15 m 464 99 q 744 195 640 99 q 882 489 847 292 q 892 603 892 539 q 819 791 892 724 q 617 858 746 858 q 335 763 439 858 q 197 469 232 667 q 188 356 188 419 q 260 167 188 235 q 464 99 333 99 m 407 1018 l 586 1206 l 703 1206 l 817 1018 l 697 1018 l 638 1128 l 538 1018 l 407 1018 m 433 1283 q 480 1387 443 1346 q 576 1428 517 1428 q 627 1422 603 1428 q 682 1406 651 1417 q 775 1385 736 1385 q 822 1428 811 1385 l 913 1428 q 865 1324 901 1365 q 768 1283 828 1283 q 717 1289 742 1283 q 663 1306 693 1294 q 569 1326 608 1326 q 522 1283 533 1326 l 433 1283 z "},"Ȍ":{"ha":1081,"x_min":51,"x_max":1028,"o":"m 51 0 m 464 -15 q 160 83 269 -15 q 51 356 51 181 q 64 489 51 425 q 246 847 104 724 q 617 971 388 971 q 919 872 811 969 q 1028 603 1028 775 q 1015 469 1028 535 q 833 109 975 233 q 464 -15 692 -15 m 464 99 q 744 195 640 99 q 882 489 847 292 q 892 603 892 539 q 819 791 892 724 q 617 858 746 858 q 335 763 439 858 q 197 469 232 667 q 188 356 188 419 q 260 167 188 235 q 464 99 333 99 m 489 1022 l 404 1201 l 407 1206 l 542 1206 l 594 1022 l 489 1022 m 682 1022 l 597 1201 l 600 1206 l 735 1206 l 788 1022 l 682 1022 z "},"Ö":{"ha":1081,"x_min":51,"x_max":1028,"o":"m 51 0 m 464 -15 q 160 83 269 -15 q 51 356 51 181 q 64 489 51 425 q 246 847 104 724 q 617 971 388 971 q 919 872 811 969 q 1028 603 1028 775 q 1015 469 1028 535 q 833 109 975 233 q 464 -15 692 -15 m 464 99 q 744 195 640 99 q 882 489 847 292 q 892 603 892 539 q 819 791 892 724 q 617 858 746 858 q 335 763 439 858 q 197 469 232 667 q 188 356 188 419 q 260 167 188 235 q 464 99 333 99 m 438 1074 l 461 1206 l 582 1206 l 558 1074 l 438 1074 m 697 1074 l 721 1206 l 842 1206 l 818 1074 l 697 1074 z "},"Ọ":{"ha":1081,"x_min":51,"x_max":1028,"o":"m 51 0 m 464 -15 q 160 83 269 -15 q 51 356 51 181 q 64 489 51 425 q 246 847 104 724 q 617 971 388 971 q 919 872 811 969 q 1028 603 1028 775 q 1015 469 1028 535 q 833 109 975 233 q 464 -15 692 -15 m 464 99 q 744 195 640 99 q 882 489 847 292 q 892 603 892 539 q 819 791 892 724 q 617 858 746 858 q 335 763 439 858 q 197 469 232 667 q 188 356 188 419 q 260 167 188 235 q 464 99 333 99 m 374 -240 l 397 -108 l 518 -108 l 494 -240 l 374 -240 z "},"Ò":{"ha":1081,"x_min":51,"x_max":1028,"o":"m 51 0 m 464 -15 q 160 83 269 -15 q 51 356 51 181 q 64 489 51 425 q 246 847 104 724 q 617 971 388 971 q 919 872 811 969 q 1028 603 1028 775 q 1015 469 1028 535 q 833 109 975 233 q 464 -15 692 -15 m 464 99 q 744 195 640 99 q 882 489 847 292 q 892 603 892 539 q 819 791 892 724 q 617 858 746 858 q 335 763 439 858 q 197 469 232 667 q 188 356 188 419 q 260 167 188 235 q 464 99 333 99 m 567 1022 l 449 1201 l 450 1206 l 583 1206 l 671 1022 l 567 1022 z "},"Ỏ":{"ha":1081,"x_min":51,"x_max":1028,"o":"m 51 0 m 464 -15 q 160 83 269 -15 q 51 356 51 181 q 64 489 51 425 q 246 847 104 724 q 617 971 388 971 q 919 872 811 969 q 1028 603 1028 775 q 1015 469 1028 535 q 833 109 975 233 q 464 -15 692 -15 m 464 99 q 744 195 640 99 q 882 489 847 292 q 892 603 892 539 q 819 791 892 724 q 617 858 746 858 q 335 763 439 858 q 197 469 232 667 q 188 356 188 419 q 260 167 188 235 q 464 99 333 99 m 596 1107 l 614 1107 q 648 1115 638 1107 q 658 1138 658 1122 q 649 1153 658 1149 q 619 1157 639 1157 l 536 1157 l 546 1211 q 649 1222 594 1222 q 728 1207 694 1222 q 761 1154 761 1192 q 733 1088 761 1111 q 665 1061 706 1065 l 658 1022 l 581 1022 l 596 1107 z "},"Ơ":{"ha":1081,"x_min":51,"x_max":1157,"o":"m 1157 1150 l 1144 1075 q 961 826 1117 890 q 1028 603 1028 736 q 1015 469 1028 535 q 833 109 975 233 q 464 -15 692 -15 q 160 83 269 -15 q 51 356 51 181 q 64 489 51 425 q 246 847 104 724 q 617 971 388 971 q 903 886 794 971 q 1039 1000 1004 914 l 978 1000 l 1004 1150 l 1157 1150 m 882 489 q 892 603 892 539 q 819 791 892 724 q 617 858 746 858 q 335 763 439 858 q 197 469 232 667 q 188 356 188 419 q 260 167 188 235 q 464 99 333 99 q 744 195 640 99 q 882 489 847 292 z "},"Ớ":{"ha":1081,"x_min":51,"x_max":1157,"o":"m 51 0 m 1157 1150 l 1144 1075 q 961 826 1117 890 q 1028 603 1028 736 q 1015 469 1028 535 q 833 109 975 233 q 464 -15 692 -15 q 160 83 269 -15 q 51 356 51 181 q 64 489 51 425 q 246 847 104 724 q 617 971 388 971 q 903 886 794 971 q 1039 1000 1004 914 l 978 1000 l 1004 1150 l 1157 1150 m 882 489 q 892 603 892 539 q 819 791 892 724 q 617 858 746 858 q 335 763 439 858 q 197 469 232 667 q 188 356 188 419 q 260 167 188 235 q 464 99 333 99 q 744 195 640 99 q 882 489 847 292 m 558 1022 l 708 1206 l 849 1206 l 850 1201 l 678 1022 l 558 1022 z "},"Ợ":{"ha":1081,"x_min":51,"x_max":1157,"o":"m 51 0 m 1157 1150 l 1144 1075 q 961 826 1117 890 q 1028 603 1028 736 q 1015 469 1028 535 q 833 109 975 233 q 464 -15 692 -15 q 160 83 269 -15 q 51 356 51 181 q 64 489 51 425 q 246 847 104 724 q 617 971 388 971 q 903 886 794 971 q 1039 1000 1004 914 l 978 1000 l 1004 1150 l 1157 1150 m 882 489 q 892 603 892 539 q 819 791 892 724 q 617 858 746 858 q 335 763 439 858 q 197 469 232 667 q 188 356 188 419 q 260 167 188 235 q 464 99 333 99 q 744 195 640 99 q 882 489 847 292 m 374 -240 l 397 -108 l 518 -108 l 494 -240 l 374 -240 z "},"Ờ":{"ha":1081,"x_min":51,"x_max":1157,"o":"m 51 0 m 1157 1150 l 1144 1075 q 961 826 1117 890 q 1028 603 1028 736 q 1015 469 1028 535 q 833 109 975 233 q 464 -15 692 -15 q 160 83 269 -15 q 51 356 51 181 q 64 489 51 425 q 246 847 104 724 q 617 971 388 971 q 903 886 794 971 q 1039 1000 1004 914 l 978 1000 l 1004 1150 l 1157 1150 m 882 489 q 892 603 892 539 q 819 791 892 724 q 617 858 746 858 q 335 763 439 858 q 197 469 232 667 q 188 356 188 419 q 260 167 188 235 q 464 99 333 99 q 744 195 640 99 q 882 489 847 292 m 567 1022 l 449 1201 l 450 1206 l 583 1206 l 671 1022 l 567 1022 z "},"Ở":{"ha":1081,"x_min":51,"x_max":1157,"o":"m 51 0 m 1157 1150 l 1144 1075 q 961 826 1117 890 q 1028 603 1028 736 q 1015 469 1028 535 q 833 109 975 233 q 464 -15 692 -15 q 160 83 269 -15 q 51 356 51 181 q 64 489 51 425 q 246 847 104 724 q 617 971 388 971 q 903 886 794 971 q 1039 1000 1004 914 l 978 1000 l 1004 1150 l 1157 1150 m 882 489 q 892 603 892 539 q 819 791 892 724 q 617 858 746 858 q 335 763 439 858 q 197 469 232 667 q 188 356 188 419 q 260 167 188 235 q 464 99 333 99 q 744 195 640 99 q 882 489 847 292 m 596 1107 l 614 1107 q 648 1115 638 1107 q 658 1138 658 1122 q 649 1153 658 1149 q 619 1157 639 1157 l 536 1157 l 546 1211 q 649 1222 594 1222 q 728 1207 694 1222 q 761 1154 761 1192 q 733 1088 761 1111 q 665 1061 706 1065 l 658 1022 l 581 1022 l 596 1107 z "},"Ỡ":{"ha":1081,"x_min":51,"x_max":1157,"o":"m 51 0 m 1157 1150 l 1144 1075 q 961 826 1117 890 q 1028 603 1028 736 q 1015 469 1028 535 q 833 109 975 233 q 464 -15 692 -15 q 160 83 269 -15 q 51 356 51 181 q 64 489 51 425 q 246 847 104 724 q 617 971 388 971 q 903 886 794 971 q 1039 1000 1004 914 l 978 1000 l 1004 1150 l 1157 1150 m 882 489 q 892 603 892 539 q 819 791 892 724 q 617 858 746 858 q 335 763 439 858 q 197 469 232 667 q 188 356 188 419 q 260 167 188 235 q 464 99 333 99 q 744 195 640 99 q 882 489 847 292 m 399 1061 q 445 1165 408 1124 q 542 1206 482 1206 q 592 1200 568 1206 q 647 1183 617 1194 q 740 1163 701 1163 q 788 1206 776 1163 l 878 1206 q 830 1102 867 1143 q 733 1061 793 1061 q 683 1067 707 1061 q 628 1083 658 1072 q 535 1104 574 1104 q 488 1061 499 1104 l 399 1061 z "},"Ő":{"ha":1081,"x_min":51,"x_max":1028,"o":"m 51 0 m 464 -15 q 160 83 269 -15 q 51 356 51 181 q 64 489 51 425 q 246 847 104 724 q 617 971 388 971 q 919 872 811 969 q 1028 603 1028 775 q 1015 469 1028 535 q 833 109 975 233 q 464 -15 692 -15 m 464 99 q 744 195 640 99 q 882 489 847 292 q 892 603 892 539 q 819 791 892 724 q 617 858 746 858 q 335 763 439 858 q 197 469 232 667 q 188 356 188 419 q 260 167 188 235 q 464 99 333 99 m 464 1022 l 582 1206 l 722 1206 l 724 1201 l 575 1022 l 464 1022 m 663 1022 l 781 1206 l 921 1206 l 922 1201 l 774 1022 l 663 1022 z "},"Ȏ":{"ha":1081,"x_min":51,"x_max":1028,"o":"m 51 0 m 464 -15 q 160 83 269 -15 q 51 356 51 181 q 64 489 51 425 q 246 847 104 724 q 617 971 388 971 q 919 872 811 969 q 1028 603 1028 775 q 1015 469 1028 535 q 833 109 975 233 q 464 -15 692 -15 m 464 99 q 744 195 640 99 q 882 489 847 292 q 892 603 892 539 q 819 791 892 724 q 617 858 746 858 q 335 763 439 858 q 197 469 232 667 q 188 356 188 419 q 260 167 188 235 q 464 99 333 99 m 419 1043 q 650 1206 449 1206 q 783 1166 740 1206 q 826 1068 826 1126 q 824 1043 826 1060 l 739 1043 q 717 1094 740 1072 q 635 1117 694 1117 q 504 1043 535 1117 l 419 1043 z "},"Ō":{"ha":1081,"x_min":51,"x_max":1028,"o":"m 51 0 m 464 -15 q 160 83 269 -15 q 51 356 51 181 q 64 489 51 425 q 246 847 104 724 q 617 971 388 971 q 919 872 811 969 q 1028 603 1028 775 q 1015 469 1028 535 q 833 109 975 233 q 464 -15 692 -15 m 464 99 q 744 195 640 99 q 882 489 847 292 q 892 603 892 539 q 819 791 892 724 q 617 858 746 858 q 335 763 439 858 q 197 469 232 667 q 188 356 188 419 q 260 167 188 235 q 464 99 333 99 m 417 1072 l 435 1172 l 858 1172 l 840 1072 l 417 1072 z "},"Ǫ":{"ha":1081,"x_min":51,"x_max":1028,"o":"m 617 971 q 919 872 811 969 q 1028 603 1028 775 q 1015 469 1028 535 q 893 172 985 288 q 656 11 801 56 q 606 -42 626 -11 q 585 -106 585 -72 q 599 -147 585 -131 q 646 -162 614 -162 l 690 -162 l 678 -233 q 589 -253 628 -253 q 503 -228 539 -253 q 467 -150 467 -204 q 538 -11 467 -75 q 464 -15 503 -15 q 160 83 269 -15 q 51 356 51 181 q 64 489 51 425 q 246 847 104 724 q 617 971 388 971 m 882 489 q 892 603 892 539 q 819 791 892 724 q 617 858 746 858 q 335 763 439 858 q 197 469 232 667 q 188 356 188 419 q 260 167 188 235 q 464 99 333 99 q 744 195 640 99 q 882 489 847 292 z "},"Ø":{"ha":1081,"x_min":11,"x_max":1071,"o":"m 146 88 q 53 344 53 178 q 110 647 53 514 q 274 861 168 781 q 613 969 417 969 q 863 915 765 969 l 954 1021 l 1071 1021 l 935 864 q 1028 606 1028 771 q 973 313 1028 442 q 818 101 918 183 q 658 14 747 44 q 467 -17 569 -17 q 217 35 314 -17 l 128 -68 l 11 -68 l 146 88 m 782 822 q 621 857 718 857 q 357 769 465 857 q 210 525 249 682 q 190 358 190 444 q 233 189 190 249 l 782 822 m 458 96 q 735 192 622 96 q 879 460 847 289 q 892 592 892 522 q 847 763 892 699 l 299 129 q 458 96 360 96 z "},"Ǿ":{"ha":1081,"x_min":11,"x_max":1071,"o":"m 11 0 m 146 88 q 53 344 53 178 q 110 647 53 514 q 274 861 168 781 q 613 969 417 969 q 863 915 765 969 l 954 1021 l 1071 1021 l 935 864 q 1028 606 1028 771 q 973 313 1028 442 q 818 101 918 183 q 658 14 747 44 q 467 -17 569 -17 q 217 35 314 -17 l 128 -68 l 11 -68 l 146 88 m 782 822 q 621 857 718 857 q 357 769 465 857 q 210 525 249 682 q 190 358 190 444 q 233 189 190 249 l 782 822 m 458 96 q 735 192 622 96 q 879 460 847 289 q 892 592 892 522 q 847 763 892 699 l 299 129 q 458 96 360 96 m 600 1022 l 750 1206 l 890 1206 l 892 1201 l 719 1022 l 600 1022 z "},"Õ":{"ha":1081,"x_min":51,"x_max":1028,"o":"m 51 0 m 464 -15 q 160 83 269 -15 q 51 356 51 181 q 64 489 51 425 q 246 847 104 724 q 617 971 388 971 q 919 872 811 969 q 1028 603 1028 775 q 1015 469 1028 535 q 833 109 975 233 q 464 -15 692 -15 m 464 99 q 744 195 640 99 q 882 489 847 292 q 892 603 892 539 q 819 791 892 724 q 617 858 746 858 q 335 763 439 858 q 197 469 232 667 q 188 356 188 419 q 260 167 188 235 q 464 99 333 99 m 399 1061 q 445 1165 408 1124 q 542 1206 482 1206 q 592 1200 568 1206 q 647 1183 617 1194 q 740 1163 701 1163 q 788 1206 776 1163 l 878 1206 q 830 1102 867 1143 q 733 1061 793 1061 q 683 1067 707 1061 q 628 1083 658 1072 q 535 1104 574 1104 q 488 1061 499 1104 l 399 1061 z "},"Œ":{"ha":1389,"x_min":53,"x_max":1389,"o":"m 375 -17 q 136 67 219 -17 q 53 318 53 151 q 68 476 53 385 q 227 845 110 721 q 521 969 344 969 q 772 847 694 969 l 790 953 l 1389 953 l 1369 842 l 903 842 l 850 543 l 1240 543 l 1221 432 l 831 432 l 774 111 l 1250 111 l 1231 0 l 622 0 l 640 106 q 375 -17 532 -17 m 399 96 q 593 185 515 96 q 707 476 671 275 q 722 628 722 568 q 671 804 722 751 q 521 857 619 857 q 317 767 394 857 q 204 476 239 676 q 189 325 189 385 q 241 150 189 204 q 399 96 293 96 z "},"P":{"ha":926,"x_min":25,"x_max":907,"o":"m 193 953 l 643 953 q 840 886 774 953 q 907 703 907 819 q 863 528 907 606 q 740 408 818 451 q 567 365 663 365 l 221 365 l 157 0 l 25 0 l 193 953 m 567 481 q 713 539 654 481 q 772 693 772 597 q 736 800 772 763 q 629 838 700 838 l 304 838 l 242 481 l 567 481 z "},"Þ":{"ha":926,"x_min":25,"x_max":878,"o":"m 193 953 l 325 953 l 296 788 l 614 788 q 811 721 744 788 q 878 538 878 654 q 833 363 878 440 q 711 243 789 286 q 538 200 633 200 l 192 200 l 157 0 l 25 0 l 193 953 m 538 315 q 684 374 625 315 q 743 528 743 432 q 707 635 743 597 q 600 672 671 672 l 275 672 l 213 315 l 538 315 z "},"Q":{"ha":1081,"x_min":53,"x_max":1028,"o":"m 536 -12 q 467 -17 503 -17 q 160 74 267 -17 q 53 344 53 165 q 108 640 53 510 q 264 853 163 771 q 422 940 333 910 q 613 969 510 969 q 920 878 813 969 q 1028 606 1028 786 q 933 233 1028 388 q 672 18 838 78 l 843 -181 l 675 -181 l 536 -12 m 458 96 q 716 177 608 96 q 867 404 824 258 q 892 592 892 488 q 822 794 892 731 q 621 857 753 857 q 359 771 467 857 q 211 531 251 685 q 190 358 190 451 q 259 159 190 222 q 458 96 328 96 z "},"R":{"ha":1003,"x_min":25,"x_max":943,"o":"m 193 953 l 675 953 q 875 888 807 953 q 943 713 943 824 q 880 522 943 604 q 715 410 817 440 l 861 0 l 719 0 l 582 393 l 226 393 l 157 0 l 25 0 l 193 953 m 604 508 q 749 562 690 508 q 807 706 807 615 q 770 803 807 769 q 661 838 733 838 l 304 838 l 247 508 l 604 508 z "},"Ŕ":{"ha":1003,"x_min":25,"x_max":943,"o":"m 25 0 m 193 953 l 675 953 q 875 888 807 953 q 943 713 943 824 q 880 522 943 604 q 715 410 817 440 l 861 0 l 719 0 l 582 393 l 226 393 l 157 0 l 25 0 l 193 953 m 604 508 q 749 562 690 508 q 807 706 807 615 q 770 803 807 769 q 661 838 733 838 l 304 838 l 247 508 l 604 508 m 497 1022 l 647 1206 l 788 1206 l 789 1201 l 617 1022 l 497 1022 z "},"Ř":{"ha":1003,"x_min":25,"x_max":943,"o":"m 25 0 m 193 953 l 675 953 q 875 888 807 953 q 943 713 943 824 q 880 522 943 604 q 715 410 817 440 l 861 0 l 719 0 l 582 393 l 226 393 l 157 0 l 25 0 l 193 953 m 604 508 q 749 562 690 508 q 807 706 807 615 q 770 803 807 769 q 661 838 733 838 l 304 838 l 247 508 l 604 508 m 499 1018 l 385 1206 l 504 1206 l 567 1096 l 664 1206 l 794 1206 l 615 1018 l 499 1018 z "},"Ŗ":{"ha":1003,"x_min":25,"x_max":943,"o":"m 25 0 m 193 953 l 675 953 q 875 888 807 953 q 943 713 943 824 q 880 522 943 604 q 715 410 817 440 l 861 0 l 719 0 l 582 393 l 226 393 l 157 0 l 25 0 l 193 953 m 604 508 q 749 562 690 508 q 807 706 807 615 q 770 803 807 769 q 661 838 733 838 l 304 838 l 247 508 l 604 508 m 318 -319 l 390 -207 l 342 -207 l 364 -81 l 486 -81 l 465 -197 l 383 -319 l 318 -319 z "},"Ȑ":{"ha":1003,"x_min":25,"x_max":943,"o":"m 25 0 m 193 953 l 675 953 q 875 888 807 953 q 943 713 943 824 q 880 522 943 604 q 715 410 817 440 l 861 0 l 719 0 l 582 393 l 226 393 l 157 0 l 25 0 l 193 953 m 604 508 q 749 562 690 508 q 807 706 807 615 q 770 803 807 769 q 661 838 733 838 l 304 838 l 247 508 l 604 508 m 428 1022 l 343 1201 l 346 1206 l 481 1206 l 533 1022 l 428 1022 m 621 1022 l 536 1201 l 539 1206 l 674 1206 l 726 1022 l 621 1022 z "},"Ṛ":{"ha":1003,"x_min":25,"x_max":943,"o":"m 25 0 m 193 953 l 675 953 q 875 888 807 953 q 943 713 943 824 q 880 522 943 604 q 715 410 817 440 l 861 0 l 719 0 l 582 393 l 226 393 l 157 0 l 25 0 l 193 953 m 604 508 q 749 562 690 508 q 807 706 807 615 q 770 803 807 769 q 661 838 733 838 l 304 838 l 247 508 l 604 508 m 335 -240 l 358 -108 l 479 -108 l 456 -240 l 335 -240 z "},"Ȓ":{"ha":1003,"x_min":25,"x_max":943,"o":"m 25 0 m 193 953 l 675 953 q 875 888 807 953 q 943 713 943 824 q 880 522 943 604 q 715 410 817 440 l 861 0 l 719 0 l 582 393 l 226 393 l 157 0 l 25 0 l 193 953 m 604 508 q 749 562 690 508 q 807 706 807 615 q 770 803 807 769 q 661 838 733 838 l 304 838 l 247 508 l 604 508 m 358 1043 q 589 1206 388 1206 q 722 1166 679 1206 q 765 1068 765 1126 q 763 1043 765 1060 l 678 1043 q 656 1094 679 1072 q 574 1117 633 1117 q 443 1043 474 1117 l 358 1043 z "},"S":{"ha":926,"x_min":26,"x_max":871,"o":"m 401 -17 q 129 39 232 -17 q 26 215 26 94 q 38 297 26 264 l 168 297 q 157 238 157 260 q 219 132 157 168 q 386 96 281 96 q 604 142 524 96 q 685 271 685 188 q 653 347 685 317 q 573 397 621 378 q 443 439 525 415 q 280 493 343 467 q 173 568 217 519 q 129 694 129 617 q 184 847 129 785 q 328 939 239 908 q 521 969 418 969 q 776 916 681 969 q 871 753 871 863 q 864 685 871 719 l 735 685 q 740 728 740 706 q 684 823 740 789 q 533 857 628 857 q 342 819 417 857 q 267 710 267 782 q 298 638 267 667 q 376 590 329 608 q 504 550 424 572 q 670 494 607 521 q 778 419 733 468 q 824 290 824 369 q 765 116 824 185 q 610 15 706 47 q 401 -17 514 -17 z "},"Ś":{"ha":926,"x_min":26,"x_max":871,"o":"m 26 0 m 401 -17 q 129 39 232 -17 q 26 215 26 94 q 38 297 26 264 l 168 297 q 157 238 157 260 q 219 132 157 168 q 386 96 281 96 q 604 142 524 96 q 685 271 685 188 q 653 347 685 317 q 573 397 621 378 q 443 439 525 415 q 280 493 343 467 q 173 568 217 519 q 129 694 129 617 q 184 847 129 785 q 328 939 239 908 q 521 969 418 969 q 776 916 681 969 q 871 753 871 863 q 864 685 871 719 l 735 685 q 740 728 740 706 q 684 823 740 789 q 533 857 628 857 q 342 819 417 857 q 267 710 267 782 q 298 638 267 667 q 376 590 329 608 q 504 550 424 572 q 670 494 607 521 q 778 419 733 468 q 824 290 824 369 q 765 116 824 185 q 610 15 706 47 q 401 -17 514 -17 m 482 1022 l 632 1206 l 772 1206 l 774 1201 l 601 1022 l 482 1022 z "},"Ꞌ":{"ha":238,"x_min":35,"x_max":290,"o":"m 35 289 l 151 953 l 290 953 l 267 815 l 101 289 l 35 289 z "},"Š":{"ha":926,"x_min":26,"x_max":871,"o":"m 26 0 m 401 -17 q 129 39 232 -17 q 26 215 26 94 q 38 297 26 264 l 168 297 q 157 238 157 260 q 219 132 157 168 q 386 96 281 96 q 604 142 524 96 q 685 271 685 188 q 653 347 685 317 q 573 397 621 378 q 443 439 525 415 q 280 493 343 467 q 173 568 217 519 q 129 694 129 617 q 184 847 129 785 q 328 939 239 908 q 521 969 418 969 q 776 916 681 969 q 871 753 871 863 q 864 685 871 719 l 735 685 q 740 728 740 706 q 684 823 740 789 q 533 857 628 857 q 342 819 417 857 q 267 710 267 782 q 298 638 267 667 q 376 590 329 608 q 504 550 424 572 q 670 494 607 521 q 778 419 733 468 q 824 290 824 369 q 765 116 824 185 q 610 15 706 47 q 401 -17 514 -17 m 483 1018 l 369 1206 l 489 1206 l 551 1096 l 649 1206 l 779 1206 l 600 1018 l 483 1018 z "},"Ş":{"ha":926,"x_min":26,"x_max":871,"o":"m 365 -253 q 222 -242 285 -253 l 235 -174 l 374 -174 q 420 -165 404 -174 q 436 -132 436 -156 q 425 -113 436 -119 q 388 -107 414 -107 l 317 -107 l 350 -15 q 114 49 201 -7 q 26 215 26 104 q 38 297 26 264 l 168 297 q 157 238 157 260 q 219 132 157 168 q 386 96 281 96 q 604 142 524 96 q 685 271 685 188 q 653 347 685 317 q 573 397 621 378 q 443 439 525 415 q 280 493 343 467 q 173 568 217 519 q 129 694 129 617 q 184 847 129 785 q 328 939 239 908 q 521 969 418 969 q 776 916 681 969 q 871 753 871 863 q 864 685 871 719 l 735 685 q 740 728 740 706 q 684 823 740 789 q 533 857 628 857 q 342 819 417 857 q 267 710 267 782 q 298 638 267 667 q 376 590 329 608 q 504 550 424 572 q 670 494 607 521 q 778 419 733 468 q 824 290 824 369 q 713 67 824 143 q 436 -15 601 -8 l 424 -50 q 506 -70 474 -50 q 538 -131 538 -90 q 365 -253 538 -253 z "},"Ŝ":{"ha":926,"x_min":26,"x_max":871,"o":"m 26 0 m 401 -17 q 129 39 232 -17 q 26 215 26 94 q 38 297 26 264 l 168 297 q 157 238 157 260 q 219 132 157 168 q 386 96 281 96 q 604 142 524 96 q 685 271 685 188 q 653 347 685 317 q 573 397 621 378 q 443 439 525 415 q 280 493 343 467 q 173 568 217 519 q 129 694 129 617 q 184 847 129 785 q 328 939 239 908 q 521 969 418 969 q 776 916 681 969 q 871 753 871 863 q 864 685 871 719 l 735 685 q 740 728 740 706 q 684 823 740 789 q 533 857 628 857 q 342 819 417 857 q 267 710 267 782 q 298 638 267 667 q 376 590 329 608 q 504 550 424 572 q 670 494 607 521 q 778 419 733 468 q 824 290 824 369 q 765 116 824 185 q 610 15 706 47 q 401 -17 514 -17 m 331 1018 l 510 1206 l 626 1206 l 740 1018 l 621 1018 l 561 1128 l 461 1018 l 331 1018 z "},"Ș":{"ha":926,"x_min":26,"x_max":871,"o":"m 26 0 m 401 -17 q 129 39 232 -17 q 26 215 26 94 q 38 297 26 264 l 168 297 q 157 238 157 260 q 219 132 157 168 q 386 96 281 96 q 604 142 524 96 q 685 271 685 188 q 653 347 685 317 q 573 397 621 378 q 443 439 525 415 q 280 493 343 467 q 173 568 217 519 q 129 694 129 617 q 184 847 129 785 q 328 939 239 908 q 521 969 418 969 q 776 916 681 969 q 871 753 871 863 q 864 685 871 719 l 735 685 q 740 728 740 706 q 684 823 740 789 q 533 857 628 857 q 342 819 417 857 q 267 710 267 782 q 298 638 267 667 q 376 590 329 608 q 504 550 424 572 q 670 494 607 521 q 778 419 733 468 q 824 290 824 369 q 765 116 824 185 q 610 15 706 47 q 401 -17 514 -17 m 281 -319 l 353 -207 l 304 -207 l 326 -81 l 449 -81 l 428 -197 l 346 -319 l 281 -319 z "},"Ṣ":{"ha":926,"x_min":26,"x_max":871,"o":"m 26 0 m 401 -17 q 129 39 232 -17 q 26 215 26 94 q 38 297 26 264 l 168 297 q 157 238 157 260 q 219 132 157 168 q 386 96 281 96 q 604 142 524 96 q 685 271 685 188 q 653 347 685 317 q 573 397 621 378 q 443 439 525 415 q 280 493 343 467 q 173 568 217 519 q 129 694 129 617 q 184 847 129 785 q 328 939 239 908 q 521 969 418 969 q 776 916 681 969 q 871 753 871 863 q 864 685 871 719 l 735 685 q 740 728 740 706 q 684 823 740 789 q 533 857 628 857 q 342 819 417 857 q 267 710 267 782 q 298 638 267 667 q 376 590 329 608 q 504 550 424 572 q 670 494 607 521 q 778 419 733 468 q 824 290 824 369 q 765 116 824 185 q 610 15 706 47 q 401 -17 514 -17 m 297 -240 l 321 -108 l 442 -108 l 418 -240 l 297 -240 z "},"ẞ":{"ha":1108,"x_min":25,"x_max":981,"o":"m 129 585 q 292 871 161 772 q 618 969 422 969 q 883 904 786 969 q 981 728 981 839 q 931 580 981 649 q 813 488 882 511 l 813 482 q 914 417 878 463 q 950 303 950 371 q 908 145 950 214 q 793 38 867 76 q 625 0 719 0 l 310 0 l 331 115 l 628 115 q 726 142 683 115 q 792 209 768 168 q 815 293 815 250 q 771 381 815 349 q 646 414 726 414 l 383 414 l 404 529 l 663 529 q 753 553 711 529 q 819 617 794 576 q 843 708 843 658 q 786 818 843 779 q 610 857 729 857 q 374 787 464 857 q 258 575 283 717 l 157 0 l 25 0 l 129 585 z "},"Ə":{"ha":1053,"x_min":60,"x_max":1008,"o":"m 457 -17 q 163 72 267 -17 q 60 321 60 160 q 71 429 60 369 l 86 515 l 868 515 q 875 597 875 564 q 799 793 875 729 q 582 857 722 857 q 233 631 272 857 l 107 631 q 290 904 140 821 q 603 969 410 969 q 900 869 792 969 q 1008 590 1008 769 q 961 332 1008 467 q 836 119 914 197 q 457 -17 700 -17 m 475 96 q 710 165 624 96 q 842 393 797 235 l 200 393 q 193 318 193 349 q 475 96 193 96 z "},"T":{"ha":849,"x_min":93,"x_max":901,"o":"m 274 0 l 421 838 l 93 838 l 114 953 l 901 953 l 881 838 l 553 838 l 406 0 l 274 0 z "},"Ŧ":{"ha":849,"x_min":93,"x_max":901,"o":"m 274 0 l 367 529 l 221 529 l 239 629 l 385 629 l 421 838 l 93 838 l 114 953 l 901 953 l 881 838 l 553 838 l 517 629 l 663 629 l 644 529 l 499 529 l 406 0 l 274 0 z "},"Ť":{"ha":849,"x_min":93,"x_max":901,"o":"m 93 0 m 274 0 l 421 838 l 93 838 l 114 953 l 901 953 l 881 838 l 553 838 l 406 0 l 274 0 m 458 1018 l 344 1206 l 464 1206 l 526 1096 l 624 1206 l 754 1206 l 575 1018 l 458 1018 z "},"Ţ":{"ha":849,"x_min":93,"x_max":901,"o":"m 901 953 l 881 838 l 553 838 l 406 0 l 381 0 l 363 -50 q 444 -70 413 -50 q 476 -131 476 -90 q 304 -253 476 -253 q 161 -242 224 -253 l 174 -174 l 313 -174 q 359 -165 343 -174 q 375 -132 375 -156 q 364 -113 375 -119 q 326 -107 353 -107 l 256 -107 l 294 0 l 274 0 l 421 838 l 93 838 l 114 953 l 901 953 z "},"Ț":{"ha":849,"x_min":93,"x_max":901,"o":"m 93 0 m 274 0 l 421 838 l 93 838 l 114 953 l 901 953 l 881 838 l 553 838 l 406 0 l 274 0 m 221 -319 l 293 -207 l 244 -207 l 267 -81 l 389 -81 l 368 -197 l 286 -319 l 221 -319 z "},"Ṭ":{"ha":849,"x_min":93,"x_max":901,"o":"m 93 0 m 274 0 l 421 838 l 93 838 l 114 953 l 901 953 l 881 838 l 553 838 l 406 0 l 274 0 m 238 -240 l 261 -108 l 382 -108 l 358 -240 l 238 -240 z "},"U":{"ha":1003,"x_min":83,"x_max":978,"o":"m 442 -17 q 176 58 269 -17 q 83 275 83 133 q 92 363 83 317 l 194 953 l 326 953 l 222 356 q 215 288 215 314 q 273 144 215 193 q 438 96 331 96 q 639 159 561 96 q 739 344 717 222 l 846 953 l 978 953 l 872 351 q 442 -17 807 -17 z "},"Ú":{"ha":1003,"x_min":83,"x_max":978,"o":"m 83 0 m 442 -17 q 176 58 269 -17 q 83 275 83 133 q 92 363 83 317 l 194 953 l 326 953 l 222 356 q 215 288 215 314 q 273 144 215 193 q 438 96 331 96 q 639 159 561 96 q 739 344 717 222 l 846 953 l 978 953 l 872 351 q 442 -17 807 -17 m 538 1022 l 688 1206 l 828 1206 l 829 1201 l 657 1022 l 538 1022 z "},"Ŭ":{"ha":1003,"x_min":83,"x_max":978,"o":"m 83 0 m 442 -17 q 176 58 269 -17 q 83 275 83 133 q 92 363 83 317 l 194 953 l 326 953 l 222 356 q 215 288 215 314 q 273 144 215 193 q 438 96 331 96 q 639 159 561 96 q 739 344 717 222 l 846 953 l 978 953 l 872 351 q 442 -17 807 -17 m 599 1043 q 456 1080 500 1043 q 413 1174 413 1117 q 415 1206 413 1194 l 500 1206 q 521 1153 501 1175 q 597 1132 540 1132 q 692 1155 657 1132 q 735 1206 726 1178 l 819 1206 q 796 1143 814 1174 q 749 1090 778 1113 q 599 1043 688 1043 z "},"Ǔ":{"ha":1003,"x_min":83,"x_max":978,"o":"m 83 0 m 442 -17 q 176 58 269 -17 q 83 275 83 133 q 92 363 83 317 l 194 953 l 326 953 l 222 356 q 215 288 215 314 q 273 144 215 193 q 438 96 331 96 q 639 159 561 96 q 739 344 717 222 l 846 953 l 978 953 l 872 351 q 442 -17 807 -17 m 539 1018 l 425 1206 l 544 1206 l 607 1096 l 704 1206 l 835 1206 l 656 1018 l 539 1018 z "},"Û":{"ha":1003,"x_min":83,"x_max":978,"o":"m 83 0 m 442 -17 q 176 58 269 -17 q 83 275 83 133 q 92 363 83 317 l 194 953 l 326 953 l 222 356 q 215 288 215 314 q 273 144 215 193 q 438 96 331 96 q 639 159 561 96 q 739 344 717 222 l 846 953 l 978 953 l 872 351 q 442 -17 807 -17 m 386 1018 l 565 1206 l 682 1206 l 796 1018 l 676 1018 l 617 1128 l 517 1018 l 386 1018 z "},"Ȕ":{"ha":1003,"x_min":83,"x_max":978,"o":"m 83 0 m 442 -17 q 176 58 269 -17 q 83 275 83 133 q 92 363 83 317 l 194 953 l 326 953 l 222 356 q 215 288 215 314 q 273 144 215 193 q 438 96 331 96 q 639 159 561 96 q 739 344 717 222 l 846 953 l 978 953 l 872 351 q 442 -17 807 -17 m 468 1022 l 383 1201 l 386 1206 l 521 1206 l 574 1022 l 468 1022 m 661 1022 l 576 1201 l 579 1206 l 714 1206 l 767 1022 l 661 1022 z "},"Ü":{"ha":1003,"x_min":83,"x_max":978,"o":"m 83 0 m 442 -17 q 176 58 269 -17 q 83 275 83 133 q 92 363 83 317 l 194 953 l 326 953 l 222 356 q 215 288 215 314 q 273 144 215 193 q 438 96 331 96 q 639 159 561 96 q 739 344 717 222 l 846 953 l 978 953 l 872 351 q 442 -17 807 -17 m 417 1074 l 440 1206 l 561 1206 l 538 1074 l 417 1074 m 676 1074 l 700 1206 l 821 1206 l 797 1074 l 676 1074 z "},"Ǘ":{"ha":1003,"x_min":83,"x_max":978,"o":"m 83 0 m 442 -17 q 176 58 269 -17 q 83 275 83 133 q 92 363 83 317 l 194 953 l 326 953 l 222 356 q 215 288 215 314 q 273 144 215 193 q 438 96 331 96 q 639 159 561 96 q 739 344 717 222 l 846 953 l 978 953 l 872 351 q 442 -17 807 -17 m 417 1074 l 440 1206 l 561 1206 l 538 1074 l 417 1074 m 676 1074 l 700 1206 l 821 1206 l 797 1074 l 676 1074 m 579 1254 l 729 1438 l 869 1438 l 871 1433 l 699 1254 l 579 1254 z "},"Ǚ":{"ha":1003,"x_min":83,"x_max":978,"o":"m 83 0 m 442 -17 q 176 58 269 -17 q 83 275 83 133 q 92 363 83 317 l 194 953 l 326 953 l 222 356 q 215 288 215 314 q 273 144 215 193 q 438 96 331 96 q 639 159 561 96 q 739 344 717 222 l 846 953 l 978 953 l 872 351 q 442 -17 807 -17 m 417 1074 l 440 1206 l 561 1206 l 538 1074 l 417 1074 m 676 1074 l 700 1206 l 821 1206 l 797 1074 l 676 1074 m 581 1250 l 467 1438 l 586 1438 l 649 1328 l 746 1438 l 876 1438 l 697 1250 l 581 1250 z "},"Ǜ":{"ha":1003,"x_min":83,"x_max":978,"o":"m 83 0 m 442 -17 q 176 58 269 -17 q 83 275 83 133 q 92 363 83 317 l 194 953 l 326 953 l 222 356 q 215 288 215 314 q 273 144 215 193 q 438 96 331 96 q 639 159 561 96 q 739 344 717 222 l 846 953 l 978 953 l 872 351 q 442 -17 807 -17 m 417 1074 l 440 1206 l 561 1206 l 538 1074 l 417 1074 m 676 1074 l 700 1206 l 821 1206 l 797 1074 l 676 1074 m 588 1254 l 469 1433 l 471 1438 l 604 1438 l 692 1254 l 588 1254 z "},"Ǖ":{"ha":1003,"x_min":83,"x_max":978,"o":"m 83 0 m 442 -17 q 176 58 269 -17 q 83 275 83 133 q 92 363 83 317 l 194 953 l 326 953 l 222 356 q 215 288 215 314 q 273 144 215 193 q 438 96 331 96 q 639 159 561 96 q 739 344 717 222 l 846 953 l 978 953 l 872 351 q 442 -17 807 -17 m 417 1074 l 440 1206 l 561 1206 l 538 1074 l 417 1074 m 676 1074 l 700 1206 l 821 1206 l 797 1074 l 676 1074 m 438 1304 l 456 1404 l 879 1404 l 861 1304 l 438 1304 z "},"Ụ":{"ha":1003,"x_min":83,"x_max":978,"o":"m 83 0 m 442 -17 q 176 58 269 -17 q 83 275 83 133 q 92 363 83 317 l 194 953 l 326 953 l 222 356 q 215 288 215 314 q 273 144 215 193 q 438 96 331 96 q 639 159 561 96 q 739 344 717 222 l 846 953 l 978 953 l 872 351 q 442 -17 807 -17 m 335 -240 l 358 -108 l 479 -108 l 456 -240 l 335 -240 z "},"Ù":{"ha":1003,"x_min":83,"x_max":978,"o":"m 83 0 m 442 -17 q 176 58 269 -17 q 83 275 83 133 q 92 363 83 317 l 194 953 l 326 953 l 222 356 q 215 288 215 314 q 273 144 215 193 q 438 96 331 96 q 639 159 561 96 q 739 344 717 222 l 846 953 l 978 953 l 872 351 q 442 -17 807 -17 m 546 1022 l 428 1201 l 429 1206 l 563 1206 l 650 1022 l 546 1022 z "},"Ủ":{"ha":1003,"x_min":83,"x_max":978,"o":"m 83 0 m 442 -17 q 176 58 269 -17 q 83 275 83 133 q 92 363 83 317 l 194 953 l 326 953 l 222 356 q 215 288 215 314 q 273 144 215 193 q 438 96 331 96 q 639 159 561 96 q 739 344 717 222 l 846 953 l 978 953 l 872 351 q 442 -17 807 -17 m 575 1107 l 593 1107 q 627 1115 617 1107 q 638 1138 638 1122 q 628 1153 638 1149 q 599 1157 618 1157 l 515 1157 l 525 1211 q 628 1222 574 1222 q 707 1207 674 1222 q 740 1154 740 1192 q 713 1088 740 1111 q 644 1061 685 1065 l 638 1022 l 560 1022 l 575 1107 z "},"Ư":{"ha":1003,"x_min":83,"x_max":1163,"o":"m 1163 1206 l 1150 1131 q 965 881 1122 944 l 872 351 q 442 -17 807 -17 q 176 58 269 -17 q 83 275 83 133 q 92 363 83 317 l 194 953 l 326 953 l 222 356 q 215 288 215 314 q 273 144 215 193 q 438 96 331 96 q 639 159 561 96 q 739 344 717 222 l 846 953 l 942 953 q 1044 1056 1017 982 l 983 1056 l 1010 1206 l 1163 1206 z "},"Ứ":{"ha":1003,"x_min":83,"x_max":1163,"o":"m 83 0 m 1163 1206 l 1150 1131 q 965 881 1122 944 l 872 351 q 442 -17 807 -17 q 176 58 269 -17 q 83 275 83 133 q 92 363 83 317 l 194 953 l 326 953 l 222 356 q 215 288 215 314 q 273 144 215 193 q 438 96 331 96 q 639 159 561 96 q 739 344 717 222 l 846 953 l 942 953 q 1044 1056 1017 982 l 983 1056 l 1010 1206 l 1163 1206 m 538 1022 l 688 1206 l 828 1206 l 829 1201 l 657 1022 l 538 1022 z "},"Ự":{"ha":1003,"x_min":83,"x_max":1163,"o":"m 83 0 m 1163 1206 l 1150 1131 q 965 881 1122 944 l 872 351 q 442 -17 807 -17 q 176 58 269 -17 q 83 275 83 133 q 92 363 83 317 l 194 953 l 326 953 l 222 356 q 215 288 215 314 q 273 144 215 193 q 438 96 331 96 q 639 159 561 96 q 739 344 717 222 l 846 953 l 942 953 q 1044 1056 1017 982 l 983 1056 l 1010 1206 l 1163 1206 m 335 -240 l 358 -108 l 479 -108 l 456 -240 l 335 -240 z "},"Ừ":{"ha":1003,"x_min":83,"x_max":1163,"o":"m 83 0 m 1163 1206 l 1150 1131 q 965 881 1122 944 l 872 351 q 442 -17 807 -17 q 176 58 269 -17 q 83 275 83 133 q 92 363 83 317 l 194 953 l 326 953 l 222 356 q 215 288 215 314 q 273 144 215 193 q 438 96 331 96 q 639 159 561 96 q 739 344 717 222 l 846 953 l 942 953 q 1044 1056 1017 982 l 983 1056 l 1010 1206 l 1163 1206 m 546 1022 l 428 1201 l 429 1206 l 563 1206 l 650 1022 l 546 1022 z "},"Ử":{"ha":1003,"x_min":83,"x_max":1163,"o":"m 83 0 m 1163 1206 l 1150 1131 q 965 881 1122 944 l 872 351 q 442 -17 807 -17 q 176 58 269 -17 q 83 275 83 133 q 92 363 83 317 l 194 953 l 326 953 l 222 356 q 215 288 215 314 q 273 144 215 193 q 438 96 331 96 q 639 159 561 96 q 739 344 717 222 l 846 953 l 942 953 q 1044 1056 1017 982 l 983 1056 l 1010 1206 l 1163 1206 m 575 1107 l 593 1107 q 627 1115 617 1107 q 638 1138 638 1122 q 628 1153 638 1149 q 599 1157 618 1157 l 515 1157 l 525 1211 q 628 1222 574 1222 q 707 1207 674 1222 q 740 1154 740 1192 q 713 1088 740 1111 q 644 1061 685 1065 l 638 1022 l 560 1022 l 575 1107 z "},"Ữ":{"ha":1003,"x_min":83,"x_max":1163,"o":"m 83 0 m 1163 1206 l 1150 1131 q 965 881 1122 944 l 872 351 q 442 -17 807 -17 q 176 58 269 -17 q 83 275 83 133 q 92 363 83 317 l 194 953 l 326 953 l 222 356 q 215 288 215 314 q 273 144 215 193 q 438 96 331 96 q 639 159 561 96 q 739 344 717 222 l 846 953 l 942 953 q 1044 1056 1017 982 l 983 1056 l 1010 1206 l 1163 1206 m 378 1061 q 424 1165 388 1124 q 521 1206 461 1206 q 572 1200 547 1206 q 626 1183 596 1194 q 719 1163 681 1163 q 767 1206 756 1163 l 857 1206 q 809 1102 846 1143 q 713 1061 772 1061 q 662 1067 686 1061 q 607 1083 638 1072 q 514 1104 553 1104 q 467 1061 478 1104 l 378 1061 z "},"Ű":{"ha":1003,"x_min":83,"x_max":978,"o":"m 83 0 m 442 -17 q 176 58 269 -17 q 83 275 83 133 q 92 363 83 317 l 194 953 l 326 953 l 222 356 q 215 288 215 314 q 273 144 215 193 q 438 96 331 96 q 639 159 561 96 q 739 344 717 222 l 846 953 l 978 953 l 872 351 q 442 -17 807 -17 m 443 1022 l 561 1206 l 701 1206 l 703 1201 l 554 1022 l 443 1022 m 642 1022 l 760 1206 l 900 1206 l 901 1201 l 753 1022 l 642 1022 z "},"Ȗ":{"ha":1003,"x_min":83,"x_max":978,"o":"m 83 0 m 442 -17 q 176 58 269 -17 q 83 275 83 133 q 92 363 83 317 l 194 953 l 326 953 l 222 356 q 215 288 215 314 q 273 144 215 193 q 438 96 331 96 q 639 159 561 96 q 739 344 717 222 l 846 953 l 978 953 l 872 351 q 442 -17 807 -17 m 399 1043 q 629 1206 428 1206 q 763 1166 719 1206 q 806 1068 806 1126 q 803 1043 806 1060 l 718 1043 q 697 1094 719 1072 q 614 1117 674 1117 q 483 1043 514 1117 l 399 1043 z "},"Ū":{"ha":1003,"x_min":83,"x_max":978,"o":"m 83 0 m 442 -17 q 176 58 269 -17 q 83 275 83 133 q 92 363 83 317 l 194 953 l 326 953 l 222 356 q 215 288 215 314 q 273 144 215 193 q 438 96 331 96 q 639 159 561 96 q 739 344 717 222 l 846 953 l 978 953 l 872 351 q 442 -17 807 -17 m 396 1072 l 414 1172 l 838 1172 l 819 1072 l 396 1072 z "},"Ų":{"ha":1003,"x_min":83,"x_max":978,"o":"m 458 -253 q 372 -228 408 -253 q 336 -150 336 -204 q 403 -15 336 -76 q 165 67 247 -7 q 83 275 83 142 q 92 363 83 317 l 194 953 l 326 953 l 222 356 q 215 288 215 314 q 273 144 215 193 q 438 96 331 96 q 639 159 561 96 q 739 344 717 222 l 846 953 l 978 953 l 872 351 q 497 -14 813 13 q 466 -57 478 -33 q 454 -106 454 -81 q 469 -147 454 -131 q 515 -162 483 -162 l 560 -162 l 547 -233 q 458 -253 497 -253 z "},"Ů":{"ha":1003,"x_min":83,"x_max":978,"o":"m 83 0 m 442 -17 q 176 58 269 -17 q 83 275 83 133 q 92 363 83 317 l 194 953 l 326 953 l 222 356 q 215 288 215 314 q 273 144 215 193 q 438 96 331 96 q 639 159 561 96 q 739 344 717 222 l 846 953 l 978 953 l 872 351 q 442 -17 807 -17 m 592 988 q 508 1019 540 988 q 475 1097 475 1050 q 516 1210 475 1167 q 629 1254 557 1254 q 713 1222 679 1254 q 746 1143 746 1190 q 705 1031 746 1074 q 592 988 664 988 m 600 1050 q 660 1074 638 1050 q 682 1133 682 1099 q 665 1175 682 1158 q 621 1192 649 1192 q 561 1167 583 1192 q 539 1107 539 1142 q 555 1066 539 1082 q 600 1050 571 1050 z "},"Ũ":{"ha":1003,"x_min":83,"x_max":978,"o":"m 83 0 m 442 -17 q 176 58 269 -17 q 83 275 83 133 q 92 363 83 317 l 194 953 l 326 953 l 222 356 q 215 288 215 314 q 273 144 215 193 q 438 96 331 96 q 639 159 561 96 q 739 344 717 222 l 846 953 l 978 953 l 872 351 q 442 -17 807 -17 m 378 1061 q 424 1165 388 1124 q 521 1206 461 1206 q 572 1200 547 1206 q 626 1183 596 1194 q 719 1163 681 1163 q 767 1206 756 1163 l 857 1206 q 809 1102 846 1143 q 713 1061 772 1061 q 662 1067 686 1061 q 607 1083 638 1072 q 514 1104 553 1104 q 467 1061 478 1104 l 378 1061 z "},"V":{"ha":926,"x_min":106,"x_max":988,"o":"m 106 953 l 244 953 l 376 251 l 399 132 l 406 132 l 465 243 l 847 953 l 988 953 l 465 0 l 292 0 l 106 953 z "},"W":{"ha":1311,"x_min":99,"x_max":1379,"o":"m 99 953 l 232 953 l 306 281 q 312 198 310 243 q 315 135 314 153 l 322 135 q 347 202 329 154 q 376 281 364 250 l 642 953 l 836 953 l 871 281 q 873 195 872 239 q 874 135 874 151 l 881 135 l 944 281 l 1247 953 l 1379 953 l 936 0 l 754 0 l 722 668 q 719 763 719 718 q 718 824 718 808 l 711 824 q 690 760 706 807 q 656 668 674 714 l 388 0 l 206 0 l 99 953 z "},"Ẃ":{"ha":1311,"x_min":99,"x_max":1379,"o":"m 99 0 m 99 953 l 232 953 l 306 281 q 312 198 310 243 q 315 135 314 153 l 322 135 q 347 202 329 154 q 376 281 364 250 l 642 953 l 836 953 l 871 281 q 873 195 872 239 q 874 135 874 151 l 881 135 l 944 281 l 1247 953 l 1379 953 l 936 0 l 754 0 l 722 668 q 719 763 719 718 q 718 824 718 808 l 711 824 q 690 760 706 807 q 656 668 674 714 l 388 0 l 206 0 l 99 953 m 690 1022 l 840 1206 l 981 1206 l 982 1201 l 810 1022 l 690 1022 z "},"Ŵ":{"ha":1311,"x_min":99,"x_max":1379,"o":"m 99 0 m 99 953 l 232 953 l 306 281 q 312 198 310 243 q 315 135 314 153 l 322 135 q 347 202 329 154 q 376 281 364 250 l 642 953 l 836 953 l 871 281 q 873 195 872 239 q 874 135 874 151 l 881 135 l 944 281 l 1247 953 l 1379 953 l 936 0 l 754 0 l 722 668 q 719 763 719 718 q 718 824 718 808 l 711 824 q 690 760 706 807 q 656 668 674 714 l 388 0 l 206 0 l 99 953 m 539 1018 l 718 1206 l 835 1206 l 949 1018 l 829 1018 l 769 1128 l 669 1018 l 539 1018 z "},"Ẅ":{"ha":1311,"x_min":99,"x_max":1379,"o":"m 99 0 m 99 953 l 232 953 l 306 281 q 312 198 310 243 q 315 135 314 153 l 322 135 q 347 202 329 154 q 376 281 364 250 l 642 953 l 836 953 l 871 281 q 873 195 872 239 q 874 135 874 151 l 881 135 l 944 281 l 1247 953 l 1379 953 l 936 0 l 754 0 l 722 668 q 719 763 719 718 q 718 824 718 808 l 711 824 q 690 760 706 807 q 656 668 674 714 l 388 0 l 206 0 l 99 953 m 569 1074 l 593 1206 l 714 1206 l 690 1074 l 569 1074 m 829 1074 l 853 1206 l 974 1206 l 950 1074 l 829 1074 z "},"Ẁ":{"ha":1311,"x_min":99,"x_max":1379,"o":"m 99 0 m 99 953 l 232 953 l 306 281 q 312 198 310 243 q 315 135 314 153 l 322 135 q 347 202 329 154 q 376 281 364 250 l 642 953 l 836 953 l 871 281 q 873 195 872 239 q 874 135 874 151 l 881 135 l 944 281 l 1247 953 l 1379 953 l 936 0 l 754 0 l 722 668 q 719 763 719 718 q 718 824 718 808 l 711 824 q 690 760 706 807 q 656 668 674 714 l 388 0 l 206 0 l 99 953 m 699 1022 l 581 1201 l 582 1206 l 715 1206 l 803 1022 l 699 1022 z "},"X":{"ha":926,"x_min":-76,"x_max":965,"o":"m -76 0 l 386 503 l 124 953 l 278 953 l 481 601 l 488 601 l 803 953 l 965 953 l 544 496 l 835 0 l 681 0 l 456 396 l 447 396 l 85 0 l -76 0 z "},"Y":{"ha":926,"x_min":106,"x_max":989,"o":"m 314 0 l 383 394 l 106 953 l 250 953 l 467 513 l 474 513 l 838 953 l 989 953 l 515 394 l 446 0 l 314 0 z "},"Ý":{"ha":926,"x_min":106,"x_max":989,"o":"m 106 0 m 314 0 l 383 394 l 106 953 l 250 953 l 467 513 l 474 513 l 838 953 l 989 953 l 515 394 l 446 0 l 314 0 m 496 1022 l 646 1206 l 786 1206 l 788 1201 l 615 1022 l 496 1022 z "},"Ŷ":{"ha":926,"x_min":106,"x_max":989,"o":"m 106 0 m 314 0 l 383 394 l 106 953 l 250 953 l 467 513 l 474 513 l 838 953 l 989 953 l 515 394 l 446 0 l 314 0 m 344 1018 l 524 1206 l 640 1206 l 754 1018 l 635 1018 l 575 1128 l 475 1018 l 344 1018 z "},"Ÿ":{"ha":926,"x_min":106,"x_max":989,"o":"m 106 0 m 314 0 l 383 394 l 106 953 l 250 953 l 467 513 l 474 513 l 838 953 l 989 953 l 515 394 l 446 0 l 314 0 m 375 1074 l 399 1206 l 519 1206 l 496 1074 l 375 1074 m 635 1074 l 658 1206 l 779 1206 l 756 1074 l 635 1074 z "},"Ỵ":{"ha":926,"x_min":106,"x_max":989,"o":"m 106 0 m 314 0 l 383 394 l 106 953 l 250 953 l 467 513 l 474 513 l 838 953 l 989 953 l 515 394 l 446 0 l 314 0 m 278 -240 l 301 -108 l 422 -108 l 399 -240 l 278 -240 z "},"Ỳ":{"ha":926,"x_min":106,"x_max":989,"o":"m 106 0 m 314 0 l 383 394 l 106 953 l 250 953 l 467 513 l 474 513 l 838 953 l 989 953 l 515 394 l 446 0 l 314 0 m 504 1022 l 386 1201 l 388 1206 l 521 1206 l 608 1022 l 504 1022 z "},"Ỷ":{"ha":926,"x_min":106,"x_max":989,"o":"m 106 0 m 314 0 l 383 394 l 106 953 l 250 953 l 467 513 l 474 513 l 838 953 l 989 953 l 515 394 l 446 0 l 314 0 m 533 1107 l 551 1107 q 585 1115 575 1107 q 596 1138 596 1122 q 586 1153 596 1149 q 557 1157 576 1157 l 474 1157 l 483 1211 q 586 1222 532 1222 q 665 1207 632 1222 q 699 1154 699 1192 q 671 1088 699 1111 q 603 1061 643 1065 l 596 1022 l 518 1022 l 533 1107 z "},"Ȳ":{"ha":926,"x_min":106,"x_max":989,"o":"m 106 0 m 314 0 l 383 394 l 106 953 l 250 953 l 467 513 l 474 513 l 838 953 l 989 953 l 515 394 l 446 0 l 314 0 m 354 1072 l 372 1172 l 796 1172 l 778 1072 l 354 1072 z "},"Ỹ":{"ha":926,"x_min":106,"x_max":989,"o":"m 106 0 m 314 0 l 383 394 l 106 953 l 250 953 l 467 513 l 474 513 l 838 953 l 989 953 l 515 394 l 446 0 l 314 0 m 336 1061 q 383 1165 346 1124 q 479 1206 419 1206 q 530 1200 506 1206 q 585 1183 554 1194 q 678 1163 639 1163 q 725 1206 714 1163 l 815 1206 q 767 1102 804 1143 q 671 1061 731 1061 q 620 1067 644 1061 q 565 1083 596 1072 q 472 1104 511 1104 q 425 1061 436 1104 l 336 1061 z "},"Z":{"ha":849,"x_min":-51,"x_max":889,"o":"m -51 0 l -39 68 l 660 838 l 131 838 l 151 953 l 889 953 l 876 885 l 175 115 l 754 115 l 733 0 l -51 0 z "},"Ź":{"ha":849,"x_min":-51,"x_max":889,"o":"m 0 0 m -51 0 l -39 68 l 660 838 l 131 838 l 151 953 l 889 953 l 876 885 l 175 115 l 754 115 l 733 0 l -51 0 m 485 1022 l 635 1206 l 775 1206 l 776 1201 l 604 1022 l 485 1022 z "},"Ž":{"ha":849,"x_min":-51,"x_max":889,"o":"m 0 0 m -51 0 l -39 68 l 660 838 l 131 838 l 151 953 l 889 953 l 876 885 l 175 115 l 754 115 l 733 0 l -51 0 m 486 1018 l 372 1206 l 492 1206 l 554 1096 l 651 1206 l 782 1206 l 603 1018 l 486 1018 z "},"Ż":{"ha":849,"x_min":-51,"x_max":889,"o":"m 0 0 m -51 0 l -39 68 l 660 838 l 131 838 l 151 953 l 889 953 l 876 885 l 175 115 l 754 115 l 733 0 l -51 0 m 493 1074 l 517 1206 l 638 1206 l 614 1074 l 493 1074 z "},"Ẓ":{"ha":849,"x_min":-51,"x_max":889,"o":"m 0 0 m -51 0 l -39 68 l 660 838 l 131 838 l 151 953 l 889 953 l 876 885 l 175 115 l 754 115 l 733 0 l -51 0 m 258 -240 l 282 -108 l 403 -108 l 379 -240 l 258 -240 z "},"a":{"ha":772,"x_min":29,"x_max":721,"o":"m 611 122 q 653 85 611 85 l 708 85 l 694 6 q 656 -10 681 -3 q 603 -17 632 -17 q 528 8 556 -17 q 501 82 501 32 q 503 115 501 103 l 496 115 q 394 17 458 51 q 258 -17 331 -17 q 90 51 151 -17 q 29 249 29 118 q 75 510 29 397 q 201 685 121 624 q 379 747 281 747 q 503 724 456 747 q 576 647 550 700 l 585 647 l 628 731 l 721 731 q 658 387 704 639 q 611 122 611 135 m 289 85 q 434 147 376 85 q 518 299 492 210 q 544 474 544 389 q 509 603 544 560 q 396 646 474 646 q 265 593 319 646 q 184 451 211 540 q 157 256 157 363 q 289 85 157 85 z "},"á":{"ha":772,"x_min":29,"x_max":721,"o":"m 29 0 m 611 122 q 653 85 611 85 l 708 85 l 694 6 q 656 -10 681 -3 q 603 -17 632 -17 q 528 8 556 -17 q 501 82 501 32 q 503 115 501 103 l 496 115 q 394 17 458 51 q 258 -17 331 -17 q 90 51 151 -17 q 29 249 29 118 q 75 510 29 397 q 201 685 121 624 q 379 747 281 747 q 503 724 456 747 q 576 647 550 700 l 585 647 l 628 731 l 721 731 q 658 387 704 639 q 611 122 611 135 m 289 85 q 434 147 376 85 q 518 299 492 210 q 544 474 544 389 q 509 603 544 560 q 396 646 474 646 q 265 593 319 646 q 184 451 211 540 q 157 256 157 363 q 289 85 157 85 m 379 821 l 529 1004 l 669 1004 l 671 1000 l 499 821 l 379 821 z "},"ă":{"ha":772,"x_min":29,"x_max":721,"o":"m 29 0 m 611 122 q 653 85 611 85 l 708 85 l 694 6 q 656 -10 681 -3 q 603 -17 632 -17 q 528 8 556 -17 q 501 82 501 32 q 503 115 501 103 l 496 115 q 394 17 458 51 q 258 -17 331 -17 q 90 51 151 -17 q 29 249 29 118 q 75 510 29 397 q 201 685 121 624 q 379 747 281 747 q 503 724 456 747 q 576 647 550 700 l 585 647 l 628 731 l 721 731 q 658 387 704 639 q 611 122 611 135 m 289 85 q 434 147 376 85 q 518 299 492 210 q 544 474 544 389 q 509 603 544 560 q 396 646 474 646 q 265 593 319 646 q 184 451 211 540 q 157 256 157 363 q 289 85 157 85 m 440 842 q 298 878 342 842 q 254 972 254 915 q 257 1004 254 993 l 342 1004 q 363 952 343 974 q 439 931 382 931 q 533 953 499 931 q 576 1004 568 976 l 661 1004 q 638 942 656 972 q 590 889 619 911 q 440 842 529 842 z "},"ắ":{"ha":772,"x_min":29,"x_max":721,"o":"m 29 0 m 611 122 q 653 85 611 85 l 708 85 l 694 6 q 656 -10 681 -3 q 603 -17 632 -17 q 528 8 556 -17 q 501 82 501 32 q 503 115 501 103 l 496 115 q 394 17 458 51 q 258 -17 331 -17 q 90 51 151 -17 q 29 249 29 118 q 75 510 29 397 q 201 685 121 624 q 379 747 281 747 q 503 724 456 747 q 576 647 550 700 l 585 647 l 628 731 l 721 731 q 658 387 704 639 q 611 122 611 135 m 289 85 q 434 147 376 85 q 518 299 492 210 q 544 474 544 389 q 509 603 544 560 q 396 646 474 646 q 265 593 319 646 q 184 451 211 540 q 157 256 157 363 q 289 85 157 85 m 440 842 q 298 878 342 842 q 254 972 254 915 q 257 1004 254 993 l 342 1004 q 363 952 343 974 q 439 931 382 931 q 533 953 499 931 q 576 1004 568 976 l 661 1004 q 638 942 656 972 q 590 889 619 911 q 440 842 529 842 m 388 1004 l 538 1188 l 678 1188 l 679 1183 l 507 1004 l 388 1004 z "},"ặ":{"ha":772,"x_min":29,"x_max":721,"o":"m 29 0 m 611 122 q 653 85 611 85 l 708 85 l 694 6 q 656 -10 681 -3 q 603 -17 632 -17 q 528 8 556 -17 q 501 82 501 32 q 503 115 501 103 l 496 115 q 394 17 458 51 q 258 -17 331 -17 q 90 51 151 -17 q 29 249 29 118 q 75 510 29 397 q 201 685 121 624 q 379 747 281 747 q 503 724 456 747 q 576 647 550 700 l 585 647 l 628 731 l 721 731 q 658 387 704 639 q 611 122 611 135 m 289 85 q 434 147 376 85 q 518 299 492 210 q 544 474 544 389 q 509 603 544 560 q 396 646 474 646 q 265 593 319 646 q 184 451 211 540 q 157 256 157 363 q 289 85 157 85 m 440 842 q 298 878 342 842 q 254 972 254 915 q 257 1004 254 993 l 342 1004 q 363 952 343 974 q 439 931 382 931 q 533 953 499 931 q 576 1004 568 976 l 661 1004 q 638 942 656 972 q 590 889 619 911 q 440 842 529 842 m 188 -240 l 211 -108 l 332 -108 l 308 -240 l 188 -240 z "},"ằ":{"ha":772,"x_min":29,"x_max":721,"o":"m 29 0 m 611 122 q 653 85 611 85 l 708 85 l 694 6 q 656 -10 681 -3 q 603 -17 632 -17 q 528 8 556 -17 q 501 82 501 32 q 503 115 501 103 l 496 115 q 394 17 458 51 q 258 -17 331 -17 q 90 51 151 -17 q 29 249 29 118 q 75 510 29 397 q 201 685 121 624 q 379 747 281 747 q 503 724 456 747 q 576 647 550 700 l 585 647 l 628 731 l 721 731 q 658 387 704 639 q 611 122 611 135 m 289 85 q 434 147 376 85 q 518 299 492 210 q 544 474 544 389 q 509 603 544 560 q 396 646 474 646 q 265 593 319 646 q 184 451 211 540 q 157 256 157 363 q 289 85 157 85 m 440 842 q 298 878 342 842 q 254 972 254 915 q 257 1004 254 993 l 342 1004 q 363 952 343 974 q 439 931 382 931 q 533 953 499 931 q 576 1004 568 976 l 661 1004 q 638 942 656 972 q 590 889 619 911 q 440 842 529 842 m 411 1004 l 293 1183 l 294 1188 l 428 1188 l 515 1004 l 411 1004 z "},"ẳ":{"ha":772,"x_min":29,"x_max":721,"o":"m 29 0 m 611 122 q 653 85 611 85 l 708 85 l 694 6 q 656 -10 681 -3 q 603 -17 632 -17 q 528 8 556 -17 q 501 82 501 32 q 503 115 501 103 l 496 115 q 394 17 458 51 q 258 -17 331 -17 q 90 51 151 -17 q 29 249 29 118 q 75 510 29 397 q 201 685 121 624 q 379 747 281 747 q 503 724 456 747 q 576 647 550 700 l 585 647 l 628 731 l 721 731 q 658 387 704 639 q 611 122 611 135 m 289 85 q 434 147 376 85 q 518 299 492 210 q 544 474 544 389 q 509 603 544 560 q 396 646 474 646 q 265 593 319 646 q 184 451 211 540 q 157 256 157 363 q 289 85 157 85 m 440 842 q 298 878 342 842 q 254 972 254 915 q 257 1004 254 993 l 342 1004 q 363 952 343 974 q 439 931 382 931 q 533 953 499 931 q 576 1004 568 976 l 661 1004 q 638 942 656 972 q 590 889 619 911 q 440 842 529 842 m 424 1089 l 442 1089 q 476 1097 465 1089 q 486 1119 486 1104 q 476 1135 486 1131 q 447 1139 467 1139 l 364 1139 l 374 1193 q 476 1204 422 1204 q 556 1189 522 1204 q 589 1136 589 1174 q 561 1070 589 1093 q 493 1043 533 1047 l 486 1004 l 408 1004 l 424 1089 z "},"ẵ":{"ha":772,"x_min":29,"x_max":721,"o":"m 29 0 m 611 122 q 653 85 611 85 l 708 85 l 694 6 q 656 -10 681 -3 q 603 -17 632 -17 q 528 8 556 -17 q 501 82 501 32 q 503 115 501 103 l 496 115 q 394 17 458 51 q 258 -17 331 -17 q 90 51 151 -17 q 29 249 29 118 q 75 510 29 397 q 201 685 121 624 q 379 747 281 747 q 503 724 456 747 q 576 647 550 700 l 585 647 l 628 731 l 721 731 q 658 387 704 639 q 611 122 611 135 m 289 85 q 434 147 376 85 q 518 299 492 210 q 544 474 544 389 q 509 603 544 560 q 396 646 474 646 q 265 593 319 646 q 184 451 211 540 q 157 256 157 363 q 289 85 157 85 m 440 842 q 298 878 342 842 q 254 972 254 915 q 257 1004 254 993 l 342 1004 q 363 952 343 974 q 439 931 382 931 q 533 953 499 931 q 576 1004 568 976 l 661 1004 q 638 942 656 972 q 590 889 619 911 q 440 842 529 842 m 236 1082 q 283 1185 246 1144 q 379 1226 319 1226 q 430 1221 406 1226 q 485 1204 454 1215 q 578 1183 539 1183 q 625 1226 614 1183 l 715 1226 q 667 1123 704 1164 q 571 1082 631 1082 q 520 1088 544 1082 q 465 1104 496 1093 q 372 1125 411 1125 q 325 1082 336 1125 l 236 1082 z "},"ǎ":{"ha":772,"x_min":29,"x_max":721,"o":"m 29 0 m 611 122 q 653 85 611 85 l 708 85 l 694 6 q 656 -10 681 -3 q 603 -17 632 -17 q 528 8 556 -17 q 501 82 501 32 q 503 115 501 103 l 496 115 q 394 17 458 51 q 258 -17 331 -17 q 90 51 151 -17 q 29 249 29 118 q 75 510 29 397 q 201 685 121 624 q 379 747 281 747 q 503 724 456 747 q 576 647 550 700 l 585 647 l 628 731 l 721 731 q 658 387 704 639 q 611 122 611 135 m 289 85 q 434 147 376 85 q 518 299 492 210 q 544 474 544 389 q 509 603 544 560 q 396 646 474 646 q 265 593 319 646 q 184 451 211 540 q 157 256 157 363 q 289 85 157 85 m 381 817 l 267 1004 l 386 1004 l 449 894 l 546 1004 l 676 1004 l 497 817 l 381 817 z "},"â":{"ha":772,"x_min":29,"x_max":721,"o":"m 29 0 m 611 122 q 653 85 611 85 l 708 85 l 694 6 q 656 -10 681 -3 q 603 -17 632 -17 q 528 8 556 -17 q 501 82 501 32 q 503 115 501 103 l 496 115 q 394 17 458 51 q 258 -17 331 -17 q 90 51 151 -17 q 29 249 29 118 q 75 510 29 397 q 201 685 121 624 q 379 747 281 747 q 503 724 456 747 q 576 647 550 700 l 585 647 l 628 731 l 721 731 q 658 387 704 639 q 611 122 611 135 m 289 85 q 434 147 376 85 q 518 299 492 210 q 544 474 544 389 q 509 603 544 560 q 396 646 474 646 q 265 593 319 646 q 184 451 211 540 q 157 256 157 363 q 289 85 157 85 m 228 817 l 407 1004 l 524 1004 l 638 817 l 518 817 l 458 926 l 358 817 l 228 817 z "},"ấ":{"ha":772,"x_min":29,"x_max":867,"o":"m 29 0 m 611 122 q 653 85 611 85 l 708 85 l 694 6 q 656 -10 681 -3 q 603 -17 632 -17 q 528 8 556 -17 q 501 82 501 32 q 503 115 501 103 l 496 115 q 394 17 458 51 q 258 -17 331 -17 q 90 51 151 -17 q 29 249 29 118 q 75 510 29 397 q 201 685 121 624 q 379 747 281 747 q 503 724 456 747 q 576 647 550 700 l 585 647 l 628 731 l 721 731 q 658 387 704 639 q 611 122 611 135 m 289 85 q 434 147 376 85 q 518 299 492 210 q 544 474 544 389 q 509 603 544 560 q 396 646 474 646 q 265 593 319 646 q 184 451 211 540 q 157 256 157 363 q 289 85 157 85 m 228 817 l 407 1004 l 524 1004 l 638 817 l 518 817 l 458 926 l 358 817 l 228 817 m 575 953 l 725 1136 l 865 1136 l 867 1132 l 694 953 l 575 953 z "},"ậ":{"ha":772,"x_min":29,"x_max":721,"o":"m 29 0 m 611 122 q 653 85 611 85 l 708 85 l 694 6 q 656 -10 681 -3 q 603 -17 632 -17 q 528 8 556 -17 q 501 82 501 32 q 503 115 501 103 l 496 115 q 394 17 458 51 q 258 -17 331 -17 q 90 51 151 -17 q 29 249 29 118 q 75 510 29 397 q 201 685 121 624 q 379 747 281 747 q 503 724 456 747 q 576 647 550 700 l 585 647 l 628 731 l 721 731 q 658 387 704 639 q 611 122 611 135 m 289 85 q 434 147 376 85 q 518 299 492 210 q 544 474 544 389 q 509 603 544 560 q 396 646 474 646 q 265 593 319 646 q 184 451 211 540 q 157 256 157 363 q 289 85 157 85 m 228 817 l 407 1004 l 524 1004 l 638 817 l 518 817 l 458 926 l 358 817 l 228 817 m 188 -240 l 211 -108 l 332 -108 l 308 -240 l 188 -240 z "},"ầ":{"ha":772,"x_min":29,"x_max":742,"o":"m 29 0 m 611 122 q 653 85 611 85 l 708 85 l 694 6 q 656 -10 681 -3 q 603 -17 632 -17 q 528 8 556 -17 q 501 82 501 32 q 503 115 501 103 l 496 115 q 394 17 458 51 q 258 -17 331 -17 q 90 51 151 -17 q 29 249 29 118 q 75 510 29 397 q 201 685 121 624 q 379 747 281 747 q 503 724 456 747 q 576 647 550 700 l 585 647 l 628 731 l 721 731 q 658 387 704 639 q 611 122 611 135 m 289 85 q 434 147 376 85 q 518 299 492 210 q 544 474 544 389 q 509 603 544 560 q 396 646 474 646 q 265 593 319 646 q 184 451 211 540 q 157 256 157 363 q 289 85 157 85 m 228 817 l 407 1004 l 524 1004 l 638 817 l 518 817 l 458 926 l 358 817 l 228 817 m 638 953 l 519 1132 l 521 1136 l 654 1136 l 742 953 l 638 953 z "},"ẩ":{"ha":772,"x_min":29,"x_max":776,"o":"m 29 0 m 611 122 q 653 85 611 85 l 708 85 l 694 6 q 656 -10 681 -3 q 603 -17 632 -17 q 528 8 556 -17 q 501 82 501 32 q 503 115 501 103 l 496 115 q 394 17 458 51 q 258 -17 331 -17 q 90 51 151 -17 q 29 249 29 118 q 75 510 29 397 q 201 685 121 624 q 379 747 281 747 q 503 724 456 747 q 576 647 550 700 l 585 647 l 628 731 l 721 731 q 658 387 704 639 q 611 122 611 135 m 289 85 q 434 147 376 85 q 518 299 492 210 q 544 474 544 389 q 509 603 544 560 q 396 646 474 646 q 265 593 319 646 q 184 451 211 540 q 157 256 157 363 q 289 85 157 85 m 228 817 l 407 1004 l 524 1004 l 638 817 l 518 817 l 458 926 l 358 817 l 228 817 m 611 1038 l 629 1038 q 663 1045 653 1038 q 674 1068 674 1053 q 664 1083 674 1079 q 635 1088 654 1088 l 551 1088 l 561 1142 q 664 1153 610 1153 q 743 1138 710 1153 q 776 1085 776 1122 q 749 1019 776 1042 q 681 992 721 996 l 674 953 l 596 953 l 611 1038 z "},"ẫ":{"ha":772,"x_min":29,"x_max":733,"o":"m 29 0 m 611 122 q 653 85 611 85 l 708 85 l 694 6 q 656 -10 681 -3 q 603 -17 632 -17 q 528 8 556 -17 q 501 82 501 32 q 503 115 501 103 l 496 115 q 394 17 458 51 q 258 -17 331 -17 q 90 51 151 -17 q 29 249 29 118 q 75 510 29 397 q 201 685 121 624 q 379 747 281 747 q 503 724 456 747 q 576 647 550 700 l 585 647 l 628 731 l 721 731 q 658 387 704 639 q 611 122 611 135 m 289 85 q 434 147 376 85 q 518 299 492 210 q 544 474 544 389 q 509 603 544 560 q 396 646 474 646 q 265 593 319 646 q 184 451 211 540 q 157 256 157 363 q 289 85 157 85 m 228 817 l 407 1004 l 524 1004 l 638 817 l 518 817 l 458 926 l 358 817 l 228 817 m 254 1082 q 301 1185 264 1144 q 397 1226 338 1226 q 448 1221 424 1226 q 503 1204 472 1215 q 596 1183 557 1183 q 643 1226 632 1183 l 733 1226 q 685 1123 722 1164 q 589 1082 649 1082 q 538 1088 563 1082 q 483 1104 514 1093 q 390 1125 429 1125 q 343 1082 354 1125 l 254 1082 z "},"ȁ":{"ha":772,"x_min":29,"x_max":721,"o":"m 29 0 m 611 122 q 653 85 611 85 l 708 85 l 694 6 q 656 -10 681 -3 q 603 -17 632 -17 q 528 8 556 -17 q 501 82 501 32 q 503 115 501 103 l 496 115 q 394 17 458 51 q 258 -17 331 -17 q 90 51 151 -17 q 29 249 29 118 q 75 510 29 397 q 201 685 121 624 q 379 747 281 747 q 503 724 456 747 q 576 647 550 700 l 585 647 l 628 731 l 721 731 q 658 387 704 639 q 611 122 611 135 m 289 85 q 434 147 376 85 q 518 299 492 210 q 544 474 544 389 q 509 603 544 560 q 396 646 474 646 q 265 593 319 646 q 184 451 211 540 q 157 256 157 363 q 289 85 157 85 m 310 821 l 225 1000 l 228 1004 l 363 1004 l 415 821 l 310 821 m 503 821 l 418 1000 l 421 1004 l 556 1004 l 608 821 l 503 821 z "},"ä":{"ha":772,"x_min":29,"x_max":721,"o":"m 29 0 m 611 122 q 653 85 611 85 l 708 85 l 694 6 q 656 -10 681 -3 q 603 -17 632 -17 q 528 8 556 -17 q 501 82 501 32 q 503 115 501 103 l 496 115 q 394 17 458 51 q 258 -17 331 -17 q 90 51 151 -17 q 29 249 29 118 q 75 510 29 397 q 201 685 121 624 q 379 747 281 747 q 503 724 456 747 q 576 647 550 700 l 585 647 l 628 731 l 721 731 q 658 387 704 639 q 611 122 611 135 m 289 85 q 434 147 376 85 q 518 299 492 210 q 544 474 544 389 q 509 603 544 560 q 396 646 474 646 q 265 593 319 646 q 184 451 211 540 q 157 256 157 363 q 289 85 157 85 m 258 872 l 282 1004 l 403 1004 l 379 872 l 258 872 m 518 872 l 542 1004 l 663 1004 l 639 872 l 518 872 z "},"ạ":{"ha":772,"x_min":29,"x_max":721,"o":"m 29 0 m 611 122 q 653 85 611 85 l 708 85 l 694 6 q 656 -10 681 -3 q 603 -17 632 -17 q 528 8 556 -17 q 501 82 501 32 q 503 115 501 103 l 496 115 q 394 17 458 51 q 258 -17 331 -17 q 90 51 151 -17 q 29 249 29 118 q 75 510 29 397 q 201 685 121 624 q 379 747 281 747 q 503 724 456 747 q 576 647 550 700 l 585 647 l 628 731 l 721 731 q 658 387 704 639 q 611 122 611 135 m 289 85 q 434 147 376 85 q 518 299 492 210 q 544 474 544 389 q 509 603 544 560 q 396 646 474 646 q 265 593 319 646 q 184 451 211 540 q 157 256 157 363 q 289 85 157 85 m 188 -240 l 211 -108 l 332 -108 l 308 -240 l 188 -240 z "},"à":{"ha":772,"x_min":29,"x_max":721,"o":"m 29 0 m 611 122 q 653 85 611 85 l 708 85 l 694 6 q 656 -10 681 -3 q 603 -17 632 -17 q 528 8 556 -17 q 501 82 501 32 q 503 115 501 103 l 496 115 q 394 17 458 51 q 258 -17 331 -17 q 90 51 151 -17 q 29 249 29 118 q 75 510 29 397 q 201 685 121 624 q 379 747 281 747 q 503 724 456 747 q 576 647 550 700 l 585 647 l 628 731 l 721 731 q 658 387 704 639 q 611 122 611 135 m 289 85 q 434 147 376 85 q 518 299 492 210 q 544 474 544 389 q 509 603 544 560 q 396 646 474 646 q 265 593 319 646 q 184 451 211 540 q 157 256 157 363 q 289 85 157 85 m 388 821 l 269 1000 l 271 1004 l 404 1004 l 492 821 l 388 821 z "},"ả":{"ha":772,"x_min":29,"x_max":721,"o":"m 29 0 m 611 122 q 653 85 611 85 l 708 85 l 694 6 q 656 -10 681 -3 q 603 -17 632 -17 q 528 8 556 -17 q 501 82 501 32 q 503 115 501 103 l 496 115 q 394 17 458 51 q 258 -17 331 -17 q 90 51 151 -17 q 29 249 29 118 q 75 510 29 397 q 201 685 121 624 q 379 747 281 747 q 503 724 456 747 q 576 647 550 700 l 585 647 l 628 731 l 721 731 q 658 387 704 639 q 611 122 611 135 m 289 85 q 434 147 376 85 q 518 299 492 210 q 544 474 544 389 q 509 603 544 560 q 396 646 474 646 q 265 593 319 646 q 184 451 211 540 q 157 256 157 363 q 289 85 157 85 m 417 906 l 435 906 q 469 913 458 906 q 479 936 479 921 q 469 951 479 947 q 440 956 460 956 l 357 956 l 367 1010 q 469 1021 415 1021 q 549 1006 515 1021 q 582 953 582 990 q 554 887 582 910 q 486 860 526 864 l 479 821 l 401 821 l 417 906 z "},"ȃ":{"ha":772,"x_min":29,"x_max":721,"o":"m 29 0 m 611 122 q 653 85 611 85 l 708 85 l 694 6 q 656 -10 681 -3 q 603 -17 632 -17 q 528 8 556 -17 q 501 82 501 32 q 503 115 501 103 l 496 115 q 394 17 458 51 q 258 -17 331 -17 q 90 51 151 -17 q 29 249 29 118 q 75 510 29 397 q 201 685 121 624 q 379 747 281 747 q 503 724 456 747 q 576 647 550 700 l 585 647 l 628 731 l 721 731 q 658 387 704 639 q 611 122 611 135 m 289 85 q 434 147 376 85 q 518 299 492 210 q 544 474 544 389 q 509 603 544 560 q 396 646 474 646 q 265 593 319 646 q 184 451 211 540 q 157 256 157 363 q 289 85 157 85 m 240 842 q 471 1004 269 1004 q 604 965 561 1004 q 647 867 647 925 q 644 842 647 858 l 560 842 q 538 893 561 871 q 456 915 515 915 q 325 842 356 915 l 240 842 z "},"ā":{"ha":772,"x_min":29,"x_max":721,"o":"m 29 0 m 611 122 q 653 85 611 85 l 708 85 l 694 6 q 656 -10 681 -3 q 603 -17 632 -17 q 528 8 556 -17 q 501 82 501 32 q 503 115 501 103 l 496 115 q 394 17 458 51 q 258 -17 331 -17 q 90 51 151 -17 q 29 249 29 118 q 75 510 29 397 q 201 685 121 624 q 379 747 281 747 q 503 724 456 747 q 576 647 550 700 l 585 647 l 628 731 l 721 731 q 658 387 704 639 q 611 122 611 135 m 289 85 q 434 147 376 85 q 518 299 492 210 q 544 474 544 389 q 509 603 544 560 q 396 646 474 646 q 265 593 319 646 q 184 451 211 540 q 157 256 157 363 q 289 85 157 85 m 238 871 l 256 971 l 679 971 l 661 871 l 238 871 z "},"ą":{"ha":772,"x_min":29,"x_max":721,"o":"m 604 122 q 646 85 604 85 l 701 85 l 688 6 q 593 -36 633 -11 q 553 -106 553 -61 q 566 -147 553 -132 q 614 -162 579 -162 l 658 -162 l 646 -233 q 557 -253 596 -253 q 471 -228 507 -253 q 435 -150 435 -204 q 463 -67 435 -101 q 542 -6 490 -33 q 494 82 494 15 q 496 115 494 103 l 489 115 q 390 17 453 51 q 258 -17 328 -17 q 90 51 151 -17 q 29 249 29 118 q 75 510 29 397 q 201 685 121 624 q 379 747 281 747 q 503 724 456 747 q 576 647 550 700 l 585 647 l 628 731 l 721 731 q 653 387 703 639 q 604 122 604 135 m 289 85 q 433 154 375 85 q 517 316 490 224 q 544 474 544 408 q 509 603 544 560 q 396 646 474 646 q 265 593 319 646 q 184 451 211 540 q 157 256 157 363 q 289 85 157 85 z "},"å":{"ha":772,"x_min":29,"x_max":721,"o":"m 29 0 m 611 122 q 653 85 611 85 l 708 85 l 694 6 q 656 -10 681 -3 q 603 -17 632 -17 q 528 8 556 -17 q 501 82 501 32 q 503 115 501 103 l 496 115 q 394 17 458 51 q 258 -17 331 -17 q 90 51 151 -17 q 29 249 29 118 q 75 510 29 397 q 201 685 121 624 q 379 747 281 747 q 503 724 456 747 q 576 647 550 700 l 585 647 l 628 731 l 721 731 q 658 387 704 639 q 611 122 611 135 m 289 85 q 434 147 376 85 q 518 299 492 210 q 544 474 544 389 q 509 603 544 560 q 396 646 474 646 q 265 593 319 646 q 184 451 211 540 q 157 256 157 363 q 289 85 157 85 m 433 786 q 349 817 382 786 q 317 896 317 849 q 358 1009 317 965 q 471 1053 399 1053 q 554 1021 521 1053 q 588 942 588 989 q 547 829 588 872 q 433 786 506 786 m 442 849 q 501 873 479 849 q 524 932 524 897 q 507 974 524 957 q 463 990 490 990 q 403 965 425 990 q 381 906 381 940 q 397 865 381 881 q 442 849 413 849 z "},"ǻ":{"ha":772,"x_min":29,"x_max":721,"o":"m 29 0 m 611 122 q 653 85 611 85 l 708 85 l 694 6 q 656 -10 681 -3 q 603 -17 632 -17 q 528 8 556 -17 q 501 82 501 32 q 503 115 501 103 l 496 115 q 394 17 458 51 q 258 -17 331 -17 q 90 51 151 -17 q 29 249 29 118 q 75 510 29 397 q 201 685 121 624 q 379 747 281 747 q 503 724 456 747 q 576 647 550 700 l 585 647 l 628 731 l 721 731 q 658 387 704 639 q 611 122 611 135 m 289 85 q 434 147 376 85 q 518 299 492 210 q 544 474 544 389 q 509 603 544 560 q 396 646 474 646 q 265 593 319 646 q 184 451 211 540 q 157 256 157 363 q 289 85 157 85 m 433 786 q 349 817 382 786 q 317 896 317 849 q 358 1009 317 965 q 471 1053 399 1053 q 554 1021 521 1053 q 588 942 588 989 q 547 829 588 872 q 433 786 506 786 m 442 849 q 501 873 479 849 q 524 932 524 897 q 507 974 524 957 q 463 990 490 990 q 403 965 425 990 q 381 906 381 940 q 397 865 381 881 q 442 849 413 849 m 419 1085 l 569 1268 l 710 1268 l 711 1264 l 539 1085 l 419 1085 z "},"ã":{"ha":772,"x_min":29,"x_max":721,"o":"m 29 0 m 611 122 q 653 85 611 85 l 708 85 l 694 6 q 656 -10 681 -3 q 603 -17 632 -17 q 528 8 556 -17 q 501 82 501 32 q 503 115 501 103 l 496 115 q 394 17 458 51 q 258 -17 331 -17 q 90 51 151 -17 q 29 249 29 118 q 75 510 29 397 q 201 685 121 624 q 379 747 281 747 q 503 724 456 747 q 576 647 550 700 l 585 647 l 628 731 l 721 731 q 658 387 704 639 q 611 122 611 135 m 289 85 q 434 147 376 85 q 518 299 492 210 q 544 474 544 389 q 509 603 544 560 q 396 646 474 646 q 265 593 319 646 q 184 451 211 540 q 157 256 157 363 q 289 85 157 85 m 219 860 q 266 963 229 922 q 363 1004 303 1004 q 413 999 389 1004 q 468 982 438 993 q 561 961 522 961 q 608 1004 597 961 l 699 1004 q 651 901 688 942 q 554 860 614 860 q 503 865 528 860 q 449 882 479 871 q 356 903 394 903 q 308 860 319 903 l 219 860 z "},"æ":{"ha":1235,"x_min":-7,"x_max":1176,"o":"m 231 -17 q 63 21 133 -17 q -7 161 -7 58 q 138 375 -7 317 q 529 433 282 433 l 543 514 q 546 549 546 539 q 512 621 546 596 q 397 646 478 646 q 265 613 308 646 q 211 531 221 581 l 208 514 l 90 514 q 134 640 90 588 q 251 720 178 693 q 413 747 324 747 q 643 654 585 747 q 897 747 740 747 q 1104 683 1032 747 q 1176 496 1176 619 q 1165 393 1176 453 l 1154 332 l 639 332 q 635 279 635 313 q 681 133 635 181 q 822 85 726 85 q 953 125 899 85 q 1021 249 1008 165 l 1140 249 q 1033 52 1121 121 q 825 -17 946 -17 q 542 113 607 -17 q 401 15 481 46 q 231 -17 321 -17 m 1047 433 q 1053 488 1053 453 q 893 646 1053 646 q 741 591 801 646 q 657 433 681 536 l 1047 433 m 253 85 q 360 108 306 85 q 453 175 414 131 q 503 279 493 219 l 511 332 q 221 298 318 332 q 124 168 124 264 q 156 104 124 124 q 253 85 189 85 z "},"ǽ":{"ha":1235,"x_min":-7,"x_max":1176,"o":"m 0 0 m 231 -17 q 63 21 133 -17 q -7 161 -7 58 q 138 375 -7 317 q 529 433 282 433 l 543 514 q 546 549 546 539 q 512 621 546 596 q 397 646 478 646 q 265 613 308 646 q 211 531 221 581 l 208 514 l 90 514 q 134 640 90 588 q 251 720 178 693 q 413 747 324 747 q 643 654 585 747 q 897 747 740 747 q 1104 683 1032 747 q 1176 496 1176 619 q 1165 393 1176 453 l 1154 332 l 639 332 q 635 279 635 313 q 681 133 635 181 q 822 85 726 85 q 953 125 899 85 q 1021 249 1008 165 l 1140 249 q 1033 52 1121 121 q 825 -17 946 -17 q 542 113 607 -17 q 401 15 481 46 q 231 -17 321 -17 m 1047 433 q 1053 488 1053 453 q 893 646 1053 646 q 741 591 801 646 q 657 433 681 536 l 1047 433 m 253 85 q 360 108 306 85 q 453 175 414 131 q 503 279 493 219 l 511 332 q 221 298 318 332 q 124 168 124 264 q 156 104 124 124 q 253 85 189 85 m 638 821 l 788 1004 l 928 1004 l 929 1000 l 757 821 l 638 821 z "},"b":{"ha":772,"x_min":18,"x_max":719,"o":"m 371 -17 q 236 13 293 -17 q 150 99 179 42 l 142 99 l 110 0 l 18 0 l 194 1004 l 317 1004 l 254 647 l 263 647 q 489 747 354 747 q 659 681 599 747 q 719 482 719 615 q 676 222 719 335 q 553 46 632 108 q 371 -17 474 -17 m 344 85 q 529 196 465 85 q 593 478 593 307 q 557 607 593 568 q 443 646 521 646 q 308 592 364 646 q 223 453 251 539 q 194 269 194 367 q 231 131 194 178 q 344 85 267 85 z "},"c":{"ha":694,"x_min":29,"x_max":661,"o":"m 311 -17 q 97 53 164 -17 q 29 268 29 122 q 66 501 29 393 q 185 678 103 610 q 393 747 267 747 q 598 684 535 747 q 661 511 661 621 q 658 460 661 493 l 533 460 q 535 500 535 474 q 505 607 535 568 q 397 646 475 646 q 242 575 297 646 q 167 394 186 504 q 157 275 157 338 q 194 129 157 174 q 307 85 232 85 q 443 138 393 85 q 508 271 493 192 l 626 271 q 526 64 606 144 q 311 -17 447 -17 z "},"ć":{"ha":694,"x_min":29,"x_max":661,"o":"m 29 0 m 311 -17 q 97 53 164 -17 q 29 268 29 122 q 66 501 29 393 q 185 678 103 610 q 393 747 267 747 q 598 684 535 747 q 661 511 661 621 q 658 460 661 493 l 533 460 q 535 500 535 474 q 505 607 535 568 q 397 646 475 646 q 242 575 297 646 q 167 394 186 504 q 157 275 157 338 q 194 129 157 174 q 307 85 232 85 q 443 138 393 85 q 508 271 493 192 l 626 271 q 526 64 606 144 q 311 -17 447 -17 m 367 821 l 517 1004 l 657 1004 l 658 1000 l 486 821 l 367 821 z "},"č":{"ha":694,"x_min":29,"x_max":664,"o":"m 29 0 m 311 -17 q 97 53 164 -17 q 29 268 29 122 q 66 501 29 393 q 185 678 103 610 q 393 747 267 747 q 598 684 535 747 q 661 511 661 621 q 658 460 661 493 l 533 460 q 535 500 535 474 q 505 607 535 568 q 397 646 475 646 q 242 575 297 646 q 167 394 186 504 q 157 275 157 338 q 194 129 157 174 q 307 85 232 85 q 443 138 393 85 q 508 271 493 192 l 626 271 q 526 64 606 144 q 311 -17 447 -17 m 368 817 l 254 1004 l 374 1004 l 436 894 l 533 1004 l 664 1004 l 485 817 l 368 817 z "},"ç":{"ha":694,"x_min":29,"x_max":661,"o":"m 533 460 q 535 500 535 474 q 505 607 535 568 q 397 646 475 646 q 242 575 297 646 q 167 394 186 504 q 157 275 157 338 q 194 129 157 174 q 307 85 232 85 q 443 138 393 85 q 508 271 493 192 l 626 271 q 528 65 606 146 q 318 -17 451 -15 l 306 -50 q 388 -70 356 -50 q 419 -131 419 -90 q 247 -253 419 -253 q 104 -242 167 -253 l 117 -174 l 256 -174 q 302 -165 286 -174 q 318 -132 318 -156 q 307 -113 318 -119 q 269 -107 296 -107 l 199 -107 l 233 -11 q 78 74 128 6 q 29 268 29 143 q 66 501 29 393 q 185 678 103 610 q 393 747 267 747 q 598 684 535 747 q 661 511 661 621 q 658 460 661 493 l 533 460 z "},"ĉ":{"ha":694,"x_min":29,"x_max":661,"o":"m 29 0 m 311 -17 q 97 53 164 -17 q 29 268 29 122 q 66 501 29 393 q 185 678 103 610 q 393 747 267 747 q 598 684 535 747 q 661 511 661 621 q 658 460 661 493 l 533 460 q 535 500 535 474 q 505 607 535 568 q 397 646 475 646 q 242 575 297 646 q 167 394 186 504 q 157 275 157 338 q 194 129 157 174 q 307 85 232 85 q 443 138 393 85 q 508 271 493 192 l 626 271 q 526 64 606 144 q 311 -17 447 -17 m 215 817 l 394 1004 l 511 1004 l 625 817 l 506 817 l 446 926 l 346 817 l 215 817 z "},"ċ":{"ha":694,"x_min":29,"x_max":661,"o":"m 29 0 m 311 -17 q 97 53 164 -17 q 29 268 29 122 q 66 501 29 393 q 185 678 103 610 q 393 747 267 747 q 598 684 535 747 q 661 511 661 621 q 658 460 661 493 l 533 460 q 535 500 535 474 q 505 607 535 568 q 397 646 475 646 q 242 575 297 646 q 167 394 186 504 q 157 275 157 338 q 194 129 157 174 q 307 85 232 85 q 443 138 393 85 q 508 271 493 192 l 626 271 q 526 64 606 144 q 311 -17 447 -17 m 375 872 l 399 1004 l 519 1004 l 496 872 l 375 872 z "},"d":{"ha":772,"x_min":29,"x_max":781,"o":"m 276 -17 q 94 54 158 -17 q 29 272 29 125 q 75 522 29 414 q 201 689 121 631 q 379 747 281 747 q 588 647 529 747 l 596 647 l 658 1004 l 781 1004 l 604 0 l 514 0 l 514 99 l 506 99 q 403 13 463 42 q 276 -17 344 -17 m 311 85 q 445 140 390 85 q 528 283 500 194 q 556 474 556 372 q 517 603 556 560 q 396 646 479 646 q 219 539 282 646 q 157 267 157 432 q 194 126 157 168 q 311 85 231 85 z "},"ð":{"ha":772,"x_min":29,"x_max":725,"o":"m 333 -17 q 29 257 29 -17 q 58 467 29 368 q 144 633 86 565 q 413 747 244 747 q 519 731 472 747 l 522 733 q 446 850 497 781 l 232 833 l 246 917 l 386 928 l 342 967 q 304 999 329 976 l 307 1004 l 443 1004 q 511 938 486 967 l 725 951 l 710 868 l 579 860 q 681 676 644 775 q 717 471 717 578 q 678 231 717 342 q 554 52 640 121 q 333 -17 468 -17 m 338 85 q 496 151 438 85 q 576 324 554 217 q 589 460 589 390 q 545 601 589 557 q 408 646 501 646 q 248 576 307 646 q 168 394 189 506 q 157 268 157 339 q 201 128 157 172 q 338 85 244 85 z "},"ď":{"ha":868,"x_min":29,"x_max":978,"o":"m 276 -17 q 94 54 158 -17 q 29 272 29 125 q 75 522 29 414 q 201 689 121 631 q 379 747 281 747 q 588 647 529 747 l 596 647 l 658 1004 l 781 1004 l 604 0 l 514 0 l 514 99 l 506 99 q 403 13 463 42 q 276 -17 344 -17 m 808 681 l 882 826 l 838 826 l 860 953 l 978 953 l 957 836 l 872 681 l 808 681 m 311 85 q 445 140 390 85 q 528 283 500 194 q 556 474 556 372 q 517 603 556 560 q 396 646 479 646 q 219 539 282 646 q 157 267 157 432 q 194 126 157 168 q 311 85 231 85 z "},"đ":{"ha":772,"x_min":29,"x_max":861,"o":"m 276 -17 q 94 54 158 -17 q 29 272 29 125 q 75 522 29 414 q 201 689 121 631 q 379 747 281 747 q 588 647 529 747 l 596 647 l 628 828 l 438 828 l 453 914 l 642 914 l 658 1004 l 781 1004 l 764 914 l 861 914 l 846 828 l 749 828 l 604 0 l 514 0 l 514 99 l 506 99 q 403 13 463 42 q 276 -17 344 -17 m 311 85 q 445 140 390 85 q 528 283 500 194 q 556 474 556 372 q 517 603 556 560 q 396 646 479 646 q 219 539 282 646 q 157 267 157 432 q 194 126 157 168 q 311 85 231 85 z "},"ḍ":{"ha":772,"x_min":29,"x_max":781,"o":"m 29 0 m 276 -17 q 94 54 158 -17 q 29 272 29 125 q 75 522 29 414 q 201 689 121 631 q 379 747 281 747 q 588 647 529 747 l 596 647 l 658 1004 l 781 1004 l 604 0 l 514 0 l 514 99 l 506 99 q 403 13 463 42 q 276 -17 344 -17 m 311 85 q 445 140 390 85 q 528 283 500 194 q 556 474 556 372 q 517 603 556 560 q 396 646 479 646 q 219 539 282 646 q 157 267 157 432 q 194 126 157 168 q 311 85 231 85 m 219 -240 l 243 -108 l 364 -108 l 340 -240 l 219 -240 z "},"ǳ":{"ha":1467,"x_min":29,"x_max":1467,"o":"m 29 0 m 276 -17 q 94 54 158 -17 q 29 272 29 125 q 75 522 29 414 q 201 689 121 631 q 379 747 281 747 q 588 647 529 747 l 596 647 l 658 1004 l 781 1004 l 604 0 l 514 0 l 514 99 l 506 99 q 403 13 463 42 q 276 -17 344 -17 m 311 85 q 445 140 390 85 q 528 283 500 194 q 556 474 556 372 q 517 603 556 560 q 396 646 479 646 q 219 539 282 646 q 157 267 157 432 q 194 126 157 168 q 311 85 231 85 m 736 0 l 747 65 l 1261 629 l 875 629 l 893 731 l 1467 731 l 1456 667 l 939 101 l 1379 101 l 1361 0 l 736 0 z "},"ǆ":{"ha":1467,"x_min":29,"x_max":1467,"o":"m 29 0 m 276 -17 q 94 54 158 -17 q 29 272 29 125 q 75 522 29 414 q 201 689 121 631 q 379 747 281 747 q 588 647 529 747 l 596 647 l 658 1004 l 781 1004 l 604 0 l 514 0 l 514 99 l 506 99 q 403 13 463 42 q 276 -17 344 -17 m 311 85 q 445 140 390 85 q 528 283 500 194 q 556 474 556 372 q 517 603 556 560 q 396 646 479 646 q 219 539 282 646 q 157 267 157 432 q 194 126 157 168 q 311 85 231 85 m 736 0 l 747 65 l 1261 629 l 875 629 l 893 731 l 1467 731 l 1456 667 l 939 101 l 1379 101 l 1361 0 l 736 0 m 1140 817 l 1026 1004 l 1146 1004 l 1208 894 l 1306 1004 l 1436 1004 l 1257 817 l 1140 817 z "},"e":{"ha":772,"x_min":29,"x_max":710,"o":"m 351 -17 q 109 54 189 -17 q 29 272 29 125 q 71 515 29 407 q 201 685 113 622 q 424 747 290 747 q 636 683 563 747 q 710 496 710 619 q 699 393 710 453 l 688 332 l 158 332 q 154 279 154 313 q 202 133 154 181 q 349 85 250 85 q 484 125 428 85 q 554 249 540 165 l 674 249 q 564 52 653 121 q 351 -17 475 -17 m 581 433 q 586 488 586 453 q 419 646 586 646 q 263 591 325 646 q 176 433 201 536 l 581 433 z "},"é":{"ha":772,"x_min":29,"x_max":710,"o":"m 29 0 m 351 -17 q 109 54 189 -17 q 29 272 29 125 q 71 515 29 407 q 201 685 113 622 q 424 747 290 747 q 636 683 563 747 q 710 496 710 619 q 699 393 710 453 l 688 332 l 158 332 q 154 279 154 313 q 202 133 154 181 q 349 85 250 85 q 484 125 428 85 q 554 249 540 165 l 674 249 q 564 52 653 121 q 351 -17 475 -17 m 581 433 q 586 488 586 453 q 419 646 586 646 q 263 591 325 646 q 176 433 201 536 l 581 433 m 378 821 l 528 1004 l 668 1004 l 669 1000 l 497 821 l 378 821 z "},"ĕ":{"ha":772,"x_min":29,"x_max":710,"o":"m 29 0 m 351 -17 q 109 54 189 -17 q 29 272 29 125 q 71 515 29 407 q 201 685 113 622 q 424 747 290 747 q 636 683 563 747 q 710 496 710 619 q 699 393 710 453 l 688 332 l 158 332 q 154 279 154 313 q 202 133 154 181 q 349 85 250 85 q 484 125 428 85 q 554 249 540 165 l 674 249 q 564 52 653 121 q 351 -17 475 -17 m 581 433 q 586 488 586 453 q 419 646 586 646 q 263 591 325 646 q 176 433 201 536 l 581 433 m 439 842 q 297 878 340 842 q 253 972 253 915 q 256 1004 253 993 l 340 1004 q 361 952 342 974 q 438 931 381 931 q 532 953 497 931 q 575 1004 567 976 l 660 1004 q 636 942 654 972 q 589 889 618 911 q 439 842 528 842 z "},"ě":{"ha":772,"x_min":29,"x_max":710,"o":"m 29 0 m 351 -17 q 109 54 189 -17 q 29 272 29 125 q 71 515 29 407 q 201 685 113 622 q 424 747 290 747 q 636 683 563 747 q 710 496 710 619 q 699 393 710 453 l 688 332 l 158 332 q 154 279 154 313 q 202 133 154 181 q 349 85 250 85 q 484 125 428 85 q 554 249 540 165 l 674 249 q 564 52 653 121 q 351 -17 475 -17 m 581 433 q 586 488 586 453 q 419 646 586 646 q 263 591 325 646 q 176 433 201 536 l 581 433 m 379 817 l 265 1004 l 385 1004 l 447 894 l 544 1004 l 675 1004 l 496 817 l 379 817 z "},"ê":{"ha":772,"x_min":29,"x_max":710,"o":"m 29 0 m 351 -17 q 109 54 189 -17 q 29 272 29 125 q 71 515 29 407 q 201 685 113 622 q 424 747 290 747 q 636 683 563 747 q 710 496 710 619 q 699 393 710 453 l 688 332 l 158 332 q 154 279 154 313 q 202 133 154 181 q 349 85 250 85 q 484 125 428 85 q 554 249 540 165 l 674 249 q 564 52 653 121 q 351 -17 475 -17 m 581 433 q 586 488 586 453 q 419 646 586 646 q 263 591 325 646 q 176 433 201 536 l 581 433 m 226 817 l 406 1004 l 522 1004 l 636 817 l 517 817 l 457 926 l 357 817 l 226 817 z "},"ế":{"ha":772,"x_min":29,"x_max":865,"o":"m 29 0 m 351 -17 q 109 54 189 -17 q 29 272 29 125 q 71 515 29 407 q 201 685 113 622 q 424 747 290 747 q 636 683 563 747 q 710 496 710 619 q 699 393 710 453 l 688 332 l 158 332 q 154 279 154 313 q 202 133 154 181 q 349 85 250 85 q 484 125 428 85 q 554 249 540 165 l 674 249 q 564 52 653 121 q 351 -17 475 -17 m 581 433 q 586 488 586 453 q 419 646 586 646 q 263 591 325 646 q 176 433 201 536 l 581 433 m 226 817 l 406 1004 l 522 1004 l 636 817 l 517 817 l 457 926 l 357 817 l 226 817 m 574 953 l 724 1136 l 864 1136 l 865 1132 l 693 953 l 574 953 z "},"ệ":{"ha":772,"x_min":29,"x_max":710,"o":"m 29 0 m 351 -17 q 109 54 189 -17 q 29 272 29 125 q 71 515 29 407 q 201 685 113 622 q 424 747 290 747 q 636 683 563 747 q 710 496 710 619 q 699 393 710 453 l 688 332 l 158 332 q 154 279 154 313 q 202 133 154 181 q 349 85 250 85 q 484 125 428 85 q 554 249 540 165 l 674 249 q 564 52 653 121 q 351 -17 475 -17 m 581 433 q 586 488 586 453 q 419 646 586 646 q 263 591 325 646 q 176 433 201 536 l 581 433 m 226 817 l 406 1004 l 522 1004 l 636 817 l 517 817 l 457 926 l 357 817 l 226 817 m 219 -240 l 243 -108 l 364 -108 l 340 -240 l 219 -240 z "},"ề":{"ha":772,"x_min":29,"x_max":740,"o":"m 29 0 m 351 -17 q 109 54 189 -17 q 29 272 29 125 q 71 515 29 407 q 201 685 113 622 q 424 747 290 747 q 636 683 563 747 q 710 496 710 619 q 699 393 710 453 l 688 332 l 158 332 q 154 279 154 313 q 202 133 154 181 q 349 85 250 85 q 484 125 428 85 q 554 249 540 165 l 674 249 q 564 52 653 121 q 351 -17 475 -17 m 581 433 q 586 488 586 453 q 419 646 586 646 q 263 591 325 646 q 176 433 201 536 l 581 433 m 226 817 l 406 1004 l 522 1004 l 636 817 l 517 817 l 457 926 l 357 817 l 226 817 m 636 953 l 518 1132 l 519 1136 l 653 1136 l 740 953 l 636 953 z "},"ể":{"ha":772,"x_min":29,"x_max":775,"o":"m 29 0 m 351 -17 q 109 54 189 -17 q 29 272 29 125 q 71 515 29 407 q 201 685 113 622 q 424 747 290 747 q 636 683 563 747 q 710 496 710 619 q 699 393 710 453 l 688 332 l 158 332 q 154 279 154 313 q 202 133 154 181 q 349 85 250 85 q 484 125 428 85 q 554 249 540 165 l 674 249 q 564 52 653 121 q 351 -17 475 -17 m 581 433 q 586 488 586 453 q 419 646 586 646 q 263 591 325 646 q 176 433 201 536 l 581 433 m 226 817 l 406 1004 l 522 1004 l 636 817 l 517 817 l 457 926 l 357 817 l 226 817 m 610 1038 l 628 1038 q 662 1045 651 1038 q 672 1068 672 1053 q 663 1083 672 1079 q 633 1088 653 1088 l 550 1088 l 560 1142 q 663 1153 608 1153 q 742 1138 708 1153 q 775 1085 775 1122 q 747 1019 775 1042 q 679 992 719 996 l 672 953 l 594 953 l 610 1038 z "},"ễ":{"ha":772,"x_min":29,"x_max":732,"o":"m 29 0 m 351 -17 q 109 54 189 -17 q 29 272 29 125 q 71 515 29 407 q 201 685 113 622 q 424 747 290 747 q 636 683 563 747 q 710 496 710 619 q 699 393 710 453 l 688 332 l 158 332 q 154 279 154 313 q 202 133 154 181 q 349 85 250 85 q 484 125 428 85 q 554 249 540 165 l 674 249 q 564 52 653 121 q 351 -17 475 -17 m 581 433 q 586 488 586 453 q 419 646 586 646 q 263 591 325 646 q 176 433 201 536 l 581 433 m 226 817 l 406 1004 l 522 1004 l 636 817 l 517 817 l 457 926 l 357 817 l 226 817 m 253 1082 q 299 1185 263 1144 q 396 1226 336 1226 q 447 1221 422 1226 q 501 1204 471 1215 q 594 1183 556 1183 q 642 1226 631 1183 l 732 1226 q 684 1123 721 1164 q 588 1082 647 1082 q 537 1088 561 1082 q 482 1104 513 1093 q 389 1125 428 1125 q 342 1082 353 1125 l 253 1082 z "},"ȅ":{"ha":772,"x_min":29,"x_max":710,"o":"m 29 0 m 351 -17 q 109 54 189 -17 q 29 272 29 125 q 71 515 29 407 q 201 685 113 622 q 424 747 290 747 q 636 683 563 747 q 710 496 710 619 q 699 393 710 453 l 688 332 l 158 332 q 154 279 154 313 q 202 133 154 181 q 349 85 250 85 q 484 125 428 85 q 554 249 540 165 l 674 249 q 564 52 653 121 q 351 -17 475 -17 m 581 433 q 586 488 586 453 q 419 646 586 646 q 263 591 325 646 q 176 433 201 536 l 581 433 m 308 821 l 224 1000 l 226 1004 l 361 1004 l 414 821 l 308 821 m 501 821 l 417 1000 l 419 1004 l 554 1004 l 607 821 l 501 821 z "},"ë":{"ha":772,"x_min":29,"x_max":710,"o":"m 29 0 m 351 -17 q 109 54 189 -17 q 29 272 29 125 q 71 515 29 407 q 201 685 113 622 q 424 747 290 747 q 636 683 563 747 q 710 496 710 619 q 699 393 710 453 l 688 332 l 158 332 q 154 279 154 313 q 202 133 154 181 q 349 85 250 85 q 484 125 428 85 q 554 249 540 165 l 674 249 q 564 52 653 121 q 351 -17 475 -17 m 581 433 q 586 488 586 453 q 419 646 586 646 q 263 591 325 646 q 176 433 201 536 l 581 433 m 257 872 l 281 1004 l 401 1004 l 378 872 l 257 872 m 517 872 l 540 1004 l 661 1004 l 638 872 l 517 872 z "},"ė":{"ha":772,"x_min":29,"x_max":710,"o":"m 29 0 m 351 -17 q 109 54 189 -17 q 29 272 29 125 q 71 515 29 407 q 201 685 113 622 q 424 747 290 747 q 636 683 563 747 q 710 496 710 619 q 699 393 710 453 l 688 332 l 158 332 q 154 279 154 313 q 202 133 154 181 q 349 85 250 85 q 484 125 428 85 q 554 249 540 165 l 674 249 q 564 52 653 121 q 351 -17 475 -17 m 581 433 q 586 488 586 453 q 419 646 586 646 q 263 591 325 646 q 176 433 201 536 l 581 433 m 386 872 l 410 1004 l 531 1004 l 507 872 l 386 872 z "},"ẹ":{"ha":772,"x_min":29,"x_max":710,"o":"m 29 0 m 351 -17 q 109 54 189 -17 q 29 272 29 125 q 71 515 29 407 q 201 685 113 622 q 424 747 290 747 q 636 683 563 747 q 710 496 710 619 q 699 393 710 453 l 688 332 l 158 332 q 154 279 154 313 q 202 133 154 181 q 349 85 250 85 q 484 125 428 85 q 554 249 540 165 l 674 249 q 564 52 653 121 q 351 -17 475 -17 m 581 433 q 586 488 586 453 q 419 646 586 646 q 263 591 325 646 q 176 433 201 536 l 581 433 m 219 -240 l 243 -108 l 364 -108 l 340 -240 l 219 -240 z "},"è":{"ha":772,"x_min":29,"x_max":710,"o":"m 29 0 m 351 -17 q 109 54 189 -17 q 29 272 29 125 q 71 515 29 407 q 201 685 113 622 q 424 747 290 747 q 636 683 563 747 q 710 496 710 619 q 699 393 710 453 l 688 332 l 158 332 q 154 279 154 313 q 202 133 154 181 q 349 85 250 85 q 484 125 428 85 q 554 249 540 165 l 674 249 q 564 52 653 121 q 351 -17 475 -17 m 581 433 q 586 488 586 453 q 419 646 586 646 q 263 591 325 646 q 176 433 201 536 l 581 433 m 386 821 l 268 1000 l 269 1004 l 403 1004 l 490 821 l 386 821 z "},"ẻ":{"ha":772,"x_min":29,"x_max":710,"o":"m 29 0 m 351 -17 q 109 54 189 -17 q 29 272 29 125 q 71 515 29 407 q 201 685 113 622 q 424 747 290 747 q 636 683 563 747 q 710 496 710 619 q 699 393 710 453 l 688 332 l 158 332 q 154 279 154 313 q 202 133 154 181 q 349 85 250 85 q 484 125 428 85 q 554 249 540 165 l 674 249 q 564 52 653 121 q 351 -17 475 -17 m 581 433 q 586 488 586 453 q 419 646 586 646 q 263 591 325 646 q 176 433 201 536 l 581 433 m 415 906 l 433 906 q 467 913 457 906 q 478 936 478 921 q 468 951 478 947 q 439 956 458 956 l 356 956 l 365 1010 q 468 1021 414 1021 q 547 1006 514 1021 q 581 953 581 990 q 553 887 581 910 q 485 860 525 864 l 478 821 l 400 821 l 415 906 z "},"ȇ":{"ha":772,"x_min":29,"x_max":710,"o":"m 29 0 m 351 -17 q 109 54 189 -17 q 29 272 29 125 q 71 515 29 407 q 201 685 113 622 q 424 747 290 747 q 636 683 563 747 q 710 496 710 619 q 699 393 710 453 l 688 332 l 158 332 q 154 279 154 313 q 202 133 154 181 q 349 85 250 85 q 484 125 428 85 q 554 249 540 165 l 674 249 q 564 52 653 121 q 351 -17 475 -17 m 581 433 q 586 488 586 453 q 419 646 586 646 q 263 591 325 646 q 176 433 201 536 l 581 433 m 239 842 q 469 1004 268 1004 q 603 965 560 1004 q 646 867 646 925 q 643 842 646 858 l 558 842 q 537 893 560 871 q 454 915 514 915 q 324 842 354 915 l 239 842 z "},"ē":{"ha":772,"x_min":29,"x_max":710,"o":"m 29 0 m 351 -17 q 109 54 189 -17 q 29 272 29 125 q 71 515 29 407 q 201 685 113 622 q 424 747 290 747 q 636 683 563 747 q 710 496 710 619 q 699 393 710 453 l 688 332 l 158 332 q 154 279 154 313 q 202 133 154 181 q 349 85 250 85 q 484 125 428 85 q 554 249 540 165 l 674 249 q 564 52 653 121 q 351 -17 475 -17 m 581 433 q 586 488 586 453 q 419 646 586 646 q 263 591 325 646 q 176 433 201 536 l 581 433 m 236 871 l 254 971 l 678 971 l 660 871 l 236 871 z "},"ę":{"ha":772,"x_min":29,"x_max":710,"o":"m 500 -253 q 413 -225 449 -253 q 378 -136 378 -197 q 417 -11 378 -69 q 351 -17 375 -17 q 109 54 189 -17 q 29 272 29 125 q 71 515 29 407 q 201 685 113 622 q 424 747 290 747 q 636 683 563 747 q 710 496 710 619 q 699 393 710 453 l 688 332 l 158 332 q 154 279 154 313 q 202 133 154 181 q 349 85 250 85 q 484 125 428 85 q 554 249 540 165 l 674 249 q 638 139 664 185 q 567 54 613 93 q 518 -10 540 32 q 496 -92 496 -51 q 510 -143 496 -124 q 557 -162 525 -162 l 601 -162 l 589 -233 q 500 -253 539 -253 m 581 433 q 586 488 586 453 q 419 646 586 646 q 263 591 325 646 q 176 433 201 536 l 581 433 z "},"ẽ":{"ha":772,"x_min":29,"x_max":710,"o":"m 29 0 m 351 -17 q 109 54 189 -17 q 29 272 29 125 q 71 515 29 407 q 201 685 113 622 q 424 747 290 747 q 636 683 563 747 q 710 496 710 619 q 699 393 710 453 l 688 332 l 158 332 q 154 279 154 313 q 202 133 154 181 q 349 85 250 85 q 484 125 428 85 q 554 249 540 165 l 674 249 q 564 52 653 121 q 351 -17 475 -17 m 581 433 q 586 488 586 453 q 419 646 586 646 q 263 591 325 646 q 176 433 201 536 l 581 433 m 218 860 q 265 963 228 922 q 361 1004 301 1004 q 412 999 388 1004 q 467 982 436 993 q 560 961 521 961 q 607 1004 596 961 l 697 1004 q 649 901 686 942 q 553 860 613 860 q 502 865 526 860 q 447 882 478 871 q 354 903 393 903 q 307 860 318 903 l 218 860 z "},"f":{"ha":386,"x_min":-140,"x_max":479,"o":"m -39 -253 q -94 -248 -67 -253 q -140 -236 -122 -243 l -125 -151 l -53 -151 q 25 -85 14 -151 l 151 629 l 44 629 l 63 731 l 169 731 l 190 847 q 244 969 203 922 q 378 1015 285 1015 q 433 1010 406 1015 q 479 999 461 1006 l 464 914 l 392 914 q 313 847 324 914 l 292 731 l 432 731 l 414 629 l 274 629 l 147 -85 q 94 -207 135 -161 q -39 -253 54 -253 z "},"g":{"ha":772,"x_min":-6,"x_max":731,"o":"m 264 -253 q 67 -201 139 -253 q -6 -49 -6 -149 l -6 -35 l 114 -35 q 261 -153 118 -153 q 494 82 449 -153 l 500 111 l 492 111 q 265 11 400 11 q 91 74 153 11 q 29 263 29 136 q 73 516 29 406 q 196 687 117 626 q 378 747 275 747 q 513 718 456 747 q 599 632 569 689 l 607 632 l 639 731 l 731 731 l 617 88 q 499 -168 586 -83 q 264 -253 413 -253 m 311 113 q 443 164 388 113 q 526 299 499 215 q 554 475 554 382 q 518 603 554 560 q 404 646 482 646 q 219 539 283 646 q 156 267 156 432 q 192 148 156 183 q 311 113 229 113 z "},"ǵ":{"ha":772,"x_min":-6,"x_max":731,"o":"m 0 0 m 264 -253 q 67 -201 139 -253 q -6 -49 -6 -149 l -6 -35 l 114 -35 q 261 -153 118 -153 q 494 82 449 -153 l 500 111 l 492 111 q 265 11 400 11 q 91 74 153 11 q 29 263 29 136 q 73 516 29 406 q 196 687 117 626 q 378 747 275 747 q 513 718 456 747 q 599 632 569 689 l 607 632 l 639 731 l 731 731 l 617 88 q 499 -168 586 -83 q 264 -253 413 -253 m 311 113 q 443 164 388 113 q 526 299 499 215 q 554 475 554 382 q 518 603 554 560 q 404 646 482 646 q 219 539 283 646 q 156 267 156 432 q 192 148 156 183 q 311 113 229 113 m 372 821 l 522 1004 l 663 1004 l 664 1000 l 492 821 l 372 821 z "},"ğ":{"ha":772,"x_min":-6,"x_max":731,"o":"m 0 0 m 264 -253 q 67 -201 139 -253 q -6 -49 -6 -149 l -6 -35 l 114 -35 q 261 -153 118 -153 q 494 82 449 -153 l 500 111 l 492 111 q 265 11 400 11 q 91 74 153 11 q 29 263 29 136 q 73 516 29 406 q 196 687 117 626 q 378 747 275 747 q 513 718 456 747 q 599 632 569 689 l 607 632 l 639 731 l 731 731 l 617 88 q 499 -168 586 -83 q 264 -253 413 -253 m 311 113 q 443 164 388 113 q 526 299 499 215 q 554 475 554 382 q 518 603 554 560 q 404 646 482 646 q 219 539 283 646 q 156 267 156 432 q 192 148 156 183 q 311 113 229 113 m 433 842 q 291 878 335 842 q 247 972 247 915 q 250 1004 247 993 l 335 1004 q 356 952 336 974 q 432 931 375 931 q 526 953 492 931 q 569 1004 561 976 l 654 1004 q 631 942 649 972 q 583 889 613 911 q 433 842 522 842 z "},"ǧ":{"ha":772,"x_min":-6,"x_max":731,"o":"m 0 0 m 264 -253 q 67 -201 139 -253 q -6 -49 -6 -149 l -6 -35 l 114 -35 q 261 -153 118 -153 q 494 82 449 -153 l 500 111 l 492 111 q 265 11 400 11 q 91 74 153 11 q 29 263 29 136 q 73 516 29 406 q 196 687 117 626 q 378 747 275 747 q 513 718 456 747 q 599 632 569 689 l 607 632 l 639 731 l 731 731 l 617 88 q 499 -168 586 -83 q 264 -253 413 -253 m 311 113 q 443 164 388 113 q 526 299 499 215 q 554 475 554 382 q 518 603 554 560 q 404 646 482 646 q 219 539 283 646 q 156 267 156 432 q 192 148 156 183 q 311 113 229 113 m 374 817 l 260 1004 l 379 1004 l 442 894 l 539 1004 l 669 1004 l 490 817 l 374 817 z "},"ĝ":{"ha":772,"x_min":-6,"x_max":731,"o":"m 0 0 m 264 -253 q 67 -201 139 -253 q -6 -49 -6 -149 l -6 -35 l 114 -35 q 261 -153 118 -153 q 494 82 449 -153 l 500 111 l 492 111 q 265 11 400 11 q 91 74 153 11 q 29 263 29 136 q 73 516 29 406 q 196 687 117 626 q 378 747 275 747 q 513 718 456 747 q 599 632 569 689 l 607 632 l 639 731 l 731 731 l 617 88 q 499 -168 586 -83 q 264 -253 413 -253 m 311 113 q 443 164 388 113 q 526 299 499 215 q 554 475 554 382 q 518 603 554 560 q 404 646 482 646 q 219 539 283 646 q 156 267 156 432 q 192 148 156 183 q 311 113 229 113 m 221 817 l 400 1004 l 517 1004 l 631 817 l 511 817 l 451 926 l 351 817 l 221 817 z "},"ģ":{"ha":772,"x_min":-6,"x_max":731,"o":"m 369 844 l 390 961 l 472 1083 l 538 1083 l 465 971 l 514 971 l 492 844 l 369 844 m 264 -253 q 67 -201 139 -253 q -6 -49 -6 -149 l -6 -35 l 114 -35 q 261 -153 118 -153 q 494 82 449 -153 l 500 111 l 492 111 q 265 11 400 11 q 91 74 153 11 q 29 263 29 136 q 73 516 29 406 q 196 687 117 626 q 378 747 275 747 q 513 718 456 747 q 599 632 569 689 l 607 632 l 639 731 l 731 731 l 617 88 q 499 -168 586 -83 q 264 -253 413 -253 m 311 113 q 443 164 388 113 q 526 299 499 215 q 554 475 554 382 q 518 603 554 560 q 404 646 482 646 q 219 539 283 646 q 156 267 156 432 q 192 148 156 183 q 311 113 229 113 z "},"ġ":{"ha":772,"x_min":-6,"x_max":731,"o":"m 0 0 m 264 -253 q 67 -201 139 -253 q -6 -49 -6 -149 l -6 -35 l 114 -35 q 261 -153 118 -153 q 494 82 449 -153 l 500 111 l 492 111 q 265 11 400 11 q 91 74 153 11 q 29 263 29 136 q 73 516 29 406 q 196 687 117 626 q 378 747 275 747 q 513 718 456 747 q 599 632 569 689 l 607 632 l 639 731 l 731 731 l 617 88 q 499 -168 586 -83 q 264 -253 413 -253 m 311 113 q 443 164 388 113 q 526 299 499 215 q 554 475 554 382 q 518 603 554 560 q 404 646 482 646 q 219 539 283 646 q 156 267 156 432 q 192 148 156 183 q 311 113 229 113 m 381 872 l 404 1004 l 525 1004 l 501 872 l 381 872 z "},"h":{"ha":772,"x_min":18,"x_max":703,"o":"m 194 1004 l 317 1004 l 254 649 l 260 649 q 363 720 303 693 q 485 747 424 747 q 647 706 590 747 q 703 575 703 665 q 693 485 703 540 l 608 0 l 486 0 l 569 476 q 576 550 576 522 q 548 624 576 603 q 468 646 519 646 q 358 618 411 646 q 265 539 304 590 q 214 418 226 488 l 140 0 l 18 0 l 194 1004 z "},"ħ":{"ha":772,"x_min":18,"x_max":703,"o":"m 163 828 l 71 828 l 86 914 l 178 914 l 194 1004 l 317 1004 l 300 914 l 494 914 l 479 828 l 285 828 l 254 649 l 260 649 q 363 720 303 693 q 485 747 424 747 q 647 706 590 747 q 703 575 703 665 q 693 485 703 540 l 608 0 l 486 0 l 569 476 q 576 550 576 522 q 548 624 576 603 q 468 646 519 646 q 358 618 411 646 q 265 539 304 590 q 214 418 226 488 l 140 0 l 18 0 l 163 828 z "},"ĥ":{"ha":772,"x_min":18,"x_max":703,"o":"m 18 0 m 194 1004 l 317 1004 l 254 649 l 260 649 q 363 720 303 693 q 485 747 424 747 q 647 706 590 747 q 703 575 703 665 q 693 485 703 540 l 608 0 l 486 0 l 569 476 q 576 550 576 522 q 548 624 576 603 q 468 646 519 646 q 358 618 411 646 q 265 539 304 590 q 214 418 226 488 l 140 0 l 18 0 l 194 1004 m 50 1039 l 229 1226 l 346 1226 l 460 1039 l 340 1039 l 281 1149 l 181 1039 l 50 1039 z "},"ḥ":{"ha":772,"x_min":18,"x_max":703,"o":"m 18 0 m 194 1004 l 317 1004 l 254 649 l 260 649 q 363 720 303 693 q 485 747 424 747 q 647 706 590 747 q 703 575 703 665 q 693 485 703 540 l 608 0 l 486 0 l 569 476 q 576 550 576 522 q 548 624 576 603 q 468 646 519 646 q 358 618 411 646 q 265 539 304 590 q 214 418 226 488 l 140 0 l 18 0 l 194 1004 m 219 -240 l 243 -108 l 364 -108 l 340 -240 l 219 -240 z "},"i":{"ha":308,"x_min":18,"x_max":317,"o":"m 171 868 l 194 1004 l 317 1004 l 293 868 l 171 868 m 18 0 l 147 731 l 269 731 l 140 0 l 18 0 z "},"ı":{"ha":386,"x_min":49,"x_max":300,"o":"m 49 0 l 178 731 l 300 731 l 171 0 l 49 0 z "},"í":{"ha":386,"x_min":49,"x_max":474,"o":"m 182 821 l 333 1004 l 472 1004 l 474 1000 l 292 821 l 182 821 m 49 0 l 178 731 l 300 731 l 171 0 l 49 0 z "},"ĭ":{"ha":386,"x_min":49,"x_max":476,"o":"m 49 0 m 49 0 l 178 731 l 300 731 l 171 0 l 49 0 m 256 842 q 113 878 157 842 q 69 972 69 915 q 72 1004 69 993 l 157 1004 q 178 952 158 974 q 254 931 197 931 q 349 953 314 931 q 392 1004 383 976 l 476 1004 q 453 942 471 972 q 406 889 435 911 q 256 842 344 842 z "},"ǐ":{"ha":386,"x_min":49,"x_max":492,"o":"m 49 0 m 49 0 l 178 731 l 300 731 l 171 0 l 49 0 m 196 817 l 82 1004 l 201 1004 l 264 894 l 361 1004 l 492 1004 l 313 817 l 196 817 z "},"î":{"ha":386,"x_min":38,"x_max":447,"o":"m 38 817 l 217 1004 l 333 1004 l 447 817 l 328 817 l 268 926 l 168 817 l 38 817 m 49 0 l 178 731 l 300 731 l 171 0 l 49 0 z "},"ȉ":{"ha":386,"x_min":40,"x_max":424,"o":"m 40 0 m 49 0 l 178 731 l 300 731 l 171 0 l 49 0 m 125 821 l 40 1000 l 43 1004 l 178 1004 l 231 821 l 125 821 m 318 821 l 233 1000 l 236 1004 l 371 1004 l 424 821 l 318 821 z "},"ï":{"ha":386,"x_min":49,"x_max":468,"o":"m 64 872 l 88 1004 l 208 1004 l 185 872 l 64 872 m 324 872 l 347 1004 l 468 1004 l 444 872 l 324 872 m 49 0 l 178 731 l 300 731 l 171 0 l 49 0 z "},"ị":{"ha":308,"x_min":-24,"x_max":317,"o":"m 0 0 m 171 868 l 194 1004 l 317 1004 l 293 868 l 171 868 m 18 0 l 147 731 l 269 731 l 140 0 l 18 0 m -24 -240 l 0 -108 l 121 -108 l 97 -240 l -24 -240 z "},"ì":{"ha":386,"x_min":49,"x_max":307,"o":"m 203 821 l 85 1000 l 86 1004 l 219 1004 l 307 821 l 203 821 m 49 0 l 178 731 l 300 731 l 171 0 l 49 0 z "},"ỉ":{"ha":386,"x_min":49,"x_max":397,"o":"m 49 0 m 49 0 l 178 731 l 300 731 l 171 0 l 49 0 m 232 906 l 250 906 q 284 913 274 906 q 294 936 294 921 q 285 951 294 947 q 256 956 275 956 l 172 956 l 182 1010 q 285 1021 231 1021 q 364 1006 331 1021 q 397 953 397 990 q 369 887 397 910 q 301 860 342 864 l 294 821 l 217 821 l 232 906 z "},"ȋ":{"ha":386,"x_min":49,"x_max":463,"o":"m 49 0 m 49 0 l 178 731 l 300 731 l 171 0 l 49 0 m 56 842 q 286 1004 85 1004 q 419 965 376 1004 q 463 867 463 925 q 460 842 463 858 l 375 842 q 353 893 376 871 q 271 915 331 915 q 140 842 171 915 l 56 842 z "},"ĳ":{"ha":617,"x_min":18,"x_max":625,"o":"m 18 0 m 171 868 l 194 1004 l 317 1004 l 293 868 l 171 868 m 18 0 l 147 731 l 269 731 l 140 0 l 18 0 m 479 868 l 503 1004 l 625 1004 l 601 868 l 479 868 m 253 -253 q 160 -236 204 -253 l 174 -157 l 235 -157 q 310 -90 299 -157 l 456 731 l 578 731 l 433 -85 q 381 -207 419 -161 q 253 -253 342 -253 z "},"ī":{"ha":386,"x_min":43,"x_max":485,"o":"m 43 888 l 61 988 l 485 988 l 467 888 l 43 888 m 49 0 l 178 731 l 300 731 l 171 0 l 49 0 z "},"į":{"ha":386,"x_min":-49,"x_max":347,"o":"m 226 1004 l 347 1004 l 324 872 l 203 872 l 226 1004 m 140 0 q 90 -53 111 -22 q 69 -117 69 -83 q 84 -158 69 -142 q 131 -174 99 -174 l 175 -174 l 163 -244 q 74 -264 113 -264 q -12 -240 24 -264 q -49 -161 -49 -215 q -22 -72 -49 -110 q 51 0 6 -33 l 49 0 l 178 731 l 300 731 l 171 0 l 140 0 z "},"ĩ":{"ha":386,"x_min":24,"x_max":503,"o":"m 24 860 q 70 963 33 922 q 167 1004 107 1004 q 217 999 193 1004 q 272 982 242 993 q 365 961 326 961 q 413 1004 401 961 l 503 1004 q 455 901 492 942 q 358 860 418 860 q 308 865 332 860 q 253 882 283 871 q 160 903 199 903 q 113 860 124 903 l 24 860 m 49 0 l 178 731 l 300 731 l 171 0 l 49 0 z "},"j":{"ha":308,"x_min":-149,"x_max":317,"o":"m 171 868 l 194 1004 l 317 1004 l 293 868 l 171 868 m -56 -253 q -149 -236 -104 -253 l -135 -157 l -74 -157 q 1 -90 -10 -157 l 147 731 l 269 731 l 125 -85 q 72 -207 111 -161 q -56 -253 33 -253 z "},"ȷ":{"ha":308,"x_min":-149,"x_max":269,"o":"m -56 -253 q -149 -236 -104 -253 l -135 -157 l -74 -157 q 1 -90 -10 -157 l 147 731 l 269 731 l 125 -85 q 72 -207 111 -161 q -56 -253 33 -253 z "},"ĵ":{"ha":308,"x_min":-149,"x_max":417,"o":"m 7 817 l 186 1004 l 303 1004 l 417 817 l 297 817 l 238 926 l 138 817 l 7 817 m -56 -253 q -149 -236 -104 -253 l -135 -157 l -74 -157 q 1 -90 -10 -157 l 147 731 l 269 731 l 125 -85 q 72 -207 111 -161 q -56 -253 33 -253 z "},"k":{"ha":694,"x_min":18,"x_max":731,"o":"m 18 0 l 194 1004 l 317 1004 l 207 379 l 579 731 l 731 731 l 428 443 l 615 0 l 481 0 l 342 360 l 181 229 l 140 0 l 18 0 z "},"ķ":{"ha":694,"x_min":18,"x_max":731,"o":"m 18 0 m 18 0 l 194 1004 l 317 1004 l 207 379 l 579 731 l 731 731 l 428 443 l 615 0 l 481 0 l 342 360 l 181 229 l 140 0 l 18 0 m 192 -319 l 264 -207 l 215 -207 l 238 -81 l 360 -81 l 339 -197 l 257 -319 l 192 -319 z "},"ĸ":{"ha":694,"x_min":18,"x_max":731,"o":"m 18 0 l 146 731 l 268 731 l 207 379 l 579 731 l 731 731 l 428 443 l 615 0 l 481 0 l 342 360 l 181 229 l 140 0 l 18 0 z "},"l":{"ha":308,"x_min":18,"x_max":317,"o":"m 18 0 l 194 1004 l 317 1004 l 140 0 l 18 0 z "},"ĺ":{"ha":308,"x_min":18,"x_max":499,"o":"m 18 0 m 18 0 l 194 1004 l 317 1004 l 140 0 l 18 0 m 207 1043 l 357 1226 l 497 1226 l 499 1222 l 326 1043 l 207 1043 z "},"ľ":{"ha":406,"x_min":18,"x_max":510,"o":"m 18 0 l 194 1004 l 317 1004 l 140 0 l 18 0 m 340 681 l 414 826 l 369 826 l 392 953 l 510 953 l 489 836 l 404 681 l 340 681 z "},"ļ":{"ha":308,"x_min":-40,"x_max":317,"o":"m 0 0 m 18 0 l 194 1004 l 317 1004 l 140 0 l 18 0 m -40 -319 l 32 -207 l -17 -207 l 6 -81 l 128 -81 l 107 -197 l 25 -319 l -40 -319 z "},"ŀ":{"ha":393,"x_min":18,"x_max":451,"o":"m 18 0 m 18 0 l 194 1004 l 317 1004 l 140 0 l 18 0 m 286 421 l 313 571 l 451 571 l 425 421 l 286 421 z "},"ǉ":{"ha":617,"x_min":18,"x_max":625,"o":"m 18 0 m 18 0 l 194 1004 l 317 1004 l 140 0 l 18 0 m 479 868 l 503 1004 l 625 1004 l 601 868 l 479 868 m 253 -253 q 160 -236 204 -253 l 174 -157 l 235 -157 q 310 -90 299 -157 l 456 731 l 578 731 l 433 -85 q 381 -207 419 -161 q 253 -253 342 -253 z "},"ł":{"ha":308,"x_min":-12,"x_max":357,"o":"m 24 0 l 93 393 l -12 315 l 6 422 l 111 500 l 200 1004 l 322 1004 l 251 601 l 357 678 l 338 571 l 233 494 l 146 0 l 24 0 z "},"m":{"ha":1157,"x_min":18,"x_max":1092,"o":"m 147 731 l 236 731 l 236 632 l 246 632 q 475 747 338 747 q 654 632 626 747 l 663 632 q 771 717 708 688 q 899 747 833 747 q 1092 589 1092 747 q 1086 526 1092 556 l 993 0 l 871 0 l 960 504 q 965 547 965 538 q 938 624 965 601 q 865 646 911 646 q 723 585 788 646 q 640 421 658 524 l 567 0 l 444 0 l 533 504 q 538 549 538 529 q 513 624 538 603 q 442 646 488 646 q 344 619 392 646 q 261 540 296 592 q 214 421 226 489 l 140 0 l 18 0 l 147 731 z "},"n":{"ha":772,"x_min":18,"x_max":703,"o":"m 147 731 l 236 731 l 236 632 l 246 632 q 353 715 288 683 q 485 747 418 747 q 647 706 590 747 q 703 575 703 665 q 693 485 703 540 l 608 0 l 486 0 l 569 476 q 576 550 576 522 q 548 624 576 603 q 468 646 519 646 q 358 618 411 646 q 265 539 304 590 q 214 418 226 488 l 140 0 l 18 0 l 147 731 z "},"ń":{"ha":772,"x_min":18,"x_max":703,"o":"m 18 0 m 147 731 l 236 731 l 236 632 l 246 632 q 353 715 288 683 q 485 747 418 747 q 647 706 590 747 q 703 575 703 665 q 693 485 703 540 l 608 0 l 486 0 l 569 476 q 576 550 576 522 q 548 624 576 603 q 468 646 519 646 q 358 618 411 646 q 265 539 304 590 q 214 418 226 488 l 140 0 l 18 0 l 147 731 m 406 821 l 556 1004 l 696 1004 l 697 1000 l 525 821 l 406 821 z "},"ŉ":{"ha":839,"x_min":42,"x_max":769,"o":"m 42 681 l 114 826 l 69 826 l 92 953 l 210 953 l 189 836 l 104 681 l 42 681 m 214 731 l 303 731 l 303 632 l 313 632 q 419 715 354 683 q 551 747 485 747 q 713 706 657 747 q 769 575 769 665 q 760 485 769 540 l 675 0 l 553 0 l 636 476 q 643 550 643 522 q 615 624 643 603 q 535 646 586 646 q 424 618 478 646 q 332 539 371 590 q 281 418 293 488 l 207 0 l 85 0 l 214 731 z "},"ň":{"ha":772,"x_min":18,"x_max":703,"o":"m 18 0 m 147 731 l 236 731 l 236 632 l 246 632 q 353 715 288 683 q 485 747 418 747 q 647 706 590 747 q 703 575 703 665 q 693 485 703 540 l 608 0 l 486 0 l 569 476 q 576 550 576 522 q 548 624 576 603 q 468 646 519 646 q 358 618 411 646 q 265 539 304 590 q 214 418 226 488 l 140 0 l 18 0 l 147 731 m 407 817 l 293 1004 l 413 1004 l 475 894 l 572 1004 l 703 1004 l 524 817 l 407 817 z "},"ņ":{"ha":772,"x_min":18,"x_max":703,"o":"m 18 0 m 147 731 l 236 731 l 236 632 l 246 632 q 353 715 288 683 q 485 747 418 747 q 647 706 590 747 q 703 575 703 665 q 693 485 703 540 l 608 0 l 486 0 l 569 476 q 576 550 576 522 q 548 624 576 603 q 468 646 519 646 q 358 618 411 646 q 265 539 304 590 q 214 418 226 488 l 140 0 l 18 0 l 147 731 m 203 -319 l 275 -207 l 226 -207 l 249 -81 l 371 -81 l 350 -197 l 268 -319 l 203 -319 z "},"ṅ":{"ha":772,"x_min":18,"x_max":703,"o":"m 18 0 m 147 731 l 236 731 l 236 632 l 246 632 q 353 715 288 683 q 485 747 418 747 q 647 706 590 747 q 703 575 703 665 q 693 485 703 540 l 608 0 l 486 0 l 569 476 q 576 550 576 522 q 548 624 576 603 q 468 646 519 646 q 358 618 411 646 q 265 539 304 590 q 214 418 226 488 l 140 0 l 18 0 l 147 731 m 414 872 l 438 1004 l 558 1004 l 535 872 l 414 872 z "},"ŋ":{"ha":772,"x_min":18,"x_max":703,"o":"m 413 -253 q 319 -236 364 -253 l 333 -157 l 394 -157 q 471 -90 460 -157 l 569 476 q 576 550 576 522 q 548 624 576 603 q 468 646 519 646 q 358 618 411 646 q 265 539 304 590 q 214 418 226 488 l 140 0 l 18 0 l 147 731 l 236 731 l 236 632 l 246 632 q 353 715 288 683 q 485 747 418 747 q 647 706 590 747 q 703 575 703 665 q 693 485 703 540 l 593 -85 q 540 -207 579 -161 q 413 -253 501 -253 z "},"ɲ":{"ha":772,"x_min":-149,"x_max":703,"o":"m -56 -253 q -149 -236 -104 -253 l -135 -157 l -74 -157 q 3 -90 -8 -157 l 147 731 l 236 731 l 236 632 l 246 632 q 353 715 288 683 q 485 747 418 747 q 647 706 590 747 q 703 575 703 665 q 693 485 703 540 l 608 0 l 486 0 l 569 476 q 576 550 576 522 q 548 624 576 603 q 468 646 519 646 q 358 618 411 646 q 265 539 304 590 q 214 418 226 488 l 125 -85 q 72 -207 111 -161 q -56 -253 33 -253 z "},"ǌ":{"ha":1081,"x_min":18,"x_max":1089,"o":"m 18 0 m 147 731 l 236 731 l 236 632 l 246 632 q 353 715 288 683 q 485 747 418 747 q 647 706 590 747 q 703 575 703 665 q 693 485 703 540 l 608 0 l 486 0 l 569 476 q 576 550 576 522 q 548 624 576 603 q 468 646 519 646 q 358 618 411 646 q 265 539 304 590 q 214 418 226 488 l 140 0 l 18 0 l 147 731 m 943 868 l 967 1004 l 1089 1004 l 1065 868 l 943 868 m 717 -253 q 624 -236 668 -253 l 638 -157 l 699 -157 q 774 -90 763 -157 l 919 731 l 1042 731 l 897 -85 q 844 -207 883 -161 q 717 -253 806 -253 z "},"ñ":{"ha":772,"x_min":18,"x_max":725,"o":"m 18 0 m 147 731 l 236 731 l 236 632 l 246 632 q 353 715 288 683 q 485 747 418 747 q 647 706 590 747 q 703 575 703 665 q 693 485 703 540 l 608 0 l 486 0 l 569 476 q 576 550 576 522 q 548 624 576 603 q 468 646 519 646 q 358 618 411 646 q 265 539 304 590 q 214 418 226 488 l 140 0 l 18 0 l 147 731 m 246 860 q 292 963 256 922 q 389 1004 329 1004 q 440 999 415 1004 q 494 982 464 993 q 588 961 549 961 q 635 1004 624 961 l 725 1004 q 677 901 714 942 q 581 860 640 860 q 530 865 554 860 q 475 882 506 871 q 382 903 421 903 q 335 860 346 903 l 246 860 z "},"o":{"ha":772,"x_min":31,"x_max":715,"o":"m 328 -17 q 109 60 188 -17 q 31 272 31 136 q 38 374 31 308 q 160 655 65 563 q 417 747 254 747 q 637 672 558 747 q 715 463 715 597 q 707 357 715 440 q 585 76 679 168 q 328 -17 490 -17 m 333 86 q 503 154 443 86 q 585 374 563 222 q 593 476 593 432 q 545 603 590 560 q 411 646 500 646 q 242 577 301 646 q 160 357 182 508 q 153 254 153 308 q 201 129 156 172 q 333 86 246 86 z "},"ó":{"ha":772,"x_min":31,"x_max":715,"o":"m 31 0 m 328 -17 q 109 60 188 -17 q 31 272 31 136 q 38 374 31 308 q 160 655 65 563 q 417 747 254 747 q 637 672 558 747 q 715 463 715 597 q 707 357 715 440 q 585 76 679 168 q 328 -17 490 -17 m 333 86 q 503 154 443 86 q 585 374 563 222 q 593 476 593 432 q 545 603 590 560 q 411 646 500 646 q 242 577 301 646 q 160 357 182 508 q 153 254 153 308 q 201 129 156 172 q 333 86 246 86 m 375 821 l 525 1004 l 665 1004 l 667 1000 l 494 821 l 375 821 z "},"ŏ":{"ha":772,"x_min":31,"x_max":715,"o":"m 31 0 m 328 -17 q 109 60 188 -17 q 31 272 31 136 q 38 374 31 308 q 160 655 65 563 q 417 747 254 747 q 637 672 558 747 q 715 463 715 597 q 707 357 715 440 q 585 76 679 168 q 328 -17 490 -17 m 333 86 q 503 154 443 86 q 585 374 563 222 q 593 476 593 432 q 545 603 590 560 q 411 646 500 646 q 242 577 301 646 q 160 357 182 508 q 153 254 153 308 q 201 129 156 172 q 333 86 246 86 m 436 842 q 294 878 338 842 q 250 972 250 915 q 253 1004 250 993 l 338 1004 q 358 952 339 974 q 435 931 378 931 q 529 953 494 931 q 572 1004 564 976 l 657 1004 q 633 942 651 972 q 586 889 615 911 q 436 842 525 842 z "},"ǒ":{"ha":772,"x_min":31,"x_max":715,"o":"m 31 0 m 328 -17 q 109 60 188 -17 q 31 272 31 136 q 38 374 31 308 q 160 655 65 563 q 417 747 254 747 q 637 672 558 747 q 715 463 715 597 q 707 357 715 440 q 585 76 679 168 q 328 -17 490 -17 m 333 86 q 503 154 443 86 q 585 374 563 222 q 593 476 593 432 q 545 603 590 560 q 411 646 500 646 q 242 577 301 646 q 160 357 182 508 q 153 254 153 308 q 201 129 156 172 q 333 86 246 86 m 376 817 l 263 1004 l 382 1004 l 444 894 l 542 1004 l 672 1004 l 493 817 l 376 817 z "},"ô":{"ha":772,"x_min":31,"x_max":715,"o":"m 31 0 m 328 -17 q 109 60 188 -17 q 31 272 31 136 q 38 374 31 308 q 160 655 65 563 q 417 747 254 747 q 637 672 558 747 q 715 463 715 597 q 707 357 715 440 q 585 76 679 168 q 328 -17 490 -17 m 333 86 q 503 154 443 86 q 585 374 563 222 q 593 476 593 432 q 545 603 590 560 q 411 646 500 646 q 242 577 301 646 q 160 357 182 508 q 153 254 153 308 q 201 129 156 172 q 333 86 246 86 m 224 817 l 403 1004 l 519 1004 l 633 817 l 514 817 l 454 926 l 354 817 l 224 817 z "},"ố":{"ha":772,"x_min":31,"x_max":863,"o":"m 31 0 m 328 -17 q 109 60 188 -17 q 31 272 31 136 q 38 374 31 308 q 160 655 65 563 q 417 747 254 747 q 637 672 558 747 q 715 463 715 597 q 707 357 715 440 q 585 76 679 168 q 328 -17 490 -17 m 333 86 q 503 154 443 86 q 585 374 563 222 q 593 476 593 432 q 545 603 590 560 q 411 646 500 646 q 242 577 301 646 q 160 357 182 508 q 153 254 153 308 q 201 129 156 172 q 333 86 246 86 m 224 817 l 403 1004 l 519 1004 l 633 817 l 514 817 l 454 926 l 354 817 l 224 817 m 571 953 l 721 1136 l 861 1136 l 863 1132 l 690 953 l 571 953 z "},"ộ":{"ha":772,"x_min":31,"x_max":715,"o":"m 31 0 m 328 -17 q 109 60 188 -17 q 31 272 31 136 q 38 374 31 308 q 160 655 65 563 q 417 747 254 747 q 637 672 558 747 q 715 463 715 597 q 707 357 715 440 q 585 76 679 168 q 328 -17 490 -17 m 333 86 q 503 154 443 86 q 585 374 563 222 q 593 476 593 432 q 545 603 590 560 q 411 646 500 646 q 242 577 301 646 q 160 357 182 508 q 153 254 153 308 q 201 129 156 172 q 333 86 246 86 m 224 817 l 403 1004 l 519 1004 l 633 817 l 514 817 l 454 926 l 354 817 l 224 817 m 219 -240 l 243 -108 l 364 -108 l 340 -240 l 219 -240 z "},"ồ":{"ha":772,"x_min":31,"x_max":738,"o":"m 31 0 m 328 -17 q 109 60 188 -17 q 31 272 31 136 q 38 374 31 308 q 160 655 65 563 q 417 747 254 747 q 637 672 558 747 q 715 463 715 597 q 707 357 715 440 q 585 76 679 168 q 328 -17 490 -17 m 333 86 q 503 154 443 86 q 585 374 563 222 q 593 476 593 432 q 545 603 590 560 q 411 646 500 646 q 242 577 301 646 q 160 357 182 508 q 153 254 153 308 q 201 129 156 172 q 333 86 246 86 m 224 817 l 403 1004 l 519 1004 l 633 817 l 514 817 l 454 926 l 354 817 l 224 817 m 633 953 l 515 1132 l 517 1136 l 650 1136 l 738 953 l 633 953 z "},"ổ":{"ha":772,"x_min":31,"x_max":772,"o":"m 31 0 m 328 -17 q 109 60 188 -17 q 31 272 31 136 q 38 374 31 308 q 160 655 65 563 q 417 747 254 747 q 637 672 558 747 q 715 463 715 597 q 707 357 715 440 q 585 76 679 168 q 328 -17 490 -17 m 333 86 q 503 154 443 86 q 585 374 563 222 q 593 476 593 432 q 545 603 590 560 q 411 646 500 646 q 242 577 301 646 q 160 357 182 508 q 153 254 153 308 q 201 129 156 172 q 333 86 246 86 m 224 817 l 403 1004 l 519 1004 l 633 817 l 514 817 l 454 926 l 354 817 l 224 817 m 607 1038 l 625 1038 q 659 1045 649 1038 q 669 1068 669 1053 q 660 1083 669 1079 q 631 1088 650 1088 l 547 1088 l 557 1142 q 660 1153 606 1153 q 739 1138 706 1153 q 772 1085 772 1122 q 744 1019 772 1042 q 676 992 717 996 l 669 953 l 592 953 l 607 1038 z "},"ỗ":{"ha":772,"x_min":31,"x_max":729,"o":"m 31 0 m 328 -17 q 109 60 188 -17 q 31 272 31 136 q 38 374 31 308 q 160 655 65 563 q 417 747 254 747 q 637 672 558 747 q 715 463 715 597 q 707 357 715 440 q 585 76 679 168 q 328 -17 490 -17 m 333 86 q 503 154 443 86 q 585 374 563 222 q 593 476 593 432 q 545 603 590 560 q 411 646 500 646 q 242 577 301 646 q 160 357 182 508 q 153 254 153 308 q 201 129 156 172 q 333 86 246 86 m 224 817 l 403 1004 l 519 1004 l 633 817 l 514 817 l 454 926 l 354 817 l 224 817 m 250 1082 q 297 1185 260 1144 q 393 1226 333 1226 q 444 1221 419 1226 q 499 1204 468 1215 q 592 1183 553 1183 q 639 1226 628 1183 l 729 1226 q 681 1123 718 1164 q 585 1082 644 1082 q 534 1088 558 1082 q 479 1104 510 1093 q 386 1125 425 1125 q 339 1082 350 1125 l 250 1082 z "},"ȍ":{"ha":772,"x_min":31,"x_max":715,"o":"m 31 0 m 328 -17 q 109 60 188 -17 q 31 272 31 136 q 38 374 31 308 q 160 655 65 563 q 417 747 254 747 q 637 672 558 747 q 715 463 715 597 q 707 357 715 440 q 585 76 679 168 q 328 -17 490 -17 m 333 86 q 503 154 443 86 q 585 374 563 222 q 593 476 593 432 q 545 603 590 560 q 411 646 500 646 q 242 577 301 646 q 160 357 182 508 q 153 254 153 308 q 201 129 156 172 q 333 86 246 86 m 306 821 l 221 1000 l 224 1004 l 358 1004 l 411 821 l 306 821 m 499 821 l 414 1000 l 417 1004 l 551 1004 l 604 821 l 499 821 z "},"ö":{"ha":772,"x_min":31,"x_max":715,"o":"m 31 0 m 328 -17 q 109 60 188 -17 q 31 272 31 136 q 38 374 31 308 q 160 655 65 563 q 417 747 254 747 q 637 672 558 747 q 715 463 715 597 q 707 357 715 440 q 585 76 679 168 q 328 -17 490 -17 m 333 86 q 503 154 443 86 q 585 374 563 222 q 593 476 593 432 q 545 603 590 560 q 411 646 500 646 q 242 577 301 646 q 160 357 182 508 q 153 254 153 308 q 201 129 156 172 q 333 86 246 86 m 254 872 l 278 1004 l 399 1004 l 375 872 l 254 872 m 514 872 l 538 1004 l 658 1004 l 635 872 l 514 872 z "},"ọ":{"ha":772,"x_min":31,"x_max":715,"o":"m 31 0 m 328 -17 q 109 60 188 -17 q 31 272 31 136 q 38 374 31 308 q 160 655 65 563 q 417 747 254 747 q 637 672 558 747 q 715 463 715 597 q 707 357 715 440 q 585 76 679 168 q 328 -17 490 -17 m 333 86 q 503 154 443 86 q 585 374 563 222 q 593 476 593 432 q 545 603 590 560 q 411 646 500 646 q 242 577 301 646 q 160 357 182 508 q 153 254 153 308 q 201 129 156 172 q 333 86 246 86 m 219 -240 l 243 -108 l 364 -108 l 340 -240 l 219 -240 z "},"ò":{"ha":772,"x_min":31,"x_max":715,"o":"m 31 0 m 328 -17 q 109 60 188 -17 q 31 272 31 136 q 38 374 31 308 q 160 655 65 563 q 417 747 254 747 q 637 672 558 747 q 715 463 715 597 q 707 357 715 440 q 585 76 679 168 q 328 -17 490 -17 m 333 86 q 503 154 443 86 q 585 374 563 222 q 593 476 593 432 q 545 603 590 560 q 411 646 500 646 q 242 577 301 646 q 160 357 182 508 q 153 254 153 308 q 201 129 156 172 q 333 86 246 86 m 383 821 l 265 1000 l 267 1004 l 400 1004 l 488 821 l 383 821 z "},"ỏ":{"ha":772,"x_min":31,"x_max":715,"o":"m 31 0 m 328 -17 q 109 60 188 -17 q 31 272 31 136 q 38 374 31 308 q 160 655 65 563 q 417 747 254 747 q 637 672 558 747 q 715 463 715 597 q 707 357 715 440 q 585 76 679 168 q 328 -17 490 -17 m 333 86 q 503 154 443 86 q 585 374 563 222 q 593 476 593 432 q 545 603 590 560 q 411 646 500 646 q 242 577 301 646 q 160 357 182 508 q 153 254 153 308 q 201 129 156 172 q 333 86 246 86 m 413 906 l 431 906 q 465 913 454 906 q 475 936 475 921 q 465 951 475 947 q 436 956 456 956 l 353 956 l 363 1010 q 465 1021 411 1021 q 544 1006 511 1021 q 578 953 578 990 q 550 887 578 910 q 482 860 522 864 l 475 821 l 397 821 l 413 906 z "},"ơ":{"ha":772,"x_min":31,"x_max":885,"o":"m 885 953 l 872 878 q 808 719 858 783 q 675 624 758 654 q 715 463 715 558 q 707 357 715 440 q 585 76 679 168 q 328 -17 490 -17 q 109 60 188 -17 q 31 272 31 136 q 38 374 31 308 q 160 655 65 563 q 417 747 254 747 q 619 686 543 747 q 767 803 731 711 l 706 803 l 732 953 l 885 953 m 585 374 q 593 476 593 432 q 545 603 590 560 q 411 646 500 646 q 242 577 301 646 q 160 357 182 508 q 153 254 153 308 q 201 129 156 172 q 333 86 246 86 q 503 154 443 86 q 585 374 563 222 z "},"ớ":{"ha":772,"x_min":31,"x_max":885,"o":"m 31 0 m 885 953 l 872 878 q 808 719 858 783 q 675 624 758 654 q 715 463 715 558 q 707 357 715 440 q 585 76 679 168 q 328 -17 490 -17 q 109 60 188 -17 q 31 272 31 136 q 38 374 31 308 q 160 655 65 563 q 417 747 254 747 q 619 686 543 747 q 767 803 731 711 l 706 803 l 732 953 l 885 953 m 585 374 q 593 476 593 432 q 545 603 590 560 q 411 646 500 646 q 242 577 301 646 q 160 357 182 508 q 153 254 153 308 q 201 129 156 172 q 333 86 246 86 q 503 154 443 86 q 585 374 563 222 m 375 821 l 525 1004 l 665 1004 l 667 1000 l 494 821 l 375 821 z "},"ợ":{"ha":772,"x_min":31,"x_max":885,"o":"m 31 0 m 885 953 l 872 878 q 808 719 858 783 q 675 624 758 654 q 715 463 715 558 q 707 357 715 440 q 585 76 679 168 q 328 -17 490 -17 q 109 60 188 -17 q 31 272 31 136 q 38 374 31 308 q 160 655 65 563 q 417 747 254 747 q 619 686 543 747 q 767 803 731 711 l 706 803 l 732 953 l 885 953 m 585 374 q 593 476 593 432 q 545 603 590 560 q 411 646 500 646 q 242 577 301 646 q 160 357 182 508 q 153 254 153 308 q 201 129 156 172 q 333 86 246 86 q 503 154 443 86 q 585 374 563 222 m 219 -240 l 243 -108 l 364 -108 l 340 -240 l 219 -240 z "},"ờ":{"ha":772,"x_min":31,"x_max":885,"o":"m 31 0 m 885 953 l 872 878 q 808 719 858 783 q 675 624 758 654 q 715 463 715 558 q 707 357 715 440 q 585 76 679 168 q 328 -17 490 -17 q 109 60 188 -17 q 31 272 31 136 q 38 374 31 308 q 160 655 65 563 q 417 747 254 747 q 619 686 543 747 q 767 803 731 711 l 706 803 l 732 953 l 885 953 m 585 374 q 593 476 593 432 q 545 603 590 560 q 411 646 500 646 q 242 577 301 646 q 160 357 182 508 q 153 254 153 308 q 201 129 156 172 q 333 86 246 86 q 503 154 443 86 q 585 374 563 222 m 383 821 l 265 1000 l 267 1004 l 400 1004 l 488 821 l 383 821 z "},"ở":{"ha":772,"x_min":31,"x_max":885,"o":"m 31 0 m 885 953 l 872 878 q 808 719 858 783 q 675 624 758 654 q 715 463 715 558 q 707 357 715 440 q 585 76 679 168 q 328 -17 490 -17 q 109 60 188 -17 q 31 272 31 136 q 38 374 31 308 q 160 655 65 563 q 417 747 254 747 q 619 686 543 747 q 767 803 731 711 l 706 803 l 732 953 l 885 953 m 585 374 q 593 476 593 432 q 545 603 590 560 q 411 646 500 646 q 242 577 301 646 q 160 357 182 508 q 153 254 153 308 q 201 129 156 172 q 333 86 246 86 q 503 154 443 86 q 585 374 563 222 m 413 906 l 431 906 q 465 913 454 906 q 475 936 475 921 q 465 951 475 947 q 436 956 456 956 l 353 956 l 363 1010 q 465 1021 411 1021 q 544 1006 511 1021 q 578 953 578 990 q 550 887 578 910 q 482 860 522 864 l 475 821 l 397 821 l 413 906 z "},"ỡ":{"ha":772,"x_min":31,"x_max":885,"o":"m 31 0 m 885 953 l 872 878 q 808 719 858 783 q 675 624 758 654 q 715 463 715 558 q 707 357 715 440 q 585 76 679 168 q 328 -17 490 -17 q 109 60 188 -17 q 31 272 31 136 q 38 374 31 308 q 160 655 65 563 q 417 747 254 747 q 619 686 543 747 q 767 803 731 711 l 706 803 l 732 953 l 885 953 m 585 374 q 593 476 593 432 q 545 603 590 560 q 411 646 500 646 q 242 577 301 646 q 160 357 182 508 q 153 254 153 308 q 201 129 156 172 q 333 86 246 86 q 503 154 443 86 q 585 374 563 222 m 215 860 q 262 963 225 922 q 358 1004 299 1004 q 409 999 385 1004 q 464 982 433 993 q 557 961 518 961 q 604 1004 593 961 l 694 1004 q 647 901 683 942 q 550 860 610 860 q 499 865 524 860 q 444 882 475 871 q 351 903 390 903 q 304 860 315 903 l 215 860 z "},"ő":{"ha":772,"x_min":31,"x_max":739,"o":"m 31 0 m 328 -17 q 109 60 188 -17 q 31 272 31 136 q 38 374 31 308 q 160 655 65 563 q 417 747 254 747 q 637 672 558 747 q 715 463 715 597 q 707 357 715 440 q 585 76 679 168 q 328 -17 490 -17 m 333 86 q 503 154 443 86 q 585 374 563 222 q 593 476 593 432 q 545 603 590 560 q 411 646 500 646 q 242 577 301 646 q 160 357 182 508 q 153 254 153 308 q 201 129 156 172 q 333 86 246 86 m 281 821 l 399 1004 l 539 1004 l 540 1000 l 392 821 l 281 821 m 479 821 l 597 1004 l 738 1004 l 739 1000 l 590 821 l 479 821 z "},"ȏ":{"ha":772,"x_min":31,"x_max":715,"o":"m 31 0 m 328 -17 q 109 60 188 -17 q 31 272 31 136 q 38 374 31 308 q 160 655 65 563 q 417 747 254 747 q 637 672 558 747 q 715 463 715 597 q 707 357 715 440 q 585 76 679 168 q 328 -17 490 -17 m 333 86 q 503 154 443 86 q 585 374 563 222 q 593 476 593 432 q 545 603 590 560 q 411 646 500 646 q 242 577 301 646 q 160 357 182 508 q 153 254 153 308 q 201 129 156 172 q 333 86 246 86 m 236 842 q 467 1004 265 1004 q 600 965 557 1004 q 643 867 643 925 q 640 842 643 858 l 556 842 q 534 893 557 871 q 451 915 511 915 q 321 842 351 915 l 236 842 z "},"ō":{"ha":772,"x_min":31,"x_max":715,"o":"m 31 0 m 328 -17 q 109 60 188 -17 q 31 272 31 136 q 38 374 31 308 q 160 655 65 563 q 417 747 254 747 q 637 672 558 747 q 715 463 715 597 q 707 357 715 440 q 585 76 679 168 q 328 -17 490 -17 m 333 86 q 503 154 443 86 q 585 374 563 222 q 593 476 593 432 q 545 603 590 560 q 411 646 500 646 q 242 577 301 646 q 160 357 182 508 q 153 254 153 308 q 201 129 156 172 q 333 86 246 86 m 233 871 l 251 971 l 675 971 l 657 871 l 233 871 z "},"ǫ":{"ha":772,"x_min":31,"x_max":715,"o":"m 417 747 q 637 672 558 747 q 715 463 715 597 q 707 357 715 440 q 488 13 668 86 l 488 11 q 438 -42 458 -11 q 417 -106 417 -72 q 431 -147 417 -131 q 478 -162 446 -162 l 522 -162 l 510 -233 q 421 -253 460 -253 q 335 -228 371 -253 q 299 -150 299 -204 q 365 -15 299 -76 q 328 -17 353 -17 q 109 60 188 -17 q 31 272 31 136 q 38 374 31 308 q 160 655 65 563 q 417 747 254 747 m 585 374 q 593 476 593 432 q 545 603 590 560 q 411 646 500 646 q 242 577 301 646 q 160 357 182 508 q 153 254 153 308 q 201 129 156 172 q 333 86 246 86 q 503 154 443 86 q 585 374 563 222 z "},"ø":{"ha":849,"x_min":11,"x_max":804,"o":"m 121 69 q 63 257 63 136 q 101 498 63 388 q 225 678 139 608 q 446 747 311 747 q 631 710 558 747 l 701 799 l 804 799 l 693 658 q 750 471 750 590 q 712 231 750 342 q 588 52 674 121 q 367 -17 501 -17 q 183 19 256 -17 l 114 -68 l 11 -68 l 121 69 m 557 618 q 442 646 514 646 q 288 583 346 646 q 207 419 231 521 q 190 268 190 353 q 204 175 190 211 l 557 618 m 371 85 q 509 133 454 85 q 592 261 564 181 q 622 460 622 346 q 608 553 622 517 l 256 110 q 371 85 296 85 z "},"ǿ":{"ha":849,"x_min":11,"x_max":804,"o":"m 11 0 m 121 69 q 63 257 63 136 q 101 498 63 388 q 225 678 139 608 q 446 747 311 747 q 631 710 558 747 l 701 799 l 804 799 l 693 658 q 750 471 750 590 q 712 231 750 342 q 588 52 674 121 q 367 -17 501 -17 q 183 19 256 -17 l 114 -68 l 11 -68 l 121 69 m 557 618 q 442 646 514 646 q 288 583 346 646 q 207 419 231 521 q 190 268 190 353 q 204 175 190 211 l 557 618 m 371 85 q 509 133 454 85 q 592 261 564 181 q 622 460 622 346 q 608 553 622 517 l 256 110 q 371 85 296 85 m 444 821 l 594 1004 l 735 1004 l 736 1000 l 564 821 l 444 821 z "},"õ":{"ha":772,"x_min":31,"x_max":715,"o":"m 31 0 m 328 -17 q 109 60 188 -17 q 31 272 31 136 q 38 374 31 308 q 160 655 65 563 q 417 747 254 747 q 637 672 558 747 q 715 463 715 597 q 707 357 715 440 q 585 76 679 168 q 328 -17 490 -17 m 333 86 q 503 154 443 86 q 585 374 563 222 q 593 476 593 432 q 545 603 590 560 q 411 646 500 646 q 242 577 301 646 q 160 357 182 508 q 153 254 153 308 q 201 129 156 172 q 333 86 246 86 m 215 860 q 262 963 225 922 q 358 1004 299 1004 q 409 999 385 1004 q 464 982 433 993 q 557 961 518 961 q 604 1004 593 961 l 694 1004 q 647 901 683 942 q 550 860 610 860 q 499 865 524 860 q 444 882 475 871 q 351 903 390 903 q 304 860 315 903 l 215 860 z "},"œ":{"ha":1311,"x_min":29,"x_max":1258,"o":"m 333 -17 q 29 257 29 -17 q 67 498 29 388 q 192 678 106 608 q 413 747 278 747 q 683 613 617 747 q 972 747 789 747 q 1185 683 1111 747 q 1258 496 1258 619 q 1247 393 1258 453 l 1236 332 l 707 332 q 703 279 703 313 q 751 133 703 181 q 897 85 799 85 q 1033 125 976 85 q 1103 249 1089 165 l 1222 249 q 1113 52 1201 121 q 900 -17 1024 -17 q 613 121 682 -17 q 333 -17 511 -17 m 338 85 q 498 154 439 85 q 578 333 557 224 q 589 460 589 389 q 545 601 589 557 q 408 646 501 646 q 244 572 303 646 q 167 383 185 499 q 157 268 157 331 q 201 128 157 172 q 338 85 244 85 m 1129 433 q 1135 488 1135 453 q 968 646 1135 646 q 812 591 874 646 q 725 433 750 536 l 1129 433 z "},"p":{"ha":772,"x_min":-29,"x_max":717,"o":"m 142 731 l 232 731 l 232 632 l 240 632 q 342 718 283 689 q 469 747 401 747 q 652 676 588 747 q 717 458 717 606 q 671 208 717 317 q 545 42 625 100 q 367 -17 465 -17 q 158 83 217 -17 l 150 83 l 93 -240 l -29 -240 l 142 731 m 350 85 q 526 192 464 85 q 589 464 589 299 q 552 604 589 563 q 435 646 515 646 q 301 591 356 646 q 218 447 246 536 q 190 257 190 358 q 228 128 190 171 q 350 85 267 85 z "},"þ":{"ha":772,"x_min":-29,"x_max":717,"o":"m 189 1004 l 311 1004 l 249 647 l 256 647 q 469 747 340 747 q 652 676 588 747 q 717 458 717 606 q 671 208 717 317 q 545 42 625 100 q 367 -17 465 -17 q 158 83 217 -17 l 150 83 l 93 -240 l -29 -240 l 189 1004 m 350 85 q 526 192 464 85 q 589 464 589 299 q 552 604 589 563 q 435 646 515 646 q 301 591 356 646 q 218 447 246 536 q 190 257 190 358 q 228 128 190 171 q 350 85 267 85 z "},"q":{"ha":772,"x_min":29,"x_max":731,"o":"m 494 83 l 486 83 q 260 -17 394 -17 q 90 49 150 -17 q 29 249 29 115 q 73 509 29 396 q 196 685 117 622 q 378 747 275 747 q 513 718 456 747 q 599 632 569 689 l 607 632 l 639 731 l 731 731 l 560 -240 l 438 -240 l 494 83 m 306 85 q 441 138 385 85 q 526 278 497 192 q 554 461 554 364 q 518 599 554 553 q 404 646 482 646 q 219 535 283 646 q 156 253 156 424 q 192 124 156 163 q 306 85 228 85 z "},"r":{"ha":463,"x_min":18,"x_max":501,"o":"m 147 731 l 240 731 l 235 621 l 243 621 q 438 747 315 747 q 480 742 463 747 q 501 736 497 738 l 481 618 l 429 618 q 292 569 351 618 q 214 418 232 521 l 140 0 l 18 0 l 147 731 z "},"ŕ":{"ha":463,"x_min":18,"x_max":543,"o":"m 18 0 m 147 731 l 240 731 l 235 621 l 243 621 q 438 747 315 747 q 480 742 463 747 q 501 736 497 738 l 481 618 l 429 618 q 292 569 351 618 q 214 418 232 521 l 140 0 l 18 0 l 147 731 m 251 821 l 401 1004 l 542 1004 l 543 1000 l 371 821 l 251 821 z "},"ř":{"ha":463,"x_min":18,"x_max":549,"o":"m 18 0 m 147 731 l 240 731 l 235 621 l 243 621 q 438 747 315 747 q 480 742 463 747 q 501 736 497 738 l 481 618 l 429 618 q 292 569 351 618 q 214 418 232 521 l 140 0 l 18 0 l 147 731 m 253 817 l 139 1004 l 258 1004 l 321 894 l 418 1004 l 549 1004 l 369 817 l 253 817 z "},"ŗ":{"ha":463,"x_min":-40,"x_max":501,"o":"m 0 0 m 147 731 l 240 731 l 235 621 l 243 621 q 438 747 315 747 q 480 742 463 747 q 501 736 497 738 l 481 618 l 429 618 q 292 569 351 618 q 214 418 232 521 l 140 0 l 18 0 l 147 731 m -40 -319 l 32 -207 l -17 -207 l 6 -81 l 128 -81 l 107 -197 l 25 -319 l -40 -319 z "},"ȑ":{"ha":463,"x_min":18,"x_max":501,"o":"m 18 0 m 147 731 l 240 731 l 235 621 l 243 621 q 438 747 315 747 q 480 742 463 747 q 501 736 497 738 l 481 618 l 429 618 q 292 569 351 618 q 214 418 232 521 l 140 0 l 18 0 l 147 731 m 182 821 l 97 1000 l 100 1004 l 235 1004 l 288 821 l 182 821 m 375 821 l 290 1000 l 293 1004 l 428 1004 l 481 821 l 375 821 z "},"ṛ":{"ha":463,"x_min":-24,"x_max":501,"o":"m 0 0 m 147 731 l 240 731 l 235 621 l 243 621 q 438 747 315 747 q 480 742 463 747 q 501 736 497 738 l 481 618 l 429 618 q 292 569 351 618 q 214 418 232 521 l 140 0 l 18 0 l 147 731 m -24 -240 l 0 -108 l 121 -108 l 97 -240 l -24 -240 z "},"ȓ":{"ha":463,"x_min":18,"x_max":519,"o":"m 18 0 m 147 731 l 240 731 l 235 621 l 243 621 q 438 747 315 747 q 480 742 463 747 q 501 736 497 738 l 481 618 l 429 618 q 292 569 351 618 q 214 418 232 521 l 140 0 l 18 0 l 147 731 m 113 842 q 343 1004 142 1004 q 476 965 433 1004 q 519 867 519 925 q 517 842 519 858 l 432 842 q 410 893 433 871 q 328 915 388 915 q 197 842 228 915 l 113 842 z "},"s":{"ha":694,"x_min":1,"x_max":649,"o":"m 294 -17 q 74 34 146 -17 q 1 164 1 85 q 6 203 1 183 q 11 228 10 222 l 132 228 q 126 190 126 207 q 169 110 126 136 q 285 83 213 83 q 420 116 365 83 q 475 204 475 149 q 452 262 475 239 q 395 298 429 285 q 301 329 361 311 q 187 369 231 350 q 113 422 143 388 q 82 511 82 456 q 122 635 82 582 q 230 718 161 689 q 385 747 299 747 q 581 700 513 747 q 649 578 649 653 q 645 546 649 564 q 639 521 642 528 l 519 521 q 524 553 524 538 q 492 620 524 594 q 388 646 460 646 q 251 612 290 646 q 213 539 213 578 q 251 476 213 497 q 374 433 290 456 q 494 393 449 413 q 574 336 540 374 q 607 238 607 299 q 517 48 607 113 q 294 -17 428 -17 z "},"ś":{"ha":694,"x_min":1,"x_max":658,"o":"m 1 0 m 294 -17 q 74 34 146 -17 q 1 164 1 85 q 6 203 1 183 q 11 228 10 222 l 132 228 q 126 190 126 207 q 169 110 126 136 q 285 83 213 83 q 420 116 365 83 q 475 204 475 149 q 452 262 475 239 q 395 298 429 285 q 301 329 361 311 q 187 369 231 350 q 113 422 143 388 q 82 511 82 456 q 122 635 82 582 q 230 718 161 689 q 385 747 299 747 q 581 700 513 747 q 649 578 649 653 q 645 546 649 564 q 639 521 642 528 l 519 521 q 524 553 524 538 q 492 620 524 594 q 388 646 460 646 q 251 612 290 646 q 213 539 213 578 q 251 476 213 497 q 374 433 290 456 q 494 393 449 413 q 574 336 540 374 q 607 238 607 299 q 517 48 607 113 q 294 -17 428 -17 m 367 821 l 517 1004 l 657 1004 l 658 1000 l 486 821 l 367 821 z "},"ꞌ":{"ha":217,"x_min":54,"x_max":283,"o":"m 54 400 l 158 1004 l 283 1004 l 250 811 l 121 400 l 54 400 z "},"š":{"ha":694,"x_min":1,"x_max":664,"o":"m 1 0 m 294 -17 q 74 34 146 -17 q 1 164 1 85 q 6 203 1 183 q 11 228 10 222 l 132 228 q 126 190 126 207 q 169 110 126 136 q 285 83 213 83 q 420 116 365 83 q 475 204 475 149 q 452 262 475 239 q 395 298 429 285 q 301 329 361 311 q 187 369 231 350 q 113 422 143 388 q 82 511 82 456 q 122 635 82 582 q 230 718 161 689 q 385 747 299 747 q 581 700 513 747 q 649 578 649 653 q 645 546 649 564 q 639 521 642 528 l 519 521 q 524 553 524 538 q 492 620 524 594 q 388 646 460 646 q 251 612 290 646 q 213 539 213 578 q 251 476 213 497 q 374 433 290 456 q 494 393 449 413 q 574 336 540 374 q 607 238 607 299 q 517 48 607 113 q 294 -17 428 -17 m 368 817 l 254 1004 l 374 1004 l 436 894 l 533 1004 l 664 1004 l 485 817 l 368 817 z "},"ş":{"ha":694,"x_min":1,"x_max":649,"o":"m 519 521 q 524 553 524 538 q 492 620 524 594 q 388 646 460 646 q 251 612 290 646 q 213 539 213 578 q 251 476 213 497 q 374 433 290 456 q 494 393 449 413 q 574 336 540 374 q 607 238 607 299 q 524 53 607 118 q 318 -17 442 -11 l 306 -50 q 388 -70 356 -50 q 419 -131 419 -90 q 247 -253 419 -253 q 104 -242 167 -253 l 117 -174 l 256 -174 q 302 -165 286 -174 q 318 -132 318 -156 q 307 -113 318 -119 q 269 -107 296 -107 l 199 -107 l 232 -14 q 58 46 115 -3 q 1 164 1 94 q 6 203 1 183 q 11 228 10 222 l 132 228 q 126 190 126 207 q 169 110 126 136 q 285 83 213 83 q 420 116 365 83 q 475 204 475 149 q 452 262 475 239 q 395 298 429 285 q 301 329 361 311 q 187 369 231 350 q 113 422 143 388 q 82 511 82 456 q 122 635 82 582 q 230 718 161 689 q 385 747 299 747 q 581 700 513 747 q 649 578 649 653 q 645 546 649 564 q 639 521 642 528 l 519 521 z "},"ŝ":{"ha":694,"x_min":1,"x_max":649,"o":"m 1 0 m 294 -17 q 74 34 146 -17 q 1 164 1 85 q 6 203 1 183 q 11 228 10 222 l 132 228 q 126 190 126 207 q 169 110 126 136 q 285 83 213 83 q 420 116 365 83 q 475 204 475 149 q 452 262 475 239 q 395 298 429 285 q 301 329 361 311 q 187 369 231 350 q 113 422 143 388 q 82 511 82 456 q 122 635 82 582 q 230 718 161 689 q 385 747 299 747 q 581 700 513 747 q 649 578 649 653 q 645 546 649 564 q 639 521 642 528 l 519 521 q 524 553 524 538 q 492 620 524 594 q 388 646 460 646 q 251 612 290 646 q 213 539 213 578 q 251 476 213 497 q 374 433 290 456 q 494 393 449 413 q 574 336 540 374 q 607 238 607 299 q 517 48 607 113 q 294 -17 428 -17 m 215 817 l 394 1004 l 511 1004 l 625 817 l 506 817 l 446 926 l 346 817 l 215 817 z "},"ș":{"ha":694,"x_min":1,"x_max":649,"o":"m 1 0 m 294 -17 q 74 34 146 -17 q 1 164 1 85 q 6 203 1 183 q 11 228 10 222 l 132 228 q 126 190 126 207 q 169 110 126 136 q 285 83 213 83 q 420 116 365 83 q 475 204 475 149 q 452 262 475 239 q 395 298 429 285 q 301 329 361 311 q 187 369 231 350 q 113 422 143 388 q 82 511 82 456 q 122 635 82 582 q 230 718 161 689 q 385 747 299 747 q 581 700 513 747 q 649 578 649 653 q 645 546 649 564 q 639 521 642 528 l 519 521 q 524 553 524 538 q 492 620 524 594 q 388 646 460 646 q 251 612 290 646 q 213 539 213 578 q 251 476 213 497 q 374 433 290 456 q 494 393 449 413 q 574 336 540 374 q 607 238 607 299 q 517 48 607 113 q 294 -17 428 -17 m 164 -319 l 236 -207 l 188 -207 l 210 -81 l 332 -81 l 311 -197 l 229 -319 l 164 -319 z "},"ṣ":{"ha":694,"x_min":1,"x_max":649,"o":"m 1 0 m 294 -17 q 74 34 146 -17 q 1 164 1 85 q 6 203 1 183 q 11 228 10 222 l 132 228 q 126 190 126 207 q 169 110 126 136 q 285 83 213 83 q 420 116 365 83 q 475 204 475 149 q 452 262 475 239 q 395 298 429 285 q 301 329 361 311 q 187 369 231 350 q 113 422 143 388 q 82 511 82 456 q 122 635 82 582 q 230 718 161 689 q 385 747 299 747 q 581 700 513 747 q 649 578 649 653 q 645 546 649 564 q 639 521 642 528 l 519 521 q 524 553 524 538 q 492 620 524 594 q 388 646 460 646 q 251 612 290 646 q 213 539 213 578 q 251 476 213 497 q 374 433 290 456 q 494 393 449 413 q 574 336 540 374 q 607 238 607 299 q 517 48 607 113 q 294 -17 428 -17 m 181 -240 l 204 -108 l 325 -108 l 301 -240 l 181 -240 z "},"ß":{"ha":849,"x_min":8,"x_max":826,"o":"m 133 717 q 267 946 160 868 q 526 1021 369 1021 q 744 960 661 1021 q 826 796 826 900 q 769 646 826 717 q 619 549 711 575 l 619 543 q 737 461 694 518 q 779 324 779 404 q 728 157 779 231 q 597 42 678 83 q 433 0 517 0 l 247 0 l 265 103 l 424 103 q 535 133 481 103 q 622 212 589 163 q 656 317 656 261 q 606 440 656 393 q 476 486 556 486 l 332 486 l 350 588 l 481 588 q 587 614 536 588 q 669 683 638 640 q 700 775 700 726 q 654 881 700 842 q 521 919 608 919 q 344 868 413 919 q 257 719 275 817 l 131 0 l 8 0 l 133 717 z "},"ſ":{"ha":386,"x_min":-140,"x_max":479,"o":"m -39 -253 q -94 -248 -67 -253 q -140 -236 -122 -243 l -125 -151 l -53 -151 q 25 -85 14 -151 l 151 629 l 44 629 l 63 731 l 169 731 l 190 847 q 244 969 203 922 q 378 1015 285 1015 q 433 1010 406 1015 q 479 999 461 1006 l 464 914 l 392 914 q 313 847 324 914 l 147 -85 q 93 -207 133 -161 q -39 -253 53 -253 z "},"ə":{"ha":772,"x_min":42,"x_max":729,"o":"m 307 -17 q 110 52 179 -17 q 42 246 42 121 q 50 338 42 290 l 61 399 l 599 399 q 603 464 603 435 q 558 602 603 558 q 424 646 514 646 q 273 606 335 646 q 196 482 211 565 l 76 482 q 215 697 101 629 q 447 747 306 747 q 656 674 583 747 q 729 468 729 601 q 692 249 729 363 q 590 75 654 136 q 471 6 540 28 q 307 -17 401 -17 m 328 85 q 486 135 424 85 q 578 297 549 186 l 171 297 q 164 232 164 258 q 206 119 164 154 q 328 85 249 85 z "},"t":{"ha":386,"x_min":57,"x_max":410,"o":"m 188 -15 q 88 17 118 -15 q 57 100 57 49 q 69 190 57 122 l 146 629 l 57 629 l 75 731 l 164 731 l 200 933 l 333 933 l 286 731 l 410 731 l 392 629 l 268 629 l 183 150 q 182 132 182 143 q 228 85 182 85 l 296 85 l 282 4 q 237 -10 264 -4 q 188 -15 210 -15 z "},"ŧ":{"ha":386,"x_min":10,"x_max":410,"o":"m 268 629 l 236 451 l 360 451 l 344 365 l 221 365 l 183 150 q 182 132 182 143 q 228 85 182 85 l 296 85 l 282 4 q 237 -10 264 -4 q 188 -15 210 -15 q 88 17 118 -15 q 57 100 57 49 q 69 190 57 122 l 100 365 l 10 365 l 25 451 l 115 451 l 146 629 l 57 629 l 75 731 l 164 731 l 200 933 l 333 933 l 286 731 l 410 731 l 392 629 l 268 629 z "},"ť":{"ha":521,"x_min":57,"x_max":626,"o":"m 460 732 l 533 878 l 486 878 l 508 1004 l 626 1004 l 606 888 l 521 732 l 460 732 m 188 -15 q 88 17 118 -15 q 57 100 57 49 q 69 190 57 122 l 146 629 l 57 629 l 75 731 l 164 731 l 200 933 l 333 933 l 286 731 l 410 731 l 392 629 l 268 629 l 183 150 q 182 132 182 143 q 228 85 182 85 l 296 85 l 282 4 q 237 -10 264 -4 q 188 -15 210 -15 z "},"ţ":{"ha":386,"x_min":-50,"x_max":410,"o":"m 183 150 q 182 132 182 143 q 228 85 182 85 l 296 85 l 282 4 q 237 -10 264 -4 q 188 -15 210 -15 q 164 -14 172 -15 l 151 -50 q 233 -70 201 -50 q 265 -131 265 -90 q 93 -253 265 -253 q -50 -242 13 -253 l -37 -174 l 101 -174 q 148 -165 132 -174 q 164 -132 164 -156 q 153 -113 164 -119 q 115 -107 142 -107 l 44 -107 l 89 15 q 57 100 57 43 q 69 190 57 122 l 146 629 l 57 629 l 75 731 l 164 731 l 200 933 l 333 933 l 286 731 l 410 731 l 392 629 l 268 629 l 183 150 z "},"ț":{"ha":386,"x_min":10,"x_max":410,"o":"m 10 0 m 188 -15 q 88 17 118 -15 q 57 100 57 49 q 69 190 57 122 l 146 629 l 57 629 l 75 731 l 164 731 l 200 933 l 333 933 l 286 731 l 410 731 l 392 629 l 268 629 l 183 150 q 182 132 182 143 q 228 85 182 85 l 296 85 l 282 4 q 237 -10 264 -4 q 188 -15 210 -15 m 10 -319 l 82 -207 l 33 -207 l 56 -81 l 178 -81 l 157 -197 l 75 -319 l 10 -319 z "},"ṭ":{"ha":386,"x_min":26,"x_max":410,"o":"m 26 0 m 188 -15 q 88 17 118 -15 q 57 100 57 49 q 69 190 57 122 l 146 629 l 57 629 l 75 731 l 164 731 l 200 933 l 333 933 l 286 731 l 410 731 l 392 629 l 268 629 l 183 150 q 182 132 182 143 q 228 85 182 85 l 296 85 l 282 4 q 237 -10 264 -4 q 188 -15 210 -15 m 26 -240 l 50 -108 l 171 -108 l 147 -240 l 26 -240 z "},"u":{"ha":772,"x_min":47,"x_max":732,"o":"m 265 -17 q 103 24 160 -17 q 47 156 47 65 q 57 246 47 190 l 142 731 l 264 731 l 181 254 q 174 181 174 208 q 202 106 174 128 q 282 85 231 85 q 392 113 339 85 q 485 192 446 140 q 536 313 524 243 l 610 731 l 732 731 l 603 0 l 514 0 l 514 99 l 504 99 q 397 15 463 47 q 265 -17 332 -17 z "},"ú":{"ha":772,"x_min":47,"x_max":732,"o":"m 47 0 m 265 -17 q 103 24 160 -17 q 47 156 47 65 q 57 246 47 190 l 142 731 l 264 731 l 181 254 q 174 181 174 208 q 202 106 174 128 q 282 85 231 85 q 392 113 339 85 q 485 192 446 140 q 536 313 524 243 l 610 731 l 732 731 l 603 0 l 514 0 l 514 99 l 504 99 q 397 15 463 47 q 265 -17 332 -17 m 393 821 l 543 1004 l 683 1004 l 685 1000 l 513 821 l 393 821 z "},"ŭ":{"ha":772,"x_min":47,"x_max":732,"o":"m 47 0 m 265 -17 q 103 24 160 -17 q 47 156 47 65 q 57 246 47 190 l 142 731 l 264 731 l 181 254 q 174 181 174 208 q 202 106 174 128 q 282 85 231 85 q 392 113 339 85 q 485 192 446 140 q 536 313 524 243 l 610 731 l 732 731 l 603 0 l 514 0 l 514 99 l 504 99 q 397 15 463 47 q 265 -17 332 -17 m 454 842 q 312 878 356 842 q 268 972 268 915 q 271 1004 268 993 l 356 1004 q 376 952 357 974 q 453 931 396 931 q 547 953 513 931 q 590 1004 582 976 l 675 1004 q 651 942 669 972 q 604 889 633 911 q 454 842 543 842 z "},"ǔ":{"ha":772,"x_min":47,"x_max":732,"o":"m 47 0 m 265 -17 q 103 24 160 -17 q 47 156 47 65 q 57 246 47 190 l 142 731 l 264 731 l 181 254 q 174 181 174 208 q 202 106 174 128 q 282 85 231 85 q 392 113 339 85 q 485 192 446 140 q 536 313 524 243 l 610 731 l 732 731 l 603 0 l 514 0 l 514 99 l 504 99 q 397 15 463 47 q 265 -17 332 -17 m 394 817 l 281 1004 l 400 1004 l 463 894 l 560 1004 l 690 1004 l 511 817 l 394 817 z "},"û":{"ha":772,"x_min":47,"x_max":732,"o":"m 47 0 m 265 -17 q 103 24 160 -17 q 47 156 47 65 q 57 246 47 190 l 142 731 l 264 731 l 181 254 q 174 181 174 208 q 202 106 174 128 q 282 85 231 85 q 392 113 339 85 q 485 192 446 140 q 536 313 524 243 l 610 731 l 732 731 l 603 0 l 514 0 l 514 99 l 504 99 q 397 15 463 47 q 265 -17 332 -17 m 242 817 l 421 1004 l 538 1004 l 651 817 l 532 817 l 472 926 l 372 817 l 242 817 z "},"ȕ":{"ha":772,"x_min":47,"x_max":732,"o":"m 47 0 m 265 -17 q 103 24 160 -17 q 47 156 47 65 q 57 246 47 190 l 142 731 l 264 731 l 181 254 q 174 181 174 208 q 202 106 174 128 q 282 85 231 85 q 392 113 339 85 q 485 192 446 140 q 536 313 524 243 l 610 731 l 732 731 l 603 0 l 514 0 l 514 99 l 504 99 q 397 15 463 47 q 265 -17 332 -17 m 324 821 l 239 1000 l 242 1004 l 376 1004 l 429 821 l 324 821 m 517 821 l 432 1000 l 435 1004 l 569 1004 l 622 821 l 517 821 z "},"ü":{"ha":772,"x_min":47,"x_max":732,"o":"m 47 0 m 265 -17 q 103 24 160 -17 q 47 156 47 65 q 57 246 47 190 l 142 731 l 264 731 l 181 254 q 174 181 174 208 q 202 106 174 128 q 282 85 231 85 q 392 113 339 85 q 485 192 446 140 q 536 313 524 243 l 610 731 l 732 731 l 603 0 l 514 0 l 514 99 l 504 99 q 397 15 463 47 q 265 -17 332 -17 m 272 872 l 296 1004 l 417 1004 l 393 872 l 272 872 m 532 872 l 556 1004 l 676 1004 l 653 872 l 532 872 z "},"ǘ":{"ha":772,"x_min":47,"x_max":732,"o":"m 47 0 m 265 -17 q 103 24 160 -17 q 47 156 47 65 q 57 246 47 190 l 142 731 l 264 731 l 181 254 q 174 181 174 208 q 202 106 174 128 q 282 85 231 85 q 392 113 339 85 q 485 192 446 140 q 536 313 524 243 l 610 731 l 732 731 l 603 0 l 514 0 l 514 99 l 504 99 q 397 15 463 47 q 265 -17 332 -17 m 272 872 l 296 1004 l 417 1004 l 393 872 l 272 872 m 532 872 l 556 1004 l 676 1004 l 653 872 l 532 872 m 435 1053 l 585 1236 l 725 1236 l 726 1232 l 554 1053 l 435 1053 z "},"ǚ":{"ha":772,"x_min":47,"x_max":732,"o":"m 47 0 m 265 -17 q 103 24 160 -17 q 47 156 47 65 q 57 246 47 190 l 142 731 l 264 731 l 181 254 q 174 181 174 208 q 202 106 174 128 q 282 85 231 85 q 392 113 339 85 q 485 192 446 140 q 536 313 524 243 l 610 731 l 732 731 l 603 0 l 514 0 l 514 99 l 504 99 q 397 15 463 47 q 265 -17 332 -17 m 272 872 l 296 1004 l 417 1004 l 393 872 l 272 872 m 532 872 l 556 1004 l 676 1004 l 653 872 l 532 872 m 436 1049 l 322 1236 l 442 1236 l 504 1126 l 601 1236 l 732 1236 l 553 1049 l 436 1049 z "},"ǜ":{"ha":772,"x_min":47,"x_max":732,"o":"m 47 0 m 265 -17 q 103 24 160 -17 q 47 156 47 65 q 57 246 47 190 l 142 731 l 264 731 l 181 254 q 174 181 174 208 q 202 106 174 128 q 282 85 231 85 q 392 113 339 85 q 485 192 446 140 q 536 313 524 243 l 610 731 l 732 731 l 603 0 l 514 0 l 514 99 l 504 99 q 397 15 463 47 q 265 -17 332 -17 m 272 872 l 296 1004 l 417 1004 l 393 872 l 272 872 m 532 872 l 556 1004 l 676 1004 l 653 872 l 532 872 m 443 1053 l 325 1232 l 326 1236 l 460 1236 l 547 1053 l 443 1053 z "},"ǖ":{"ha":772,"x_min":47,"x_max":735,"o":"m 47 0 m 265 -17 q 103 24 160 -17 q 47 156 47 65 q 57 246 47 190 l 142 731 l 264 731 l 181 254 q 174 181 174 208 q 202 106 174 128 q 282 85 231 85 q 392 113 339 85 q 485 192 446 140 q 536 313 524 243 l 610 731 l 732 731 l 603 0 l 514 0 l 514 99 l 504 99 q 397 15 463 47 q 265 -17 332 -17 m 272 872 l 296 1004 l 417 1004 l 393 872 l 272 872 m 532 872 l 556 1004 l 676 1004 l 653 872 l 532 872 m 293 1103 l 311 1203 l 735 1203 l 717 1103 l 293 1103 z "},"ụ":{"ha":772,"x_min":47,"x_max":732,"o":"m 47 0 m 265 -17 q 103 24 160 -17 q 47 156 47 65 q 57 246 47 190 l 142 731 l 264 731 l 181 254 q 174 181 174 208 q 202 106 174 128 q 282 85 231 85 q 392 113 339 85 q 485 192 446 140 q 536 313 524 243 l 610 731 l 732 731 l 603 0 l 514 0 l 514 99 l 504 99 q 397 15 463 47 q 265 -17 332 -17 m 219 -240 l 243 -108 l 364 -108 l 340 -240 l 219 -240 z "},"ù":{"ha":772,"x_min":47,"x_max":732,"o":"m 47 0 m 265 -17 q 103 24 160 -17 q 47 156 47 65 q 57 246 47 190 l 142 731 l 264 731 l 181 254 q 174 181 174 208 q 202 106 174 128 q 282 85 231 85 q 392 113 339 85 q 485 192 446 140 q 536 313 524 243 l 610 731 l 732 731 l 603 0 l 514 0 l 514 99 l 504 99 q 397 15 463 47 q 265 -17 332 -17 m 401 821 l 283 1000 l 285 1004 l 418 1004 l 506 821 l 401 821 z "},"ủ":{"ha":772,"x_min":47,"x_max":732,"o":"m 47 0 m 265 -17 q 103 24 160 -17 q 47 156 47 65 q 57 246 47 190 l 142 731 l 264 731 l 181 254 q 174 181 174 208 q 202 106 174 128 q 282 85 231 85 q 392 113 339 85 q 485 192 446 140 q 536 313 524 243 l 610 731 l 732 731 l 603 0 l 514 0 l 514 99 l 504 99 q 397 15 463 47 q 265 -17 332 -17 m 431 906 l 449 906 q 483 913 472 906 q 493 936 493 921 q 483 951 493 947 q 454 956 474 956 l 371 956 l 381 1010 q 483 1021 429 1021 q 563 1006 529 1021 q 596 953 596 990 q 568 887 596 910 q 500 860 540 864 l 493 821 l 415 821 l 431 906 z "},"ư":{"ha":772,"x_min":47,"x_max":922,"o":"m 922 1004 l 910 929 q 722 679 882 742 l 603 0 l 514 0 l 514 99 l 504 99 q 397 15 463 47 q 265 -17 332 -17 q 103 24 160 -17 q 47 156 47 65 q 57 246 47 190 l 142 731 l 264 731 l 181 254 q 174 181 174 208 q 202 106 174 128 q 282 85 231 85 q 392 113 339 85 q 485 192 446 140 q 536 313 524 243 l 610 731 l 611 731 q 804 854 763 746 l 743 854 l 769 1004 l 922 1004 z "},"ứ":{"ha":772,"x_min":47,"x_max":922,"o":"m 47 0 m 922 1004 l 910 929 q 722 679 882 742 l 603 0 l 514 0 l 514 99 l 504 99 q 397 15 463 47 q 265 -17 332 -17 q 103 24 160 -17 q 47 156 47 65 q 57 246 47 190 l 142 731 l 264 731 l 181 254 q 174 181 174 208 q 202 106 174 128 q 282 85 231 85 q 392 113 339 85 q 485 192 446 140 q 536 313 524 243 l 610 731 l 611 731 q 804 854 763 746 l 743 854 l 769 1004 l 922 1004 m 393 821 l 543 1004 l 683 1004 l 685 1000 l 513 821 l 393 821 z "},"ự":{"ha":772,"x_min":47,"x_max":922,"o":"m 47 0 m 922 1004 l 910 929 q 722 679 882 742 l 603 0 l 514 0 l 514 99 l 504 99 q 397 15 463 47 q 265 -17 332 -17 q 103 24 160 -17 q 47 156 47 65 q 57 246 47 190 l 142 731 l 264 731 l 181 254 q 174 181 174 208 q 202 106 174 128 q 282 85 231 85 q 392 113 339 85 q 485 192 446 140 q 536 313 524 243 l 610 731 l 611 731 q 804 854 763 746 l 743 854 l 769 1004 l 922 1004 m 219 -240 l 243 -108 l 364 -108 l 340 -240 l 219 -240 z "},"ừ":{"ha":772,"x_min":47,"x_max":922,"o":"m 47 0 m 922 1004 l 910 929 q 722 679 882 742 l 603 0 l 514 0 l 514 99 l 504 99 q 397 15 463 47 q 265 -17 332 -17 q 103 24 160 -17 q 47 156 47 65 q 57 246 47 190 l 142 731 l 264 731 l 181 254 q 174 181 174 208 q 202 106 174 128 q 282 85 231 85 q 392 113 339 85 q 485 192 446 140 q 536 313 524 243 l 610 731 l 611 731 q 804 854 763 746 l 743 854 l 769 1004 l 922 1004 m 401 821 l 283 1000 l 285 1004 l 418 1004 l 506 821 l 401 821 z "},"ử":{"ha":772,"x_min":47,"x_max":922,"o":"m 47 0 m 922 1004 l 910 929 q 722 679 882 742 l 603 0 l 514 0 l 514 99 l 504 99 q 397 15 463 47 q 265 -17 332 -17 q 103 24 160 -17 q 47 156 47 65 q 57 246 47 190 l 142 731 l 264 731 l 181 254 q 174 181 174 208 q 202 106 174 128 q 282 85 231 85 q 392 113 339 85 q 485 192 446 140 q 536 313 524 243 l 610 731 l 611 731 q 804 854 763 746 l 743 854 l 769 1004 l 922 1004 m 431 906 l 449 906 q 483 913 472 906 q 493 936 493 921 q 483 951 493 947 q 454 956 474 956 l 371 956 l 381 1010 q 483 1021 429 1021 q 563 1006 529 1021 q 596 953 596 990 q 568 887 596 910 q 500 860 540 864 l 493 821 l 415 821 l 431 906 z "},"ữ":{"ha":772,"x_min":47,"x_max":922,"o":"m 47 0 m 922 1004 l 910 929 q 722 679 882 742 l 603 0 l 514 0 l 514 99 l 504 99 q 397 15 463 47 q 265 -17 332 -17 q 103 24 160 -17 q 47 156 47 65 q 57 246 47 190 l 142 731 l 264 731 l 181 254 q 174 181 174 208 q 202 106 174 128 q 282 85 231 85 q 392 113 339 85 q 485 192 446 140 q 536 313 524 243 l 610 731 l 611 731 q 804 854 763 746 l 743 854 l 769 1004 l 922 1004 m 233 860 q 280 963 243 922 q 376 1004 317 1004 q 427 999 403 1004 q 482 982 451 993 q 575 961 536 961 q 622 1004 611 961 l 713 1004 q 665 901 701 942 q 568 860 628 860 q 517 865 542 860 q 463 882 493 871 q 369 903 408 903 q 322 860 333 903 l 233 860 z "},"ű":{"ha":772,"x_min":47,"x_max":757,"o":"m 47 0 m 265 -17 q 103 24 160 -17 q 47 156 47 65 q 57 246 47 190 l 142 731 l 264 731 l 181 254 q 174 181 174 208 q 202 106 174 128 q 282 85 231 85 q 392 113 339 85 q 485 192 446 140 q 536 313 524 243 l 610 731 l 732 731 l 603 0 l 514 0 l 514 99 l 504 99 q 397 15 463 47 q 265 -17 332 -17 m 299 821 l 417 1004 l 557 1004 l 558 1000 l 410 821 l 299 821 m 497 821 l 615 1004 l 756 1004 l 757 1000 l 608 821 l 497 821 z "},"ȗ":{"ha":772,"x_min":47,"x_max":732,"o":"m 47 0 m 265 -17 q 103 24 160 -17 q 47 156 47 65 q 57 246 47 190 l 142 731 l 264 731 l 181 254 q 174 181 174 208 q 202 106 174 128 q 282 85 231 85 q 392 113 339 85 q 485 192 446 140 q 536 313 524 243 l 610 731 l 732 731 l 603 0 l 514 0 l 514 99 l 504 99 q 397 15 463 47 q 265 -17 332 -17 m 254 842 q 485 1004 283 1004 q 618 965 575 1004 q 661 867 661 925 q 658 842 661 858 l 574 842 q 552 893 575 871 q 469 915 529 915 q 339 842 369 915 l 254 842 z "},"ū":{"ha":772,"x_min":47,"x_max":732,"o":"m 47 0 m 265 -17 q 103 24 160 -17 q 47 156 47 65 q 57 246 47 190 l 142 731 l 264 731 l 181 254 q 174 181 174 208 q 202 106 174 128 q 282 85 231 85 q 392 113 339 85 q 485 192 446 140 q 536 313 524 243 l 610 731 l 732 731 l 603 0 l 514 0 l 514 99 l 504 99 q 397 15 463 47 q 265 -17 332 -17 m 251 871 l 269 971 l 693 971 l 675 871 l 251 871 z "},"ų":{"ha":772,"x_min":47,"x_max":732,"o":"m 474 -253 q 387 -229 422 -253 q 351 -153 351 -206 q 397 -53 351 -93 q 514 6 442 -14 l 514 99 l 504 99 q 397 15 463 47 q 265 -17 332 -17 q 103 24 160 -17 q 47 156 47 65 q 57 246 47 190 l 142 731 l 264 731 l 181 254 q 174 181 174 219 q 202 106 174 128 q 282 85 231 85 q 392 113 339 85 q 485 192 446 140 q 536 313 524 243 l 610 731 l 732 731 l 603 0 q 499 -59 529 -36 q 469 -119 469 -82 q 536 -162 469 -162 l 575 -162 l 563 -233 q 474 -253 513 -253 z "},"ů":{"ha":772,"x_min":47,"x_max":732,"o":"m 47 0 m 265 -17 q 103 24 160 -17 q 47 156 47 65 q 57 246 47 190 l 142 731 l 264 731 l 181 254 q 174 181 174 208 q 202 106 174 128 q 282 85 231 85 q 392 113 339 85 q 485 192 446 140 q 536 313 524 243 l 610 731 l 732 731 l 603 0 l 514 0 l 514 99 l 504 99 q 397 15 463 47 q 265 -17 332 -17 m 447 786 q 363 817 396 786 q 331 896 331 849 q 372 1009 331 965 q 485 1053 413 1053 q 568 1021 535 1053 q 601 942 601 989 q 560 829 601 872 q 447 786 519 786 m 456 849 q 515 873 493 849 q 538 932 538 897 q 521 974 538 957 q 476 990 504 990 q 417 965 439 990 q 394 906 394 940 q 410 865 394 881 q 456 849 426 849 z "},"ũ":{"ha":772,"x_min":47,"x_max":732,"o":"m 47 0 m 265 -17 q 103 24 160 -17 q 47 156 47 65 q 57 246 47 190 l 142 731 l 264 731 l 181 254 q 174 181 174 208 q 202 106 174 128 q 282 85 231 85 q 392 113 339 85 q 485 192 446 140 q 536 313 524 243 l 610 731 l 732 731 l 603 0 l 514 0 l 514 99 l 504 99 q 397 15 463 47 q 265 -17 332 -17 m 233 860 q 280 963 243 922 q 376 1004 317 1004 q 427 999 403 1004 q 482 982 451 993 q 575 961 536 961 q 622 1004 611 961 l 713 1004 q 665 901 701 942 q 568 860 628 860 q 517 865 542 860 q 463 882 493 871 q 369 903 408 903 q 322 860 333 903 l 233 860 z "},"v":{"ha":694,"x_min":68,"x_max":726,"o":"m 68 731 l 194 731 l 260 365 q 278 237 268 314 q 290 136 288 160 l 297 136 q 342 234 307 160 q 407 365 376 308 l 599 731 l 726 731 l 329 0 l 207 0 l 68 731 z "},"w":{"ha":1003,"x_min":60,"x_max":1047,"o":"m 60 731 l 183 731 l 222 317 q 231 219 226 274 q 236 144 235 165 l 243 144 l 307 317 l 476 731 l 626 731 l 654 317 q 659 219 657 274 q 661 144 661 165 l 668 144 q 697 218 676 165 q 739 317 718 271 l 924 731 l 1047 731 l 699 0 l 565 0 l 536 436 q 532 523 533 478 q 531 586 531 568 l 525 586 l 465 436 l 285 0 l 150 0 l 60 731 z "},"ẃ":{"ha":1003,"x_min":60,"x_max":1047,"o":"m 60 0 m 60 731 l 183 731 l 222 317 q 231 219 226 274 q 236 144 235 165 l 243 144 l 307 317 l 476 731 l 626 731 l 654 317 q 659 219 657 274 q 661 144 661 165 l 668 144 q 697 218 676 165 q 739 317 718 271 l 924 731 l 1047 731 l 699 0 l 565 0 l 536 436 q 532 523 533 478 q 531 586 531 568 l 525 586 l 465 436 l 285 0 l 150 0 l 60 731 m 507 821 l 657 1004 l 797 1004 l 799 1000 l 626 821 l 507 821 z "},"ŵ":{"ha":1003,"x_min":60,"x_max":1047,"o":"m 60 0 m 60 731 l 183 731 l 222 317 q 231 219 226 274 q 236 144 235 165 l 243 144 l 307 317 l 476 731 l 626 731 l 654 317 q 659 219 657 274 q 661 144 661 165 l 668 144 q 697 218 676 165 q 739 317 718 271 l 924 731 l 1047 731 l 699 0 l 565 0 l 536 436 q 532 523 533 478 q 531 586 531 568 l 525 586 l 465 436 l 285 0 l 150 0 l 60 731 m 356 817 l 535 1004 l 651 1004 l 765 817 l 646 817 l 586 926 l 486 817 l 356 817 z "},"ẅ":{"ha":1003,"x_min":60,"x_max":1047,"o":"m 60 0 m 60 731 l 183 731 l 222 317 q 231 219 226 274 q 236 144 235 165 l 243 144 l 307 317 l 476 731 l 626 731 l 654 317 q 659 219 657 274 q 661 144 661 165 l 668 144 q 697 218 676 165 q 739 317 718 271 l 924 731 l 1047 731 l 699 0 l 565 0 l 536 436 q 532 523 533 478 q 531 586 531 568 l 525 586 l 465 436 l 285 0 l 150 0 l 60 731 m 386 872 l 410 1004 l 531 1004 l 507 872 l 386 872 m 646 872 l 669 1004 l 790 1004 l 767 872 l 646 872 z "},"ẁ":{"ha":1003,"x_min":60,"x_max":1047,"o":"m 60 0 m 60 731 l 183 731 l 222 317 q 231 219 226 274 q 236 144 235 165 l 243 144 l 307 317 l 476 731 l 626 731 l 654 317 q 659 219 657 274 q 661 144 661 165 l 668 144 q 697 218 676 165 q 739 317 718 271 l 924 731 l 1047 731 l 699 0 l 565 0 l 536 436 q 532 523 533 478 q 531 586 531 568 l 525 586 l 465 436 l 285 0 l 150 0 l 60 731 m 515 821 l 397 1000 l 399 1004 l 532 1004 l 619 821 l 515 821 z "},"x":{"ha":694,"x_min":-67,"x_max":724,"o":"m -67 0 l 265 375 l 74 731 l 213 731 l 344 465 l 353 465 l 576 731 l 724 731 l 407 376 l 607 0 l 469 0 l 326 286 l 318 286 l 79 0 l -67 0 z "},"y":{"ha":694,"x_min":-56,"x_max":726,"o":"m 53 -253 q -56 -242 -18 -253 l -40 -162 l 7 -162 q 221 0 147 -162 l 68 731 l 194 731 l 267 365 q 290 237 278 314 q 306 136 301 160 l 313 136 q 356 234 322 160 q 418 365 389 308 l 599 731 l 726 731 l 364 38 q 220 -178 290 -103 q 53 -253 150 -253 z "},"ý":{"ha":694,"x_min":-56,"x_max":726,"o":"m 0 0 m 53 -253 q -56 -242 -18 -253 l -40 -162 l 7 -162 q 221 0 147 -162 l 68 731 l 194 731 l 267 365 q 290 237 278 314 q 306 136 301 160 l 313 136 q 356 234 322 160 q 418 365 389 308 l 599 731 l 726 731 l 364 38 q 220 -178 290 -103 q 53 -253 150 -253 m 353 821 l 503 1004 l 643 1004 l 644 1000 l 472 821 l 353 821 z "},"ŷ":{"ha":694,"x_min":-56,"x_max":726,"o":"m 0 0 m 53 -253 q -56 -242 -18 -253 l -40 -162 l 7 -162 q 221 0 147 -162 l 68 731 l 194 731 l 267 365 q 290 237 278 314 q 306 136 301 160 l 313 136 q 356 234 322 160 q 418 365 389 308 l 599 731 l 726 731 l 364 38 q 220 -178 290 -103 q 53 -253 150 -253 m 201 817 l 381 1004 l 497 1004 l 611 817 l 492 817 l 432 926 l 332 817 l 201 817 z "},"ÿ":{"ha":694,"x_min":-56,"x_max":726,"o":"m 0 0 m 53 -253 q -56 -242 -18 -253 l -40 -162 l 7 -162 q 221 0 147 -162 l 68 731 l 194 731 l 267 365 q 290 237 278 314 q 306 136 301 160 l 313 136 q 356 234 322 160 q 418 365 389 308 l 599 731 l 726 731 l 364 38 q 220 -178 290 -103 q 53 -253 150 -253 m 232 872 l 256 1004 l 376 1004 l 353 872 l 232 872 m 492 872 l 515 1004 l 636 1004 l 613 872 l 492 872 z "},"ỵ":{"ha":694,"x_min":-56,"x_max":726,"o":"m 0 0 m 53 -253 q -56 -242 -18 -253 l -40 -162 l 7 -162 q 221 0 147 -162 l 68 731 l 194 731 l 267 365 q 290 237 278 314 q 306 136 301 160 l 313 136 q 356 234 322 160 q 418 365 389 308 l 599 731 l 726 731 l 364 38 q 220 -178 290 -103 q 53 -253 150 -253 m 333 -240 l 357 -108 l 478 -108 l 454 -240 l 333 -240 z "},"ỳ":{"ha":694,"x_min":-56,"x_max":726,"o":"m 0 0 m 53 -253 q -56 -242 -18 -253 l -40 -162 l 7 -162 q 221 0 147 -162 l 68 731 l 194 731 l 267 365 q 290 237 278 314 q 306 136 301 160 l 313 136 q 356 234 322 160 q 418 365 389 308 l 599 731 l 726 731 l 364 38 q 220 -178 290 -103 q 53 -253 150 -253 m 361 821 l 243 1000 l 244 1004 l 378 1004 l 465 821 l 361 821 z "},"ỷ":{"ha":694,"x_min":-56,"x_max":726,"o":"m 0 0 m 53 -253 q -56 -242 -18 -253 l -40 -162 l 7 -162 q 221 0 147 -162 l 68 731 l 194 731 l 267 365 q 290 237 278 314 q 306 136 301 160 l 313 136 q 356 234 322 160 q 418 365 389 308 l 599 731 l 726 731 l 364 38 q 220 -178 290 -103 q 53 -253 150 -253 m 390 906 l 408 906 q 442 913 432 906 q 453 936 453 921 q 443 951 453 947 q 414 956 433 956 l 331 956 l 340 1010 q 443 1021 389 1021 q 522 1006 489 1021 q 556 953 556 990 q 528 887 556 910 q 460 860 500 864 l 453 821 l 375 821 l 390 906 z "},"ȳ":{"ha":694,"x_min":-56,"x_max":726,"o":"m 0 0 m 53 -253 q -56 -242 -18 -253 l -40 -162 l 7 -162 q 221 0 147 -162 l 68 731 l 194 731 l 267 365 q 290 237 278 314 q 306 136 301 160 l 313 136 q 356 234 322 160 q 418 365 389 308 l 599 731 l 726 731 l 364 38 q 220 -178 290 -103 q 53 -253 150 -253 m 211 871 l 229 971 l 653 971 l 635 871 l 211 871 z "},"ỹ":{"ha":694,"x_min":-56,"x_max":726,"o":"m 0 0 m 53 -253 q -56 -242 -18 -253 l -40 -162 l 7 -162 q 221 0 147 -162 l 68 731 l 194 731 l 267 365 q 290 237 278 314 q 306 136 301 160 l 313 136 q 356 234 322 160 q 418 365 389 308 l 599 731 l 726 731 l 364 38 q 220 -178 290 -103 q 53 -253 150 -253 m 193 860 q 240 963 203 922 q 336 1004 276 1004 q 387 999 363 1004 q 442 982 411 993 q 535 961 496 961 q 582 1004 571 961 l 672 1004 q 624 901 661 942 q 528 860 588 860 q 477 865 501 860 q 422 882 453 871 q 329 903 368 903 q 282 860 293 903 l 193 860 z "},"z":{"ha":694,"x_min":-36,"x_max":694,"o":"m -36 0 l -25 65 l 489 629 l 103 629 l 121 731 l 694 731 l 683 667 l 167 101 l 607 101 l 589 0 l -36 0 z "},"ź":{"ha":694,"x_min":-36,"x_max":694,"o":"m 0 0 m -36 0 l -25 65 l 489 629 l 103 629 l 121 731 l 694 731 l 683 667 l 167 101 l 607 101 l 589 0 l -36 0 m 367 821 l 517 1004 l 657 1004 l 658 1000 l 486 821 l 367 821 z "},"ž":{"ha":694,"x_min":-36,"x_max":694,"o":"m 0 0 m -36 0 l -25 65 l 489 629 l 103 629 l 121 731 l 694 731 l 683 667 l 167 101 l 607 101 l 589 0 l -36 0 m 368 817 l 254 1004 l 374 1004 l 436 894 l 533 1004 l 664 1004 l 485 817 l 368 817 z "},"ż":{"ha":694,"x_min":-36,"x_max":694,"o":"m 0 0 m -36 0 l -25 65 l 489 629 l 103 629 l 121 731 l 694 731 l 683 667 l 167 101 l 607 101 l 589 0 l -36 0 m 375 872 l 399 1004 l 519 1004 l 496 872 l 375 872 z "},"ẓ":{"ha":694,"x_min":-36,"x_max":694,"o":"m 0 0 m -36 0 l -25 65 l 489 629 l 103 629 l 121 731 l 694 731 l 683 667 l 167 101 l 607 101 l 589 0 l -36 0 m 181 -240 l 204 -108 l 325 -108 l 301 -240 l 181 -240 z "},"ﬁ":{"ha":694,"x_min":-140,"x_max":703,"o":"m 0 0 m -39 -253 q -94 -248 -67 -253 q -140 -236 -122 -243 l -125 -151 l -53 -151 q 25 -85 14 -151 l 151 629 l 44 629 l 63 731 l 169 731 l 190 847 q 244 969 203 922 q 378 1015 285 1015 q 433 1010 406 1015 q 479 999 461 1006 l 464 914 l 392 914 q 313 847 324 914 l 292 731 l 432 731 l 414 629 l 274 629 l 147 -85 q 94 -207 135 -161 q -39 -253 54 -253 m 557 868 l 581 1004 l 703 1004 l 679 868 l 557 868 m 404 0 l 533 731 l 656 731 l 526 0 l 404 0 z "}}}
